<?xml version="1.0" encoding="utf-8"?>
<!-- Generator: Adobe Illustrator 28.1.0, SVG Export Plug-In . SVG Version: 6.00 Build 0)  -->
<svg version="1.1" id="start-btn" xmlns="http://www.w3.org/2000/svg" xmlns:xlink="http://www.w3.org/1999/xlink" x="0px" y="0px"
	 viewBox="0 0 445.76 93.47" style="enable-background:new 0 0 445.76 93.47;" xml:space="preserve">
<style type="text/css">
	.st0{fill:#0F3753;}
	.st1{fill:#414B4C;}
	.st2{fill:#103552;}
	.st3{fill:#0E395A;}
	.st4{fill:#256191;}
	.st5{fill:#1E7BC9;}
	.st6{fill:#14486B;}
	.st7{fill:#9BD4E8;}
	.st8{fill:#207DCE;}
	.st9{fill:#64ABCB;}
	.st10{fill:#5597C6;}
	.st11{fill:#6AB5D7;}
	.st12{fill:#F3F7F4;}
	.st13{fill:#277BC4;}
	.st14{fill:#0A3E6F;}
	.st15{fill:#143E6A;}
	.st16{fill:#337AAE;}
	.st17{fill:#757C7D;}
</style>
<path class="st0" d="M445.92,16.27c0.05,0.64,0.14,1.27,0.14,1.91c0.01,17.57,0,35.13,0,52.7c0,0.48-0.04,0.96-0.06,1.44
	c-1.59,0.04-3.18,0.01-4.76,0.15c-1.93,0.18-2.26,0.6-2.29,2.57c-0.03,1.67-0.01,3.33-0.01,5c0,0,0.01-0.01,0.01-0.01
	c-1.74,0-3.48-0.03-5.22,0.02c-1.75,0.05-1.91,0.21-1.97,1.91c-0.06,1.74-0.04,3.48-0.06,5.22c0,0-0.01,0.01-0.01,0.01
	c-1.12,0.01-2.24,0.03-3.36,0.03c-112.6,0-225.2,0.01-337.79,0.01c-25.33,0-50.66,0.03-76,0.04c0,0,0,0,0,0
	c0.02-2.42,0.03-4.83,0.05-7.25C33.05,80,51.5,80,69.95,79.96c3.59-0.01,7.17-0.3,10.76-0.33c2.31-0.02,4.61,0.26,6.92,0.27
	c1.83,0.01,3.66-0.26,5.49-0.28c3.66-0.05,7.31-0.06,10.97,0c4.47,0.07,8.93,0.29,13.39,0.35c5.18,0.06,10.36,0.05,15.54,0
	c2.47-0.03,4.94-0.32,7.4-0.31c3.27,0.01,6.53,0.29,9.8,0.3c2.63,0.01,5.25-0.32,7.88-0.3c3.91,0.02,7.81,0.25,11.72,0.31
	c1.43,0.02,2.86-0.27,4.28-0.26c2.93,0.03,5.86,0.27,8.79,0.25c4.45-0.03,8.9-0.31,13.34-0.32c3.65-0.01,7.29,0.27,10.94,0.31
	c1.99,0.02,3.98-0.28,5.96-0.27c2.31,0.01,4.62,0.27,6.92,0.28c1.75,0.01,3.5-0.32,5.24-0.3c3.17,0.03,6.34,0.3,9.51,0.32
	c10.36,0.04,20.72,0.05,31.08,0c5.82-0.03,11.65-0.31,17.47-0.32c4.38-0.01,8.77,0.3,13.15,0.32c11.65,0.05,23.31,0.02,34.96,0.01
	c1.35,0,2.69-0.06,4.04-0.06c3.51,0,7.03,0.03,10.54,0c1.19-0.01,2.38-0.23,3.57-0.21c1.51,0.02,3.02,0.26,4.53,0.26
	c7.58,0.03,15.16,0.01,22.74,0.01c5.43,0,10.86,0.05,16.3-0.01c5.58-0.06,11.17-0.33,16.75-0.32c5.82,0,11.64,0.23,17.47,0.34
	c0.72,0.01,1.44,0.02,2.15-0.07c1.83-0.23,2.1-0.55,2.14-2.46c0.04-1.57,0.04-3.14,0.06-4.89c2.48-0.13,4.66-0.24,7.15-0.37
	c0-1.27,0-2.28,0-3.3c0-14.54,0-29.08-0.02-43.61c0-1.12-0.08-2.23-0.13-3.35c0.04-2.19,0.08-4.38,0.12-6.57
	c0.74,0.88,1.49,1.76,2.49,2.95C442.37,16.05,444.16,16.18,445.92,16.27z"/>
<path class="st1" d="M14.55,87.26c25.33-0.01,50.66-0.04,76-0.04c112.6-0.01,225.2-0.01,337.79-0.01c1.12,0,2.24-0.02,3.36-0.03
	c0.02,1.76,0.07,3.51,0.04,5.27c-0.03,1.73-0.2,1.86-1.97,1.94c-0.72,0.03-1.44,0.01-2.16,0.01c-136.6,0-273.19,0-409.79,0
	c-0.94,0-1.87,0-2.91,0C14.25,91.85,14.68,89.53,14.55,87.26z"/>
<path class="st2" d="M14.62,7.68c0-2.22,0-4.45,0-6.6c0.4-0.19,0.61-0.37,0.82-0.38c1.43-0.06,2.87-0.11,4.31-0.11
	c137.05,0.03,274.09,0.06,411.14,0.11c0.21,0,0.42,0.19,0.85,0.4c0,2.14,0,4.37,0,6.59c-0.01,0.18-0.02,0.37-0.04,0.55
	c-2.33-0.16-4.66-0.32-6.99-0.48c-0.72-0.05-1.43-0.12-2.15-0.14c-7.02-0.15-14.03-0.28-21.05-0.45
	c-5.48-0.13-10.95-0.35-16.42-0.45c-2.07-0.04-4.2,0.5-6.2,0.16c-3.82-0.65-7.62,0.86-11.41-0.15c-0.5-0.14-1.1,0.13-1.66,0.13
	c-2.54,0.02-5.07,0.01-7.61,0.03c-1.97,0.01-4.05-0.36-5.86,0.18c-1.85,0.55-3.63,0.68-5.4,0.4c-1.89-0.29-3.68-0.91-5.57,0.03
	c-0.52,0.26-1.26,0.1-1.9,0.1c-2.71,0.01-5.41,0-8.12,0c-2.32,0-4.63-0.03-6.95,0c-2.21,0.03-4.4-1.37-6.64-0.07
	c-0.27,0.16-0.77-0.14-1.16-0.15c-2.38-0.01-4.77,0-7.15,0c-3.34,0-6.69,0-10.03,0.01c-1.98,0-3.96,0.01-5.94,0.03
	c-2.07,0.03-4.21,0.4-6.2,0.02c-1.76-0.34-3.33-0.15-5.05,0c-3.71,0.32-7.47,0.08-11.21,0.03c-2.06-0.03-4.13-0.21-6.19-0.18
	c-3.49,0.03-6.98,0.18-10.47,0.26c-0.39,0.01-0.78-0.16-1.18-0.2c-1.96-0.18-3.88-0.57-5.91-0.24c-2.16,0.35-4.39,0.27-6.6,0.32
	c-3.09,0.07-6.19,0.11-9.28,0.11c-1.67,0-3.34-0.11-5.01-0.19c-1.89-0.09-3.84-0.53-5.66-0.21c-4.41,0.76-8.72,0.6-13.02-0.55
	c-0.6-0.16-1.25-0.26-1.87-0.24c-1.83,0.07-3.65,0.22-5.47,0.33c-2.36,0.14-4.78-0.42-7.05,0.77c-0.48,0.25-1.24-0.01-1.87-0.09
	c-1.87-0.24-3.72-0.88-5.63-0.06c-0.45,0.19-1.09-0.04-1.63-0.09c-1.9-0.18-3.79-0.46-5.69-0.51c-2.37-0.06-4.74,0.09-7.11,0.11
	c-1.57,0.02-3.19-0.27-4.7,0.01c-3.54,0.66-7.09,0.83-10.66,0.73c-1.4-0.04-2.8-0.65-4.2-0.65c-1.38,0-2.76,0.63-4.15,0.64
	c-2.22,0.02-4.45-0.2-6.67-0.4c-4.13-0.37-8.25,0.73-12.39,0.05c-0.41-0.07-0.89,0.25-1.34,0.39c-1.59,0-3.18-0.01-4.77-0.01
	c-0.34-0.85-0.67-0.84-1.01,0c-8.46,0-16.92,0.01-25.38,0.01c-1.23-1.24-1.69-1.24-2.9,0c-2.39,0-4.78,0-7.16-0.01
	c-0.33-0.85-0.66-0.86-0.99,0c-3.82,0-7.65,0-11.47,0c-0.33-0.86-0.66-0.86-0.99,0c-1.27,0-2.53,0-3.8-0.01
	c-0.33-0.85-0.66-0.85-1,0c-0.31,0-0.61,0-0.92,0c-1.19-1.09-2.71-1.09-3.87,0c-3.18,0-6.37,0-9.55-0.01c-1.08-1.2-1.36-1.21-2.44,0
	c-9.52,0-19.05,0-28.57,0.01c-0.7,0-1.4,0.15-2.1,0.23C18.43,7.79,16.53,7.74,14.62,7.68L14.62,7.68z"/>
<path class="st2" d="M7.24,22.47c-1.45-0.4-2.9-0.8-4.65-1.29C2.42,22,2.16,22.73,2.14,23.46c-0.08,3.32,0.48,6.66-0.45,9.96
	c-0.18,0.63,0.15,1.4,0.26,2.11c0.21,1.4,0.63,2.81,0.6,4.2c-0.04,1.81-0.34,3.6-0.01,5.44c0.12,0.69-0.22,1.58-0.61,2.22
	c-0.71,1.15-0.81,2.2-0.07,3.35c0.65,1.01,0.82,1.97,0.07,3.11c-0.4,0.61-0.43,1.5-0.5,2.28c-0.09,0.97-0.02,1.96-1.21,2.33
	C0.2,44.65,0.18,30.84,0.17,17.04c0-0.55,0.09-1.1,0.17-1.94c2.12-0.13,4.22-0.25,6.61-0.39c0.03-1.57,0.06-2.98,0.09-4.38
	C7.1,7.84,7.19,7.73,9.59,7.71c1.68-0.02,3.35-0.02,5.03-0.03c0,0,0.01,0.01,0.01,0.01c-0.03,2.38-0.07,4.76-0.1,7.14
	c-1.35,0.03-2.71,0.02-4.06,0.11c-1,0.06-2,0.25-3,0.38c0.01,2.4,0.01,4.8,0.02,7.19C7.41,22.43,7.33,22.42,7.24,22.47z"/>
<path class="st1" d="M438.94,80.03c0-1.67-0.02-3.33,0.01-5c0.03-1.96,0.36-2.39,2.29-2.57c1.58-0.15,3.17-0.11,4.76-0.15
	c0.02,2.15,0.06,4.29,0.06,6.44c0,0.3-0.15,0.6-0.26,1C443.51,80.32,441.21,79.9,438.94,80.03z"/>
<path class="st3" d="M431.69,8.23c0.01-0.18,0.02-0.37,0.04-0.55c2.28,0,4.56,0,7.16,0c0.02,2.6,0.03,4.88,0.04,7.15
	c0,0-0.01,0.01-0.01,0.01c-0.76,0.07-1.52,0.13-2.28,0.2c-1.5-0.02-2.99-0.03-4.49-0.05c-0.1-0.07-0.21-0.13-0.32-0.18
	c-0.12-1.76-0.24-3.52-0.36-5.29C431.54,9.1,431.62,8.67,431.69,8.23z"/>
<path class="st1" d="M14.6,80.01c-0.02,2.42-0.03,4.83-0.05,7.25c-2.26-0.05-4.51-0.1-7.03-0.16c-0.08-2.48-0.16-4.73-0.23-6.98
	c0,0,0.11-0.09,0.11-0.09c1.6,0,3.19,0,4.79,0c0.48,0,0.96,0,1.44,0c0.33,0,0.65,0,0.98-0.01L14.6,80.01z"/>
<path class="st1" d="M431.7,87.17c0.02-1.74,0-3.48,0.06-5.22c0.06-1.7,0.22-1.86,1.97-1.91c1.74-0.05,3.48-0.01,5.22-0.02
	c-0.01,1.83-0.04,3.65-0.01,5.48c0.02,1.23-0.56,1.71-1.75,1.69C435.36,87.16,433.53,87.17,431.7,87.17z"/>
<path class="st3" d="M445.92,16.27c-1.77-0.09-3.55-0.22-4.53,2.03c-1-1.19-1.75-2.07-2.49-2.95c0,0-0.02,0.01-0.02,0.01
	c0.02-0.17,0.03-0.35,0.05-0.52c0,0,0.01-0.01,0.01-0.01c1.89,0.02,3.78,0.04,5.67,0.06C445.5,14.91,446.19,15.12,445.92,16.27z"/>
<path class="st4" d="M438.78,21.92c0.04,1.12,0.12,2.23,0.13,3.35c0.01,14.54,0.01,29.08,0.02,43.61c0,1.02,0,2.03,0,3.3
	c-2.49,0.13-4.67,0.24-7.15,0.37c-0.02,1.76-0.02,3.33-0.06,4.89c-0.05,1.91-0.31,2.23-2.14,2.46c-0.71,0.09-1.44,0.08-2.15,0.07
	c-5.82-0.12-11.64-0.34-17.47-0.34c-5.58,0-11.17,0.26-16.75,0.32c-5.43,0.06-10.86,0.01-16.3,0.01c-7.58,0-15.16,0.02-22.74-0.01
	c-1.51-0.01-3.02-0.25-4.53-0.26c-1.19-0.01-2.38,0.21-3.57,0.21c-3.51,0.03-7.03-0.01-10.54,0c-1.35,0-2.69,0.06-4.04,0.06
	c-11.65,0.01-23.31,0.04-34.96-0.01c-4.38-0.02-8.77-0.33-13.15-0.32c-5.82,0.01-11.64,0.29-17.47,0.32
	c-10.36,0.06-20.72,0.05-31.08,0c-3.17-0.01-6.34-0.28-9.51-0.32c-1.75-0.02-3.5,0.31-5.24,0.3c-2.31-0.01-4.62-0.27-6.92-0.28
	c-1.99-0.01-3.98,0.29-5.96,0.27c-3.65-0.04-7.3-0.32-10.94-0.31c-4.45,0.01-8.9,0.28-13.34,0.32c-2.93,0.02-5.86-0.22-8.79-0.25
	c-1.43-0.02-2.86,0.28-4.28,0.26c-3.91-0.06-7.81-0.29-11.72-0.31c-2.63-0.01-5.25,0.31-7.88,0.3c-3.27-0.01-6.53-0.29-9.8-0.3
	c-2.47-0.01-4.93,0.29-7.4,0.31c-5.18,0.05-10.36,0.07-15.54,0c-4.47-0.05-8.93-0.28-13.39-0.35c-3.66-0.06-7.31-0.05-10.97,0
	c-1.83,0.02-3.66,0.29-5.49,0.28c-2.31-0.01-4.62-0.29-6.92-0.27c-3.59,0.03-7.17,0.32-10.76,0.33C51.5,80,33.05,80,14.6,80.01
	c0,0,0.01,0.01,0.01,0.01c0-0.16-0.02-0.32-0.07-0.47c0.01-2.37,0.02-4.74,0.03-7.11c-0.01-2.3-0.02-4.6-0.03-6.9
	c0.03-0.09,0.06-0.18,0.1-0.27c1.68-0.02,3.36-0.09,5.03-0.04c1.76,0.05,2.01,0.35,2.1,2.16c0.01,0.16,0,0.32,0,0.48
	c0.02,5.04-0.63,4.52,4.68,4.52c103.15,0.01,206.29,0,309.44,0c28.36,0,56.73,0,85.09-0.01c1.08,0,2.17-0.12,3.55-0.2
	c0-1.74-0.03-3.24,0.01-4.73c0.05-2.04,0.19-2.15,2.18-2.25c1.56-0.08,3.17,0.28,4.88-0.37c0.05-0.91,0.13-1.77,0.13-2.62
	c0.02-5.83,0.03-11.66,0.02-17.5c-0.02-7.43-0.06-14.86-0.1-22.29c0.05-0.12,0.08-0.24,0.11-0.36
	C434.1,22.01,436.44,21.97,438.78,21.92z"/>
<path class="st5" d="M438.78,21.92c-2.34,0.04-4.69,0.09-7.03,0.13c-0.01-2.24-0.02-4.49-0.03-6.73l0.12-0.13
	c0.12-0.03,0.23-0.1,0.31-0.2c1.5,0.02,2.99,0.03,4.49,0.05c0.74,0.11,1.49,0.21,2.23,0.32c0,0,0.02-0.01,0.02-0.01
	C438.86,17.54,438.82,19.73,438.78,21.92z"/>
<path class="st6" d="M127.27,7.6c0.45-0.14,0.93-0.46,1.34-0.39c4.14,0.68,8.26-0.42,12.39-0.05c2.22,0.2,4.45,0.42,6.67,0.4
	c1.38-0.01,2.77-0.64,4.15-0.64c1.4,0,2.79,0.61,4.2,0.65c3.57,0.1,7.13-0.07,10.66-0.73c1.52-0.28,3.13,0.01,4.7-0.01
	c2.37-0.02,4.75-0.17,7.11-0.11c1.9,0.05,3.79,0.33,5.69,0.51c0.55,0.05,1.19,0.28,1.63,0.09c1.91-0.83,3.76-0.18,5.63,0.06
	c0.63,0.08,1.39,0.34,1.87,0.09c2.28-1.19,4.69-0.63,7.05-0.77c1.82-0.11,3.65-0.26,5.47-0.33c0.62-0.02,1.27,0.07,1.87,0.24
	c4.3,1.16,8.61,1.31,13.02,0.55c1.82-0.31,3.77,0.13,5.66,0.21c1.67,0.08,3.34,0.18,5.01,0.19c3.09,0,6.19-0.04,9.28-0.11
	c2.2-0.05,4.44,0.03,6.6-0.32c2.03-0.33,3.95,0.05,5.91,0.24c0.4,0.04,0.79,0.21,1.18,0.2c3.49-0.08,6.98-0.22,10.47-0.26
	c2.06-0.02,4.13,0.16,6.19,0.18c3.74,0.05,7.5,0.29,11.21-0.03c1.73-0.15,3.29-0.34,5.05,0c1.99,0.38,4.12,0.01,6.2-0.02
	c1.98-0.02,3.96-0.03,5.94-0.03c3.34-0.01,6.69,0,10.03-0.01c2.38,0,4.77-0.02,7.15,0c0.39,0,0.9,0.3,1.16,0.15
	c2.24-1.3,4.43,0.09,6.64,0.07c2.32-0.03,4.63,0,6.95,0c2.71,0,5.41,0,8.12,0c0.64,0,1.38,0.16,1.9-0.1
	c1.89-0.94,3.68-0.32,5.57-0.03c1.77,0.27,3.55,0.15,5.4-0.4c1.81-0.54,3.9-0.17,5.86-0.18c2.54-0.01,5.07-0.01,7.61-0.03
	c0.55-0.01,1.15-0.27,1.66-0.13c3.79,1.02,7.59-0.5,11.41,0.15c2,0.34,4.13-0.2,6.2-0.16c5.48,0.1,10.95,0.32,16.42,0.45
	c7.02,0.17,14.03,0.29,21.05,0.45c0.72,0.02,1.43,0.09,2.15,0.14c-0.06,0.13-0.11,0.27-0.15,0.41c-2.08-0.01-4.16-0.02-6.24-0.02
	c-1.36-0.03-2.71-0.09-4.07-0.09C343.67,8.03,273.1,8.03,202.53,8.02c-3.67,0-7.34,0.05-11.01,0.08c-0.64,0-1.27,0-1.91,0
	c-2.24,0-4.48,0-6.73-0.01c-0.47,0-0.95,0-1.42,0c-3.84,0-7.68,0-11.53,0.01c-0.64,0-1.27,0-1.91,0c-3.36,0-6.72,0-10.08,0
	c-0.48,0-0.95,0-1.43,0c-3.52,0-7.04,0.01-10.56,0.01c-0.8,0-1.6,0-2.39,0c-0.64,0-1.28,0-1.93,0c-1.76,0-3.51,0-5.27,0.01
	c-0.8,0-1.6,0-2.4,0c-0.8,0-1.6,0.01-2.4,0.01c-0.48,0-0.95,0-1.43,0c-0.8,0-1.6,0-2.41-0.01c-0.14-0.06-0.29-0.1-0.44-0.14
	C127.3,7.85,127.29,7.72,127.27,7.6z"/>
<path class="st7" d="M14.52,14.82c0.03-2.38,0.07-4.76,0.1-7.14c1.9,0.05,3.8,0.1,5.7,0.15c2.73,0.09,5.46,0.17,8.18,0.26
	c-0.01,2.19,0.23,4.39-0.2,6.73C23.56,14.82,19.04,14.82,14.52,14.82z"/>
<path class="st4" d="M28.51,8.1c-2.73-0.09-5.46-0.17-8.18-0.26c0.7-0.08,1.4-0.23,2.1-0.23c9.52-0.02,19.05-0.01,28.57-0.01
	c0.81,0,1.63,0,2.44,0c3.18,0,6.37,0,9.55,0.01c1.29,0,2.58,0,3.87,0c0.31,0,0.61,0,0.92,0c0.33,0,0.67,0,1,0
	c1.27,0,2.53,0,3.8,0.01c0.33,0,0.66,0,0.99,0c3.82,0,7.65,0,11.47,0c0.33,0,0.66,0,0.99,0c2.39,0,4.78,0,7.16,0.01
	c0.97,0,1.94,0,2.9,0c8.46,0,16.92-0.01,25.38-0.01c0.34,0,0.67,0,1,0c1.59,0,3.18,0.01,4.77,0.01c0.02,0.12,0.04,0.25,0.04,0.38
	c-3.04,0.06-6.07,0.13-9.11,0.19c-0.66,0-1.33,0-1.99,0c-9.56,0-19.13,0-28.69,0c-0.5,0-1.01,0-1.51,0
	C74.18,8.15,62.36,8.14,50.54,8.12c-4.79,0-9.57,0-14.36,0C33.62,8.11,31.07,8.11,28.51,8.1z"/>
<path class="st8" d="M424.55,8.16c0.04-0.14,0.09-0.28,0.15-0.41c2.33,0.16,4.66,0.32,6.99,0.48c-0.08,0.43-0.15,0.87-0.22,1.3
	c-0.78,0.03-1.58-0.02-2.35,0.1c-0.95,0.15-1.81,0.53-2.1,1.61c-0.33,1.2-0.69,2.4-1.04,3.59c-0.53,0-1.05,0-1.58,0.01
	C424.46,12.62,424.5,10.39,424.55,8.16z"/>
<path class="st6" d="M66.87,7.6c-1.29,0-2.58,0-3.87,0C64.16,6.51,65.68,6.51,66.87,7.6z"/>
<path class="st6" d="M96.12,7.61c-0.97,0-1.94,0-2.9,0C94.43,6.37,94.89,6.37,96.12,7.61z"/>
<path class="st6" d="M53.45,7.59c-0.81,0-1.63,0-2.44,0C52.09,6.39,52.37,6.39,53.45,7.59z"/>
<path class="st6" d="M68.79,7.6c-0.33,0-0.67,0-1,0C68.12,6.75,68.46,6.75,68.79,7.6z"/>
<path class="st6" d="M73.58,7.6c-0.33,0-0.66,0-0.99,0C72.92,6.75,73.25,6.75,73.58,7.6z"/>
<path class="st6" d="M86.05,7.6c-0.33,0-0.66,0-0.99,0C85.39,6.75,85.72,6.75,86.05,7.6z"/>
<path class="st6" d="M122.5,7.59c-0.33,0-0.67,0-1,0C121.82,6.75,122.16,6.74,122.5,7.59z"/>
<path class="st9" d="M14.63,65.27c-0.03,0.09-0.07,0.18-0.1,0.27c-2.36,0.02-4.72,0.04-7.08,0.06c-0.04-0.96-0.11-1.91-0.11-2.87
	c0-12.62,0-25.25,0-37.87c0-0.8-0.06-1.59-0.1-2.39c0.09-0.04,0.17-0.03,0.24,0.04c0.95-0.03,1.91-0.01,2.86-0.09
	c1.41-0.12,2.81-0.3,4.21-0.45c0.02,0.18,0.03,0.37,0.05,0.55c-0.02,5.65-0.06,11.31-0.06,16.96C14.55,48.08,14.6,56.68,14.63,65.27
	z"/>
<path class="st8" d="M7.45,65.6c2.36-0.02,4.72-0.04,7.08-0.06c0.01,2.3,0.02,4.6,0.03,6.9c-0.8,0.03-1.59,0.06-2.39,0.1
	c-1.58-0.09-3.17-0.18-4.75-0.26C7.43,70.05,7.44,67.83,7.45,65.6z"/>
<path class="st0" d="M7.42,72.28c1.58,0.09,3.17,0.18,4.75,0.26c0,2.5,0.01,4.99,0.01,7.49c-1.6,0-3.19,0-4.79,0
	c-0.01-2.38-0.02-4.76-0.03-7.14C7.38,72.69,7.4,72.48,7.42,72.28z"/>
<path class="st10" d="M14.6,22.52c-0.02-0.18-0.03-0.37-0.05-0.55c-0.04-2.17,0.22-4.35-0.25-6.66c-2.44,0-4.64,0-6.84,0
	c1-0.13,2-0.31,3-0.38c1.35-0.08,2.71-0.08,4.06-0.11c4.52,0,9.03,0,13.79,0c0.43-2.34,0.19-4.54,0.2-6.73
	c2.55,0.01,5.11,0.01,7.66,0.02c0,2.13,0,4.26,0,6.7c5.01,0.07,9.69,0.09,14.38,0c0,0.14,0.01,0.28,0.03,0.42
	c-0.19,0.05-0.37,0.1-0.56,0.14c-4.62-0.01-9.24-0.02-13.86-0.04c-2.08,0-4.16-0.01-6.24-0.01c-2.65,0.05-5.32-0.17-8.12,0.19
	c0,2.04,0,3.77,0,5.5c-0.17,1.2-1.01,1.44-2.05,1.44C18.04,22.48,16.32,22.51,14.6,22.52z"/>
<path class="st7" d="M7.46,15.31c2.2,0,4.4,0,6.84,0c0.47,2.31,0.2,4.49,0.25,6.66c-1.4,0.15-2.81,0.33-4.21,0.45
	c-0.95,0.08-1.9,0.06-2.86,0.09C7.48,20.1,7.47,17.71,7.46,15.31z"/>
<path class="st5" d="M425.99,14.84c0.35-1.2,0.71-2.39,1.04-3.59c0.29-1.09,1.15-1.46,2.1-1.61c0.77-0.12,1.56-0.07,2.35-0.1
	c0.12,1.76,0.24,3.52,0.36,5.29c-0.01,0.12-0.01,0.25,0.02,0.37c0,0-0.12,0.13-0.12,0.13C429.81,15.16,427.9,15,425.99,14.84z"/>
<path class="st6" d="M438.88,15.36c-0.74-0.11-1.49-0.21-2.23-0.32c0.76-0.07,1.52-0.14,2.28-0.2
	C438.91,15.01,438.89,15.19,438.88,15.36z"/>
<path class="st6" d="M431.85,15.19c-0.02-0.12-0.03-0.25-0.02-0.37c0.12,0.04,0.23,0.1,0.32,0.18
	C432.07,15.09,431.97,15.16,431.85,15.19z"/>
<path class="st3" d="M12.19,80.03c0-2.5-0.01-4.99-0.01-7.49c0.8-0.03,1.59-0.06,2.39-0.1c-0.01,2.37-0.02,4.74-0.03,7.11
	c-0.3,0.16-0.61,0.32-0.91,0.47C13.15,80.03,12.67,80.03,12.19,80.03z"/>
<path class="st0" d="M13.63,80.03c0.3-0.16,0.61-0.32,0.91-0.47c0.05,0.15,0.07,0.31,0.07,0.47C14.28,80.03,13.95,80.03,13.63,80.03
	z"/>
<path class="st8" d="M14.6,22.52c1.72-0.01,3.44-0.04,5.16-0.04c1.04,0,1.87-0.24,2.05-1.44c0.93-1.24,1.78-2.45,3.65-1.18
	c0.81,0.55,2.26-0.16,2.81-1.15c0.61-1.09,1.11-2.24,1.66-3.36c2.08,0,4.16,0.01,6.24,0.01c0.54,2.08,2.31,2.33,3.93,2.28
	c2.18-0.07,4.35-0.64,6.53-0.81c1.34-0.11,2.43-0.54,3.39-1.43c0.19-0.05,0.37-0.1,0.56-0.14c1.75,0.01,3.49,0.03,5.24,0.04
	c0.39,2.06,2.26,1.49,3.47,1.72c1.11,0.21,2.33-0.38,2.77-1.72c0.96-0.03,1.92-0.06,2.88-0.09c0.63,0,1.26,0,1.9,0
	c2.56,0.03,5.12,0.06,7.68,0.09c0.12,0.77,0.54,1.5,1.33,1.34c1.21-0.24,2.74,0.18,3.47-1.34c3.51,0,7.02,0,10.54,0
	c0.87,1.25,1.06,1.25,1.93,0c1.43,0,2.86-0.01,4.29-0.01c0.16,0.22,0.33,0.43,0.49,0.65c0.16-0.22,0.33-0.43,0.49-0.65
	c0.8-0.03,1.6-0.06,2.4-0.09c0.63,0,1.26,0,1.9,0c3.52,0.03,7.04,0.06,10.56,0.09c0.44,1.74,1.59,2.47,3.34,2.41
	c2.61-0.09,5.27,0.35,7.8-0.71c0.34-0.14,0.78-0.07,1.17-0.04c1.35,0.08,2.69,0.16,4.04,0.28c1.48,0.13,2.95,0.3,4.68,0.48
	c0.8-0.26,1.9-0.69,3.04-0.98c0.81-0.21,1.25-0.64,1.37-1.44c0.32,0,0.63,0,0.95,0c0.35,1.27,1.39,1.41,2.46,1.44
	c1.44,0.03,2.87-0.02,4.31,0.03c1.27,0.04,2.6-0.04,3.78,0.33c1.33,0.41,2.56,0.57,3.96,0.44c2.75-0.25,5.53-0.23,8.3-0.29
	c2.06-0.05,4.17,0.24,6.16-0.14c2.06-0.38,3.98,0.01,5.88,0.4c2.58,0.54,5.09,0.65,7.67,0.16c1.55-0.3,3.19-0.86,4.68-0.64
	c2,0.3,3.79-0.03,5.63-0.56c1.85-0.54,3.54-0.41,5.14,0.85c2.93,2.31,5.91,4.6,9.75,5.23c0.53,0.09,1.26,0.37,1.56,0.14
	c1.1-0.86,2.29-1.76,3.01-2.92c0.57-0.92,1.24-1.32,2.14-1.69c3.33-1.39,6.84-1,10.29-1.09c2.67-0.07,5.35,0.15,8.02,0.22
	c0.31,0.01,0.63-0.12,0.95-0.12c0.86-0.02,1.72-0.02,2.57,0.01c0.71,0.02,1.44,0.19,2.14,0.11c2.21-0.27,4.41-0.61,6.6-1
	c0.37-0.07,0.66-0.57,0.99-0.88c0.16-0.03,0.32-0.06,0.48-0.09c0.48,0,0.95,0,1.43,0c1.28,0.03,2.56,0.06,3.84,0.09
	c0.48,0.32,0.93,0.74,1.46,0.93c0.81,0.28,1.7,0.32,2.51,0.59c1.92,0.62,2.25,0.49,3.23-1.52c1.44,0,2.87,0,4.31,0
	c0.55,0.57,3.89,1.9,4.79,1.91c0.08,0,0.16,0,0.24,0c1.33,0,2.67,0.05,4,0c1.75-0.07,3.49-0.22,5.23-0.31
	c0.87-0.04,1.75-0.06,2.61,0c1.11,0.07,2.22,0.35,3.31,0.3c1.43-0.07,2.64,0.22,3.16,0.95c1.45,0,2.43,0.05,3.41-0.01
	c1.18-0.08,2.4-0.1,3.52-0.42c1.14-0.32,2.11-0.35,3.22,0.15c2.05,0.91,4.09,0.89,6.23-0.06c1.5-0.67,3.2-1,4.84-1.21
	c1.54-0.2,3.15-0.24,4.67,0.01c1.71,0.28,1.68,0.46,2.53-1.29c0.8,0,1.59,0,2.39,0c0.28,1.36,1.24,2.1,1.94,2.48
	c1.75-0.23,3.05-0.41,4.35-0.56c1.64-0.18,3.29-0.31,4.27-1.93c1.44,0,2.87,0,4.31,0c0.4,0.33,0.75,0.88,1.2,0.96
	c1.87,0.33,3.76,0.63,5.65,0.7c1,0.04,2.1-0.31,2.27-1.66c1.6,0,3.19,0,4.79,0c0.23,1.39,1.27,1.52,2.35,1.41
	c3.18-0.32,6.31-0.06,9.45,0.42c0.61,0.09,1.31,0.09,1.88-0.12c3.3-1.22,6.73,0.56,10.03-0.51c0.24-0.08,0.58,0.23,0.89,0.29
	c0.46,0.08,0.93,0.16,1.39,0.13c3.72-0.23,7.44-0.45,11.15-0.76c0.42-0.04,0.81-0.56,1.21-0.86c0.64,0,1.27,0,1.91,0
	c0.16,1.08,0.88,1.43,1.87,1.43c1.81,0,3.62-0.02,5.43,0.01c3.25,0.06,6.51,0.01,9.74,0.27c2.76,0.22,5.48,0.42,8.27,0.38
	c2.3-0.03,4.57-0.17,6.83-0.45c1.97-0.24,2.12-0.33,2.87,1.55c0.45,1.13,1.12,1.66,2.32,1.63c0.54-0.01,1.08,0.1,1.68,0.16
	c0.26-1.07,0.5-2.04,0.74-3.02c0.07,1.64,0.13,3.28,0.2,5.15c2.51,0,4.72,0,6.94,0c0.03,7.43,0.08,14.86,0.1,22.29
	c0.01,5.83,0,11.66-0.02,17.5c0,0.86-0.08,1.71-0.13,2.62c-1.71,0.65-3.31,0.28-4.88,0.37c-1.99,0.11-2.14,0.21-2.18,2.25
	c-0.03,1.5-0.01,2.99-0.01,4.73c-1.38,0.08-2.46,0.2-3.55,0.2c-28.36,0.01-56.73,0.01-85.09,0.01c-103.15,0-206.29,0.01-309.44,0
	c-5.32,0-4.66,0.52-4.68-4.52c0-0.16,0-0.32,0-0.48c-0.09-1.81-0.34-2.11-2.1-2.16c-1.68-0.05-3.35,0.02-5.03,0.04
	c-0.03-8.6-0.07-17.2-0.09-25.79C14.54,33.83,14.58,28.17,14.6,22.52z M127.48,31.71c-0.38,0.83-0.76,1.66-1.13,2.49
	c-0.64,0.25-1.3,0.5-1.96,0.76c-0.17,0.67-0.48,1.34-0.49,2.01c-0.05,3.94-0.04,7.89,0,11.83c0.01,0.68,0.28,1.36,0.43,2.03
	c0.09,0.11,0.11,0.22,0.05,0.35c0.07,1.04,0.14,2.09,0.22,3.28c1.12,0.06,2.03,0.11,2.93,0.15c0,0-0.04-0.03-0.04-0.03
	c0.05,0.18,0.1,0.35,0.15,0.53c0.04,0.84,0.08,1.68,0.13,2.82c3.96,0.11,7.71,0.13,11.46-0.08c0.74-0.02,1.48-0.05,2.46-0.08
	c-0.41-2.03,0.31-3.01,2.11-3.14c0.89-0.07,1.13-0.74,1.13-1.53c0-0.71-0.02-1.42-0.02-2.13c-0.06-3.66-0.13-7.33-0.18-10.99
	c-0.02-1.5,0-2.99,0-4.55c-1.15-0.18-2.05-0.33-3.03-0.48c-0.07-1.01-0.12-1.88-0.18-2.74c0.04-0.16,0.04-0.31,0.01-0.47
	c-0.58-0.2-1.15-0.57-1.73-0.58c-3.43-0.06-6.87-0.05-10.3-0.01c-0.6,0.01-1.19,0.32-1.79,0.49
	C127.66,31.67,127.57,31.69,127.48,31.71z M117.2,32.08c-0.16-0.16-0.32-0.31-0.49-0.47c-0.2-0.12-0.41-0.34-0.62-0.34
	c-5-0.05-9.99-0.1-14.99-0.06c-0.38,0-0.75,0.63-1.12,0.96c0,0,0.04-0.04,0.04-0.04c-1.1,0.19-1.06,1.05-1.03,1.84
	c0.11,2.84,0.35,5.68,0.35,8.52c0,2.76-0.24,5.52-0.38,8.28c-0.94-0.32-1.88-0.64-2.83-0.96c-0.01-5.01,0-10.02-0.06-15.03
	c-0.01-0.9-0.38-1.79-0.59-2.68l0.04,0.08c-0.21-1.27-1.22-1.03-2.05-1.04c-3.72-0.02-7.45-0.01-11.17-0.01
	c-1.82,0-3.64-0.01-5.47,0.01c-0.8,0.01-1.66-0.05-1.75,1.1c0,0,0.03-0.15,0.03-0.15c-0.22,0.64-0.44,1.27-0.66,1.91
	c-2-0.7-4.01-1.41-6.01-2.11c-0.73-0.26-1.46-0.71-2.2-0.73c-3.72-0.07-7.45-0.03-11.17-0.03c-0.75,0-1.44,0.09-1.68,0.97l-0.1,0.05
	c-0.87,1.15-1.6,2.44-3.06,3c-0.07,0.03-0.06,0.29-0.09,0.44c0,0,0.08-0.11,0.08-0.11c-0.22,0.72-0.62,1.45-0.64,2.17
	c-0.07,3.67-0.06,7.35,0,11.02c0.01,0.75,0.36,1.5,0.55,2.26c0,0-0.08,0.05-0.08,0.05c0.2,1.16,0.4,2.31,0.58,3.36
	c1.08,0.3,1.92,0.54,2.76,0.77c0.05,0.84,0.11,1.69,0.17,2.73c3.28,0.08,6.35,0.16,9.42,0.24c1.09,1.39,2.6,1.03,4.01,0.89
	c0.28-0.03,0.5-0.69,0.75-1.07c0.01-0.14,0.04-0.28,0.1-0.41c0.53-0.27,1.12-0.47,1.59-0.84c1.86-1.47,2.53-1.4,3.95,0.48
	c0.52,0.69,1,1.49,2.07,0.85c1.85-0.06,3.7-0.11,5.83-0.17c0-1.26,0-2.26,0-3.25c0.1-0.26,0.19-0.53,0.29-0.79
	c-0.06-0.78-0.35-1.63-0.12-2.32c0.73-2.18,0.52-4.39,0.55-6.6c0.02-1.8,0.01-3.61,0.01-5.45c1.22-0.56,3.04-0.72,4.98-0.57
	c1.1,0.08,1.52,0.58,1.57,1.64c0.16,3.71,0.36,7.42,0.55,11.13c0.06,0.99,0.13,1.98,0.19,2.97c0.06,1.05,0.13,2.09,0.2,3.2
	c1.23,0.13,2.22,0.23,3.21,0.33c0.14,0.27,0.22,0.73,0.42,0.8c2.13,0.65,4.3,1.39,6.49,0.29c0.35-0.18,0.51-0.72,0.76-1.1
	c1.85-0.08,3.7-0.16,5.8-0.25c0-1.26,0-2.27,0-3.27c0.04-1.44,0.09-2.88,0.13-4.32c0.68-1.04,1.74-0.94,2.77-0.94
	c2.59,0,5.18,0,7.79,0c0.25-1.18,0.45-2.08,0.64-2.98c0.85-0.21,1.59-0.4,2.53-0.63c0-1.17,0-2.26,0-3.35c0,0-0.03-0.03-0.03-0.03
	c0.18-1.47,0.47-2.93,0.5-4.4c0.07-2.88,0.01-2.88-2.6-3.87C117.7,33.4,117.45,32.74,117.2,32.08z M372.25,51.34
	c0.02-4.46,0.05-8.92,0.06-13.38c0.01-3.37-0.01-3.37-3.46-3.53c-0.12-0.76-0.25-1.52-0.38-2.35c-4.73,0.02-9.3-0.11-13.84-0.01
	c-0.17,1.17-0.29,2.01-0.41,2.89c-1.04,0.19-1.97,0.35-2.9,0.52c-0.29,0.27-0.53,0.65-0.87,0.78c-0.62,0.23-1.35,0.55-1.91,0.39
	c-0.35-0.1-0.53-1-0.67-1.56c-0.21-0.82-0.31-1.67-0.46-2.5c-0.13-0.02-0.25-0.03-0.38-0.04c-0.09-0.12-0.14-0.26-0.16-0.41
	c-0.24-1.03-1.08-1.04-1.84-0.96c-1.39,0.15-2.93-0.59-4.16,0.62c-0.09,0.09-0.07,0.29-0.1,0.44l0.05-0.09
	c-0.21,0.72-0.55,1.43-0.61,2.17c-0.1,1.26,0.01,2.54-0.05,3.8c-0.08,1.73-0.39,2.01-2.14,2.12c-4.62,0.28-4.95-0.08-4.22-4.69
	c0.17-1.1,0.37-2.24-0.82-2.98c-0.09-0.09-0.11-0.2-0.07-0.32c-0.07-0.8-0.59-1.07-1.31-1.08c-1.04-0.01-2.08-0.05-3.11,0
	c-1.78,0.07-1.9,0.34-2.25,2.08c-0.43,2.15-0.04,4.26,0,6.4c0.08,3.99,0,7.99,0.04,11.98c0.01,0.85,0.25,1.7,0.38,2.56
	c0.09,0.12,0.12,0.25,0.08,0.39c0.08,1.06,0.16,2.12,0.24,3.23c2.13,0.13,3.99,0.47,6-0.24c0-1.09,0-2.11,0-3.12
	c0.01-2.28,0.01-4.55,0.02-6.83c2.55-0.02,5.1-0.03,7.64-0.05c0.03,2.28,0.07,4.56,0.1,6.84c0.04,1.13,0.08,2.26,0.13,3.41
	c2.17,0,4.01,0,6.08,0c0-1.22,0-2.23,0-3.23c-0.03-0.13,0.01-0.25,0.09-0.36c0.12-0.03,0.25-0.07,0.37-0.11
	c0.14-0.78,0.29-1.57,0.43-2.35c0-0.96,0-1.91,0-2.87c0.28-1.05,1.11-1.13,2.08-1.17c0.44,1.05,0.88,2.09,1.31,3.13
	c0,0-0.01,0.16-0.01,0.17c0,1.08,0,2.15,0,3.34c1.2,0.31,2.17,0.55,3.14,0.8c0.06,0.81,0.12,1.61,0.18,2.42
	c0.15,0.13,0.31,0.26,0.46,0.39c3.85,0.01,7.7,0.03,11.56,0.04c0.95,0.63,1.74,0.52,2.37-0.47c0.07-0.77,0.15-1.53,0.2-2.09
	c1.19-0.81,3.38,0.19,2.93-2.24C372.12,52.57,372.18,51.95,372.25,51.34z M218.81,41.25c0.1-0.54,0.21-1.08,0.31-1.62
	c0.58-2.96-0.24-4.54-2.78-5.57c-0.35-0.71-0.66-1.33-0.96-1.94c0,0,0.04,0.06,0.04,0.06c-0.22-1.27-1.24-1.03-2.07-1.03
	c-4.37-0.02-8.75-0.04-13.12,0c-2.2,0.02-2.3,0.17-2.39,2.53c-0.01,6.1-0.04,12.2,0,18.3c0.01,0.91,0.35,1.81,0.54,2.72
	c0.01,0.13,0.06,0.25,0.14,0.35c-0.31,2.75-0.18,2.91,2.47,2.92c3.97,0.01,7.94,0.03,11.91,0.02c0.77,0,1.54-0.08,2.62-0.14
	c0-1.03,0-1.87,0-2.72c3.43-1.14,3.51-1.27,3.13-5.02c-0.02-0.23-0.1-0.46-0.15-0.7c-0.07-1.77-0.14-3.55-0.21-5.32
	C218.47,43.14,218.64,42.2,218.81,41.25z M268.22,32.06c-0.15,0.76-0.44,1.52-0.44,2.28c-0.03,5.88-0.03,11.76,0.01,17.64
	c0.01,0.93,0.31,1.86,0.48,2.79c0,0.94,0,1.87,0,2.71c2.36,0.65,15.18,0.65,16.97,0.07c0.15-0.73,0.3-1.49,0.45-2.27
	c0.83-0.26,1.57-0.49,2.6-0.81c0-1.02,0-2.04,0-3.06c1.06-2.17,0.49-4.46,0.41-6.69c-0.02-0.48-0.65-1.22-1.12-1.34
	c-1.2-0.31-1.59-1.07-1.82-2.13c-0.05-0.22-0.47-0.36-0.72-0.53c-0.6-0.16-1.19-0.44-1.79-0.46c-1.9-0.06-3.8,0.01-5.7-0.05
	c-1.73-0.06-2.04-0.39-2.1-2.14c-0.05-1.34-0.01-2.69-0.02-4.04c-0.01-0.79,0.06-1.63-0.9-1.99c-0.2-0.23-0.39-0.67-0.6-0.67
	c-1.71-0.05-3.43-0.05-5.15,0C268.59,31.37,268.4,31.81,268.22,32.06z M316.14,41.68c0.14,0.19,0.27,0.53,0.41,0.54
	c1.79,0.04,3.58,0.05,5.36,0.02c0.12,0,0.23-0.37,0.34-0.56c0.01-0.35,0.03-0.69,0.04-1.04c0.14-1.4,0.31-2.8,0.4-4.2
	c0.07-1.01-0.37-1.72-1.47-1.77c-0.99-0.04-1.32-0.74-1.65-1.48c-0.25-0.57-0.53-1.13-0.88-1.88c-4.12,0-8.25-0.01-12.38,0.03
	c-0.31,0-0.62,0.38-0.93,0.59c-0.13,0.12-0.26,0.24-0.39,0.37c-0.37,0.66-0.73,1.33-1.12,2.02c-2.4,0.75-2.41,0.75-2.42,3.25
	c-0.01,3.67-0.07,7.35,0.02,11.02c0.05,1.89,0.37,3.77,0.57,5.74c1.8,0.19,3.03,0.84,2.99,2.77c0,0.17,0.3,0.34,0.46,0.51l0.06-0.03
	c0.46,0.24,0.92,0.67,1.38,0.68c3.55,0.06,7.1,0.06,10.65,0c0.43-0.01,0.86-0.49,1.29-0.75c0.08-0.16,0.15-0.31,0.23-0.47
	c0.47-0.83,0.22-2.22,1.65-2.3c1.49-0.09,1.83-1.12,1.85-2.27c0.02-1.25-0.16-2.5-0.25-3.74c-0.35-0.29-0.69-0.81-1.05-0.83
	c-1.71-0.09-3.43-0.04-5.17-0.04c-0.17,0.97-0.31,1.73-0.45,2.49c-1.67,0.03-3.33,0.12-4.99,0.07c-1.54-0.05-1.75-0.28-1.8-1.87
	c-0.07-2.14-0.07-4.29-0.05-6.43c0.01-1,0.13-2,0.21-3.16c2.5-0.08,4.76-0.56,6.98,0.42C316.08,40.14,316.11,40.91,316.14,41.68z
	 M176.68,32.11c-1.21,0.77-1.28,2.57-2.78,3.08l0.05-0.03c-1.25-0.01-1.11,0.92-1.11,1.69c-0.02,4.23-0.03,8.46,0.01,12.68
	c0.01,0.59,0.34,1.19,0.51,1.78c0.02,3.33,0.02,3.33,3.34,3.28c0,0-0.02-0.02-0.02-0.02c-0.02,0.18-0.04,0.36-0.06,0.54
	c0.05,0.85,0.11,1.69,0.17,2.71c4.78,0,9.35,0,14.22,0c0-1.01,0-1.85,0-2.7c0.38-0.12,0.75-0.27,1.13-0.36
	c2.09-0.51,2.16-0.58,2.04-2.65c-0.02-0.31-0.14-0.61-0.21-0.92c0-5.23,0-10.46,0-15.71c-1.14-0.24-2.04-0.43-2.81-0.59
	c-0.24-1.09-0.44-2-0.64-2.91c-0.43-0.28-0.85-0.78-1.29-0.79c-3.72-0.07-7.43-0.08-11.15,0C177.63,31.2,177.16,31.79,176.68,32.11
	L176.68,32.11z M258.59,55.04c-0.02-0.18-0.04-0.36-0.06-0.53c0.07-3.52,0.14-7.05,0.21-10.57c0.07-0.86,0.17-1.73,0.21-2.59
	c0.1-2,0.2-2.16,2.23-2.16c3.5,0,3.79,0.29,3.57-3.92c-0.1-1-0.2-2-0.34-3.29c-1.96,0-3.83,0-5.69,0c1.62-0.18,3.23-0.36,4.85-0.54
	c-5.25-0.28-10.48-0.28-15.71-0.28c-0.75,0-1.46,0.08-1.61,1.02c0,1.08,0,2.16-0.01,3.23c0.06,1.13,0.11,2.27,0.18,3.55
	c2.14,0.12,4,0.22,5.85,0.32c0.05,0.87,0.14,1.74,0.15,2.61c0.04,4.21,0.05,8.42,0.08,12.64c-0.03,0.17-0.06,0.35-0.1,0.52
	c0.06,0.91,0.12,1.81,0.18,2.75c2.13,0,3.98,0,6.01,0C258.59,56.74,258.59,55.89,258.59,55.04z M236.53,55.05
	c-0.39,2.16-0.26,2.75,0.91,2.83c1.69,0.12,3.39,0.01,5.3,0c0-1.28,0-2.21,0-3.13c0.18-0.67,0.52-1.34,0.53-2.02
	c0.04-5.34,0.01-10.67,0.02-16.01c0-1.14-0.3-1.91-1.53-2.36c-0.6-0.22-1.06-1.08-1.4-1.74c-0.49-0.96-1.17-1.48-2.24-1.48
	c-3.74,0-7.49,0-11.23,0c-0.89,0-1.65,0.33-1.79,1.25c-0.23,1.47-1.39,1.98-2.41,2.68l0.09-0.07c-1.25,0.24-1.03,1.25-1.03,2.09
	c-0.02,4.07-0.09,8.13,0.04,12.19c0.05,1.63,0.56,3.25,0.85,4.88c0.1,0.1,0.12,0.22,0.06,0.35c0.06,1.07,0.12,2.14,0.19,3.25
	c2.12,0,3.96,0,6.04,0c0-1.23,0-2.25,0-3.26c0.02-1.25,0.05-2.49,0.07-3.74c0.31-0.89,0.8-1.47,1.88-1.41
	c1.8,0.1,3.61,0.13,5.41,0.18c0.1,1.67,0.21,3.34,0.31,5C236.58,54.71,236.56,54.88,236.53,55.05z M25.31,32.16
	c-0.22,0.8-0.63,1.6-0.64,2.4c-0.06,5.74-0.06,11.48,0,17.22c0.01,0.83,0.37,1.65,0.58,2.48l-0.08,0.07c0,0.64,0.02,1.28,0,1.92
	c-0.04,1.19,0.48,1.8,1.71,1.73c0.4-0.02,0.8,0.01,1.2,0.01c3.53,0.02,3.53,0.02,3.44-3.44c0-4.02-0.01-8.04,0.02-12.06
	c0.01-1.17,0.15-2.34,0.24-3.51c1.74-0.05,3.49-0.15,5.23-0.13c1.99,0.02,2.15,0.18,2.17,2.21c0.03,3.5-0.03,6.99,0,10.49
	c0.01,0.86,0.21,1.71,0.32,2.57l0.12,0.13c0,0-0.08,0.16-0.08,0.16c0.05,1.08,0.09,2.16,0.15,3.47c2.22,0.06,4.21,0.44,6.31-0.21
	c0.06-1.03,0.12-1.97,0.17-2.91c0.18-4.9,0.48-9.79,0.49-14.69c0-2.49-0.51-4.99-0.79-7.49c-0.09-0.13-0.14-0.28-0.15-0.44
	c-0.29-1.24-1.3-0.98-2.13-0.99c-2.96-0.03-5.91-0.01-8.87-0.01c-2.56,0-5.11-0.01-7.67,0.01c-0.78,0.01-1.69-0.1-1.76,1.08
	L25.31,32.16z M149.49,32.13c-0.22,0.64-0.6,1.28-0.63,1.93c-0.08,2.13-0.04,4.26-0.04,6.4c0,3.75-0.03,7.49,0.02,11.24
	c0.01,0.84,0.32,1.67,0.49,2.51c0.09,0.09,0.08,0.18-0.01,0.26c0.02,0.37,0.04,0.74,0.06,1.11c0,0.68,0,1.37,0,2.36
	c5.8,0.05,11.31,0.09,17.09,0.02c0-1.17,0-2.02,0-2.86c0.99-0.33,1.99-0.66,2.98-0.99c0.57-0.62,0.55-1.23,0.01-1.86
	c-0.13-0.36-0.26-0.72-0.39-1.08c-0.02-0.13,0.01-0.24,0.11-0.33c1.33-1.06,0.55-2.52,0.71-3.8c0.27-2.1-0.14-3.86-2.86-4.28
	c0-1.37,0-2.63,0-3.89c0.02-1.16,0.04-2.31,0.05-3.47c-0.01-0.16,0.04-0.31,0.13-0.43c1.47-2.6,0.9-3.77-1.89-3.83
	c-1.12-0.02-2.24-0.01-3.35-0.01c-3.51,0-7.03-0.01-10.54,0.01c-0.83,0.01-1.87-0.25-2.02,1.08
	C149.44,32.22,149.49,32.13,149.49,32.13z M400.51,57.45c2.09,1.1,4.23,0.39,6.36,0.43c0.49-1.27,0.52-2.32,0.03-3.38
	c0.06-0.32,0.13-0.63,0.19-0.95c0.3-1.29,0.6-2.58,0.98-4.22c1.02,0,2.11-0.01,3.2,0c2.64,0.04,2.64,0.06,2.88,2.6
	c0.04,0.39,0.16,0.77,0.25,1.16c0.03,0.46,0.06,0.91,0.1,1.37c0.05,1.07,0.11,2.13,0.16,3.27c2.18,0,4.09,0,6.11,0
	c0-1.2,0-2.2,0-3.21c0-6.35,0-12.7,0-19c-1.26-0.22-2.17-0.39-3.04-0.54c-0.15-1.06-0.27-1.91-0.4-2.83c-4.46,0-8.82,0-13.25,0
	c-0.12,1.03-0.23,1.94-0.35,2.9c-1,0-1.86,0-2.72,0c-1.12,0.39-0.91,1.36-0.91,2.2c-0.02,4.9-0.03,9.81,0.02,14.71
	c0.01,0.75,0.33,1.5,0.51,2.25l0.07,0.1l-0.1,0.08c-0.04,0.88-0.07,1.76-0.11,2.64c-0.03,0.04-0.09,0.09-0.09,0.13
	C400.42,57.28,400.47,57.36,400.51,57.45z M393.29,32.34c-0.25-1.13-1.13-1.2-2.03-1.2c-4.29,0-8.58-0.01-12.88,0
	c-0.72,0-1.47-0.03-1.76,0.86c-0.15,0.07-0.29,0.14-0.44,0.2c-0.57-0.44-0.93-0.18-0.93,0.41c0.01,1.89,0.12,3.79,0.16,5.68
	c0.05,2.6,0.12,5.21,0.08,7.82c-0.03,2.13-0.2,4.26-0.29,6.39c-0.03,0.76,0.14,1.42,0.96,1.71l0.07,0.1c0,0-0.09,0.09-0.09,0.09
	c0.03,0.71,0.06,1.42,0.08,2.12c0.02,0.32,0.04,0.64,0.06,0.96c0.91,1.2,2.02,0.85,3.15,0.41c4.51,0,9.03,0,13.78,0
	c0-1.13,0-1.98,0-2.82c0.99-0.25,1.99-0.49,3.29-0.82c0.03-1.98,0.09-4.03,0.09-6.08c0.01-3.75-0.02-7.51-0.01-11.26
	c0-1.24-0.23-2.16-1.76-2.33C393.6,34.45,393.11,33.56,393.29,32.34z"/>
<path class="st10" d="M431.64,22.42c-2.22,0-4.43,0-6.94,0c-0.07-1.87-0.14-3.51-0.2-5.15c-0.15-0.71-0.3-1.41-0.45-2.12
	c0.1-0.13,0.22-0.23,0.36-0.3c0.53,0,1.05,0,1.58-0.01c1.91,0.16,3.83,0.32,5.74,0.48c0.01,2.24,0.02,4.49,0.03,6.73
	C431.72,22.18,431.68,22.3,431.64,22.42z"/>
<path class="st9" d="M424.41,14.85c-0.14,0.07-0.27,0.17-0.36,0.3c-1.6,0.04-3.19,0.11-4.79,0.11c-11.5,0.02-23,0.03-34.51,0.04
	c-0.64,0-1.27,0-1.91,0c-12.79,0-25.58,0-38.37,0c-1.6,0-3.19,0-4.79,0c-3.04,0-6.08,0-9.12-0.01c-1.44,0-2.87,0-4.31,0
	c-3.52,0-7.04,0-10.56,0c-0.8,0-1.59,0-2.39,0c-17.26,0-34.53,0-51.79,0c-1.44,0-2.87,0-4.31,0c-2.4,0-4.8,0-7.2,0
	c-1.28-0.03-2.56-0.06-3.84-0.09c-0.48,0-0.95,0-1.43,0c-0.16,0.03-0.32,0.06-0.48,0.09c-1.67-0.01-3.34-0.04-5-0.04
	c-10.8-0.02-21.6-0.04-32.4-0.06c-0.32,0-0.64,0-0.96,0c-2.56,0-5.12,0-7.68-0.01c-0.32,0-0.63,0-0.95,0
	c-1.83,0.02-3.66,0.05-5.49,0.06c-17.83,0.01-35.66,0.02-53.5,0.04c-0.32,0-0.63,0-0.95,0c-8.48,0-16.95,0-25.42,0.01
	c-3.52-0.03-7.04-0.06-10.56-0.09c-0.63,0-1.27,0-1.9,0c-0.8,0.03-1.6,0.06-2.4,0.09c-0.16-0.03-0.32-0.06-0.48-0.09
	c-0.16,0-0.32,0-0.49,0l-0.01,0.09c-1.43,0-2.86,0.01-4.29,0.01c-0.64,0-1.29,0-1.93,0c-3.51,0-7.02,0-10.54,0c-1.6,0-3.2,0-4.81,0
	c-2.56-0.03-5.12-0.06-7.68-0.09c-0.63,0-1.26,0-1.9,0c-0.96,0.03-1.92,0.06-2.88,0.09c-2.08,0-4.16,0-6.25,0.01
	c-1.75-0.01-3.49-0.03-5.24-0.04c-0.01-0.14-0.02-0.28-0.03-0.42c0.05-2.07,0.09-4.14,0.14-6.21c10.84-0.01,21.69-0.01,32.53-0.05
	c0.93,0,1.85-0.26,2.78-0.41c0.5,0,1.01,0,1.51,0c0.84,0.14,1.69,0.4,2.53,0.4c7.88,0.03,15.75,0.03,23.63,0
	c0.85,0,1.69-0.26,2.53-0.4c0.66,0,1.33,0,1.99,0c2.9,0.12,5.8,0.25,8.7,0.34c0.28,0.01,0.56-0.25,0.85-0.39c0.8,0,1.6,0,2.41,0.01
	c0.48,0,0.95,0,1.43,0c0.8,0,1.6-0.01,2.4-0.01c0.8,0.63,1.6,0.63,2.4,0c1.76,0,3.51,0,5.27-0.01c0.64,0.59,1.28,0.59,1.93,0
	c0.8,0,1.6,0,2.39,0c0.44,0.15,0.88,0.43,1.33,0.44c2.63,0.04,5.27,0.04,7.91,0c0.44-0.01,0.88-0.29,1.32-0.45c0.48,0,0.95,0,1.43,0
	c0.52,0.16,1.04,0.45,1.56,0.46c2.32,0.05,4.63,0.05,6.95,0c0.52-0.01,1.04-0.3,1.57-0.46c0.64,0,1.27,0,1.91,0
	c0.13,0.09,0.26,0.25,0.39,0.25c3.58,0.01,7.17,0.01,10.75,0c0.13,0,0.26-0.17,0.39-0.25c0.47,0,0.95,0,1.42,0
	c2.24,0.79,4.48,0.77,6.73,0.01c0.64,0,1.27,0,1.91,0c1,0.16,2,0.46,3,0.47c19.42,0.03,38.83,0.02,58.25,0.02
	c54.1,0,108.19,0,162.29-0.02c1.09,0,2.17-0.28,3.26-0.44c2.08,0.01,4.16,0.02,6.24,0.02C424.5,10.39,424.46,12.62,424.41,14.85z"/>
<path class="st11" d="M418.31,8.13c-1.08,0.15-2.17,0.43-3.26,0.44c-54.1,0.02-108.19,0.02-162.29,0.02
	c-19.42,0-38.83,0.01-58.25-0.02c-1,0-2-0.3-3-0.47c3.67-0.03,7.34-0.08,11.01-0.08c70.57,0,141.15,0.01,211.72,0.02
	C415.6,8.05,416.96,8.1,418.31,8.13z"/>
<path class="st11" d="M181.46,8.1c-0.13,0.09-0.26,0.25-0.39,0.25c-3.58,0.02-7.17,0.02-10.75,0c-0.13,0-0.26-0.16-0.39-0.25
	C173.78,8.1,177.62,8.1,181.46,8.1z"/>
<path class="st11" d="M156.52,8.11c-0.44,0.16-0.88,0.44-1.32,0.45c-2.63,0.04-5.27,0.04-7.91,0c-0.44-0.01-0.89-0.29-1.33-0.44
	C149.49,8.11,153.01,8.11,156.52,8.11z"/>
<path class="st11" d="M168.03,8.11c-0.52,0.16-1.04,0.44-1.57,0.46c-2.32,0.05-4.63,0.05-6.95,0c-0.52-0.01-1.04-0.3-1.56-0.46
	C161.31,8.11,164.67,8.11,168.03,8.11z"/>
<path class="st11" d="M127.75,8.12c-0.28,0.13-0.57,0.39-0.85,0.39c-2.9-0.09-5.8-0.22-8.7-0.34c3.04-0.06,6.08-0.13,9.11-0.19
	C127.46,8.02,127.6,8.06,127.75,8.12z"/>
<path class="st11" d="M189.61,8.11c-2.24,0.77-4.48,0.78-6.73-0.01C185.12,8.11,187.36,8.11,189.61,8.11z"/>
<path class="st11" d="M136.38,8.11c-0.8,0.64-1.6,0.64-2.4,0C134.78,8.12,135.58,8.12,136.38,8.11z"/>
<path class="st11" d="M143.57,8.11c-0.64,0.59-1.28,0.58-1.93,0C142.29,8.11,142.93,8.11,143.57,8.11z"/>
<path class="st11" d="M131.58,8.12c-0.48,0-0.95,0-1.43,0C130.63,8.13,131.1,8.13,131.58,8.12z"/>
<path class="st7" d="M50.69,8.62c-0.05,2.07-0.09,4.14-0.14,6.21c-4.68,0.09-9.36,0.07-14.38,0c0-2.44,0-4.57,0-6.7
	c4.79,0,9.57,0,14.36,0C50.59,8.29,50.64,8.45,50.69,8.62z"/>
<path class="st11" d="M50.69,8.62c-0.05-0.17-0.1-0.33-0.15-0.5C62.36,8.14,74.18,8.15,86,8.17c-0.93,0.14-1.85,0.4-2.78,0.41
	C72.37,8.61,61.53,8.61,50.69,8.62z"/>
<path class="st11" d="M116.2,8.17c-0.84,0.14-1.69,0.4-2.53,0.4c-7.88,0.03-15.75,0.03-23.63,0c-0.85,0-1.69-0.26-2.53-0.4
	C97.07,8.17,106.64,8.17,116.2,8.17z"/>
<path class="st5" d="M29.93,15.34c-0.55,1.12-1.05,2.27-1.66,3.36c-0.55,0.99-2,1.71-2.81,1.15c-1.86-1.26-2.71-0.06-3.65,1.18
	c0-1.73,0-3.46,0-5.5C24.61,15.18,27.28,15.39,29.93,15.34z"/>
<path class="st5" d="M50.02,15.39c-0.96,0.89-2.05,1.32-3.39,1.43c-2.19,0.17-4.35,0.75-6.53,0.81c-1.62,0.05-3.39-0.2-3.93-2.28
	C40.78,15.37,45.4,15.38,50.02,15.39z"/>
<path class="st12" d="M218.3,44.09c0.07,1.77,0.14,3.55,0.21,5.32c-0.07,0.54-0.13,1.07-0.2,1.66c-0.94,0.12-1.84,0.23-2.58,0.32
	c-0.25,1.21-0.47,2.24-0.69,3.27c-5.43-0.03-10.85-0.06-16.28-0.09c-0.04-1.89-0.1-3.79-0.13-5.68c-0.06-5.14-0.11-10.27-0.16-15.41
	c0-0.31,0-0.62,0-0.92c0.09-0.16,0.17-0.31,0.26-0.47c5.56,0.03,11.12,0.06,16.68,0.09c0,0-0.04-0.06-0.04-0.06
	c0.06,0.93,0.11,1.87,0.17,2.8c0.99,0.18,1.83,0.34,2.73,0.51c0,1.94,0,3.77,0,5.59c-0.86,0.05-1.72,0.1-2.68,0.15
	c0,0.92,0,1.75,0,2.67C216.58,43.93,217.44,44.01,218.3,44.09z M211.79,35.6c-2.31,0-4.62,0-7.04,0c0.07,1.17,0.14,2.18,0.2,3.19
	c0,0.61,0,1.22,0,1.87c2.41,0,4.68,0,7.03,0c0-1.03,0-1.9,0-2.76c-0.01-0.7-0.02-1.4-0.03-2.1l0.02-0.19L211.79,35.6z M212,47.97
	c0-1.16,0-2.32,0-3.44c-2.49,0-4.76,0-7.08,0c0,1.27,0,2.37,0,3.47c0,0.99,0,1.97,0,2.97c2.5,0,4.77,0,7.08,0
	C212,49.86,212,48.91,212,47.97z"/>
<path class="st12" d="M376.18,32.2c0.15-0.07,0.29-0.14,0.44-0.2c4.35,0.02,8.7,0.02,13.04,0.07c1.18,0.01,2.35,0.14,3.53,0.22
	c0,0.84,0,1.68,0,2.48c1.2,0.21,2.1,0.37,2.99,0.53c0,2,0,3.78,0,5.37c-0.92,0.87-2.24-0.2-2.84,1.01c0,0.55,0,1.11,0,1.66
	c-0.03,0.06-0.11,0.13-0.09,0.18c0.03,0.13,0.11,0.24,0.16,0.36c0.64,0.04,1.28,0.08,1.92,0.12c0.3,0.2,0.85,0.4,0.85,0.61
	c0.06,2.16,0.04,4.33,0.04,6.51c-1.09,0.1-1.94,0.18-2.85,0.26c-0.17,1.13-0.33,2.2-0.49,3.27c-5.41,0-10.82,0.01-16.23,0.02
	c-0.17-0.08-0.33-0.15-0.5-0.23l0.09-0.09c0,0-0.07-0.1-0.07-0.11C376.16,46.88,376.17,39.54,376.18,32.2z M389.89,44.67
	c-0.33-0.18-0.65-0.5-0.98-0.51c-1.83-0.06-3.66-0.06-5.5-0.02c-0.32,0.01-0.63,0.34-0.95,0.52c0,0.97,0,1.94,0,2.91
	c0,1.09,0,2.18,0,3.41c2.52,0,4.91,0,7.41,0c0-1.25,0-2.34,0-3.43C389.88,46.59,389.89,45.63,389.89,44.67z M382.51,35.8
	c-0.01,0.7-0.02,1.4-0.03,2.1c0,0.92,0,1.83,0,2.91c2.62,0.03,5.02,0.19,7.52-0.07c-0.06-0.97-0.09-1.68-0.13-2.38
	c0-0.52,0-1.03-0.01-1.55c-0.06-0.38-0.12-0.76-0.19-1.14c-2.33-0.03-4.66-0.06-6.99-0.1l-0.19,0.03L382.51,35.8z"/>
<path class="st12" d="M401.01,35.07c0.86,0,1.72,0,2.72,0c0.12-0.96,0.22-1.87,0.35-2.9c4.43,0,8.79,0,13.25,0
	c0.13,0.92,0.25,1.78,0.4,2.83c0.87,0.15,1.77,0.32,3.04,0.54c0,6.3,0,12.65,0,19.01c-2.09-0.02-4.18-0.04-6.27-0.06
	c-0.03-0.46-0.06-0.91-0.1-1.36c0-2.36,0-4.73,0-7.07c-2.59,0-4.95,0-7.3,0c0,2.61,0,5.06,0,7.52c-0.06,0.32-0.13,0.63-0.19,0.95
	c-2.1-0.03-4.2-0.07-6.3-0.1l0.1-0.08c0,0-0.07-0.1-0.07-0.11c0.04-5.53,0.06-11.06,0.12-16.58
	C400.75,36.78,400.92,35.93,401.01,35.07z M406.99,35.76c0.01,1,0.03,2,0.04,3c0,1.08,0,2.16,0,3.43c2.52,0.1,4.91,0.16,7.36-0.01
	c0-1.44,0-2.61,0-3.78c-0.02-0.89-0.03-1.78-0.05-2.67l0.04-0.12c0,0-0.13-0.02-0.13-0.02c-2.39,0.01-4.78,0.01-7.18,0.02
	l-0.14,0.02C406.93,35.63,406.99,35.76,406.99,35.76z"/>
<path class="st12" d="M45.71,32.13c0.01,0.16,0.06,0.3,0.15,0.44c-0.03,0.87-0.09,1.75-0.09,2.62c-0.02,6.45-0.04,12.9-0.05,19.35
	c-2.06-0.05-4.12-0.1-6.18-0.15c0,0,0.08-0.16,0.08-0.16s-0.12-0.13-0.12-0.13c0-6.18,0-12.36,0-18.53c-2.71,0-5.23,0-7.98,0
	c0.09,1.23,0.18,2.31,0.26,3.4c-0.08,1.17-0.23,2.34-0.24,3.51c-0.03,4.02-0.02,8.04-0.02,12.06c-2.12-0.07-4.23-0.15-6.34-0.22
	c0,0,0.08-0.07,0.08-0.07c0.02-7.37,0.05-14.73,0.07-22.1c0,0-0.04,0.07-0.04,0.07C32.08,32.2,38.89,32.17,45.71,32.13z"/>
<path class="st12" d="M326.72,54.55c0.03-0.14,0.01-0.27-0.08-0.39c0.06-7.29,0.11-14.57,0.17-21.93c2.16,0,4.12,0,6.08,0
	c-0.04,0.12-0.01,0.23,0.07,0.32c0,2.67,0,5.34,0,8.09c2.73,0,5.2,0,7.84,0c0-2.98,0-5.75,0-8.52c0,0-0.05,0.09-0.05,0.09
	c2.03-0.04,4.07-0.07,6.1-0.11c0.02,0.15,0.07,0.29,0.16,0.41c0,7.22,0.01,14.45,0.01,21.67c-0.09,0.11-0.12,0.22-0.09,0.36
	c-2.07-0.06-4.14-0.12-6.21-0.17c-0.03-2.28-0.07-4.56-0.1-6.84c0-1,0-1.99,0-2.96c-2.68,0-5.15,0-7.64,0c0,1.13,0,2.07,0,3.01
	c-0.01,2.28-0.01,4.55-0.02,6.83C330.88,54.47,328.8,54.51,326.72,54.55z"/>
<path class="st12" d="M222.71,54.52c0.06-0.13,0.04-0.25-0.06-0.35c0.03-0.88,0.08-1.75,0.09-2.63c0.02-5.51,0.04-11.02,0.05-16.53
	c0,0-0.09,0.07-0.09,0.07c0.94,0,1.88,0,2.88,0c0.14-1.08,0.24-1.92,0.36-2.88c4.49,0,8.92,0,13.39,0c0.14,0.97,0.26,1.81,0.38,2.66
	c0.93,0.18,1.77,0.33,2.82,0.53c0,2.63,0.02,5.17,0,7.71c-0.03,3.82-0.08,7.64-0.13,11.46l-0.1,0.07c-1.9-0.03-3.8-0.06-5.7-0.09
	c-0.1-1.67-0.21-3.34-0.31-5c0-1.16,0-2.32,0-3.59c-2.49,0-4.83,0-7.29,0c0,1.68,0,3.25,0,4.82c-0.02,1.25-0.05,2.49-0.07,3.74
	C226.86,54.52,224.78,54.52,222.71,54.52z M236.29,35.67c-2.42,0-4.83,0-7.3,0c0,1.13,0,2.16,0,3.18c0,1.08,0,2.16,0,3.35
	c2.59,0.08,5.01,0.24,7.56-0.04c-0.07-1.32-0.13-2.35-0.18-3.37c-0.01-1-0.02-2.01-0.02-3.01l0.07-0.1L236.29,35.67z"/>
<path class="st12" d="M81.6,53.77c-0.1,0.26-0.19,0.53-0.29,0.79c-2.08-0.06-4.15-0.13-6.23-0.19c0,0,0.01-0.16,0.01-0.16
	c0.02-7.37,0.03-14.75,0.05-22.12c0,0-0.03,0.15-0.03,0.15c6.81-0.02,13.62-0.04,20.44-0.05c0,0-0.04-0.08-0.04-0.08
	c0.01,0.95,0.02,1.9,0.02,2.85c0.02,6.42,0.04,12.83,0.07,19.25l-0.08,0.12l0.08,0.11c-2.09,0.05-4.18,0.09-6.27,0.14
	c-0.06-0.99-0.13-1.98-0.19-2.97c0.04-5.1,0.07-10.2,0.09-15.3c0-0.21-0.21-0.42-0.42-0.82c-2.41-0.03-4.89-0.08-7.21,0.04
	C81.6,41.83,81.6,47.8,81.6,53.77z"/>
<path class="st12" d="M124.39,51.18c0.05-0.13,0.03-0.24-0.05-0.35c0.05-5.09,0.1-10.18,0.15-15.27c0.93-0.18,1.86-0.35,2.78-0.53
	c0.15-0.98,0.3-1.95,0.45-2.93c0.66-0.03,1.31-0.06,1.97-0.09c1.74,0,3.48,0,5.22,0c0.5,0,1,0,1.5,0c1.26,0,2.51,0,3.77,0
	c0.46,0.07,0.91,0.14,1.37,0.2c0.06,0.87,0.11,1.73,0.18,2.74c0.97,0.15,1.88,0.3,3.03,0.48c0,1.55-0.02,3.05,0,4.55
	c0.05,3.66,0.12,7.33,0.18,10.99c-1.05,0.15-2.1,0.3-3.32,0.48c0,0.83,0.09,1.61-0.04,2.35c-0.06,0.34-0.54,0.61-0.83,0.91
	c-4.19,0-8.38,0-12.57,0c-0.22-0.04-0.44-0.09-0.67-0.13l0.04,0.03c-0.08-1.06-0.16-2.13-0.24-3.25
	C126.23,51.29,125.31,51.23,124.39,51.18z M138.24,38.94c0-1.08,0-2.17,0-3.37c-2.59-0.18-5.06-0.17-7.5-0.06c0,1.35,0,2.38,0,3.4
	c0,3.96,0,7.93,0,12.05c2.55,0,4.97,0,7.5,0C138.24,46.88,138.24,42.91,138.24,38.94z"/>
<path class="st12" d="M351.22,50.99c0,0,0.01-0.16,0.01-0.17c0.03-5.12,0.05-10.24,0.08-15.36c0.93-0.17,1.85-0.33,2.9-0.52
	c0.13-0.88,0.25-1.72,0.41-2.89c4.55-0.09,9.12,0.03,13.84,0.01c0.14,0.84,0.26,1.6,0.38,2.35c0.42,1.56,2.12,0.18,2.9,1.52
	c0,4.85,0,10.01,0,15.17c-0.91,0.05-1.82,0.09-2.84,0.14c-0.07,1.19-0.13,2.25-0.19,3.31c0,0-0.13-0.05-0.13-0.05s-0.1,0.1-0.1,0.1
	c-4.52,0.02-9.03,0.03-13.55,0.05c-0.26-1.11-0.53-2.22-0.78-3.29C353.1,51.24,352.16,51.12,351.22,50.99z M365.33,35.73l-0.01-0.05
	c-2.5,0.02-5,0.04-7.49,0.06l-0.11,0c0,0,0.11,0.02,0.11,0.02c0.02,1.08,0.03,2.16,0.05,3.25c-0.51,3.96-0.06,7.9-0.12,12.07
	c2.7,0,5.12,0.16,7.59-0.05c0-4.22,0-8.19,0-12.16C365.34,37.82,365.33,36.78,365.33,35.73z"/>
<path class="st12" d="M53.32,32.15c0,0,0.1-0.05,0.1-0.05c4.6,0,9.19,0,13.83,0c0.13,1.08,0.23,1.93,0.35,2.89
	c0.95,0.18,1.87,0.35,3.09,0.58c0,5.18,0,10.33,0,15.48c-1,0.11-2,0.21-3.07,0.32c-0.09,1.1-0.17,2.09-0.27,3.19
	c-4.73,0-9.32,0-13.91,0c-0.16-1.1-0.33-2.2-0.47-3.14c-1.21-0.19-2.05-0.32-2.89-0.45c0,0,0.08-0.05,0.08-0.05
	c0.03-5.15,0.06-10.3,0.08-15.45c0,0-0.08,0.11-0.08,0.11c0.98-0.18,1.97-0.36,3.14-0.57C53.32,34.01,53.32,33.08,53.32,32.15z
	 M64.27,35.7l-0.02-0.04c-2.5-0.4-4.98-0.16-7.47-0.15c0,1.33,0,2.36,0,3.38c0,3.97,0,7.94,0,11.87c2.38,0.49,5.68,0.49,7.45,0.02
	c0-3.96,0-7.93,0-11.9C64.24,37.82,64.26,36.76,64.27,35.7z"/>
<path class="st12" d="M190.54,31.98c0.2,0.91,0.4,1.82,0.64,2.91c0.77,0.16,1.67,0.35,2.81,0.59c0,5.26,0,10.48,0,15.71
	c-0.93,0.05-1.86,0.09-2.84,0.14c-0.11,1.15-0.2,2.13-0.3,3.24c-4.82,0-9.49,0-14.16,0c0,0,0.02,0.02,0.02,0.02
	c0-1.08,0-2.16,0-3.29c-1.18-0.05-2.04-0.09-2.91-0.13c-0.03-4.55-0.07-9.1-0.08-13.66c0-0.79,0.15-1.57,0.23-2.36
	c0,0-0.05,0.03-0.05,0.03c0.83,0,1.65,0,2.57,0c0.08-1.23,0.15-2.15,0.21-3.08c0,0,0,0,0,0C181.3,32.07,185.92,32.02,190.54,31.98z
	 M180.05,38.81c0,4.04,0,8.07,0,12.15c2.66,0,5.09,0,7.58,0c0-4.16,0-8.14,0-12.12c0-1.08,0-2.16,0-3.26c-2.67,0-5.11,0-7.58,0
	C180.05,36.76,180.05,37.79,180.05,38.81z"/>
<path class="st12" d="M167.25,34.97c-0.1,0.13-0.14,0.27-0.13,0.43c-3.81,0-7.61,0-11.47,0c0,1.35,0,2.37,0,3.39
	c0,0.6,0,1.21,0,2.11c3.56,0,7,0,10.51,0c0.14,1.13,0.24,1.97,0.35,2.86c0.88,0.19,1.68,0.36,2.7,0.58c0,2.24,0,4.37,0,6.5
	c-0.1,0.09-0.13,0.2-0.11,0.33c-0.86,0.05-1.72,0.1-2.65,0.15c-0.09,1.12-0.17,2.12-0.25,3.15c-5.71,0-11.28,0-16.86,0
	c0.09-0.08,0.09-0.17,0.01-0.26c0.03-0.79,0.09-1.58,0.09-2.37c0.02-6.57,0.04-13.14,0.05-19.71c0,0-0.05,0.09-0.05,0.09
	c5.84-0.26,11.68-0.19,17.57-0.06C167.1,33.24,167.17,34.11,167.25,34.97z M162.75,47.9c0-1.09,0-2.18,0-3.43c-2.43,0-4.75,0-7.13,0
	c0,1.23,0,2.32,0,3.42c0,1.01,0,2.01,0,3.15c2.44,0,4.72,0,7.13,0C162.75,49.92,162.75,48.91,162.75,47.9z"/>
<path class="st12" d="M120.04,42.33c0,0,0.03,0.03,0.03,0.03c-0.93,0.08-1.87,0.15-2.88,0.23c-0.16,1.07-0.31,2.06-0.47,3.17
	c-1.88,0-3.62-0.07-5.36,0.02c-1.7,0.09-3.45-0.37-5.21,0.38c0.06,1.42,0.12,2.76,0.18,4.1c-0.04,1.44-0.09,2.88-0.13,4.32
	c-2.09-0.04-4.19-0.07-6.28-0.11c0.08-0.1,0.08-0.19-0.01-0.27c0.03-0.87,0.08-1.74,0.08-2.6c0.01-6.49,0.02-12.97,0.03-19.46
	c0,0-0.04,0.04-0.04,0.04c0.15-0.01,0.29-0.04,0.42-0.11c2.56-0.02,5.12-0.03,7.69-0.05c0.96,0,1.91-0.01,2.87-0.01
	c1.91,0.04,3.82,0.07,5.73,0.11l-0.01,0.02c0.17,0.95,0.34,1.89,0.51,2.84c0.91,0.15,1.83,0.3,2.86,0.46
	C120.04,37.87,120.04,40.1,120.04,42.33z M106.26,38.93c0,1.07,0,2.14,0,3.19c2.56,0,4.83,0,7.25,0c-0.05-1.19-0.1-2.21-0.14-3.23
	c0-1.08,0-2.16,0-3.31c-2.41,0-4.67,0-7.11,0C106.26,36.77,106.26,37.85,106.26,38.93z"/>
<path class="st5" d="M138.29,15.29c17.83-0.01,35.66-0.02,53.5-0.04c1.83,0,3.66-0.04,5.49-0.06c0.32,0,0.63,0,0.95-0.01
	c2.56,0,5.12,0,7.68,0.01c0.32,0,0.64,0,0.96,0c10.8,0.02,21.6,0.04,32.4,0.06c1.67,0,3.34,0.03,5,0.04
	c-0.33,0.3-0.62,0.81-0.99,0.88c-2.19,0.4-4.39,0.73-6.6,1c-0.7,0.09-1.43-0.09-2.14-0.11c-0.86-0.02-1.72-0.02-2.57-0.01
	c-0.32,0.01-0.63,0.13-0.95,0.12c-2.67-0.07-5.35-0.29-8.02-0.22c-3.45,0.09-6.96-0.31-10.29,1.09c-0.9,0.38-1.56,0.77-2.14,1.69
	c-0.72,1.16-1.91,2.06-3.01,2.92c-0.3,0.24-1.03-0.05-1.56-0.14c-3.84-0.63-6.82-2.92-9.75-5.23c-1.6-1.27-3.29-1.39-5.14-0.85
	c-1.84,0.54-3.63,0.86-5.63,0.56c-1.5-0.22-3.13,0.34-4.68,0.64c-2.58,0.5-5.09,0.39-7.67-0.16c-1.9-0.4-3.82-0.79-5.88-0.4
	c-1.99,0.37-4.1,0.09-6.16,0.14c-2.77,0.06-5.55,0.04-8.3,0.29c-1.4,0.13-2.63-0.02-3.96-0.44c-1.18-0.37-2.51-0.29-3.78-0.33
	c-1.43-0.05-2.87,0.01-4.31-0.03C139.68,16.7,138.64,16.56,138.29,15.29z"/>
<path class="st12" d="M315.71,50.34c0.14-0.76,0.27-1.53,0.45-2.49c1.74,0,3.46-0.05,5.17,0.04c0.36,0.02,0.7,0.54,1.05,0.82
	c-0.09,0.77-0.18,1.54-0.28,2.38c-0.9,0.1-1.74,0.19-2.66,0.29c-0.15,1.12-0.29,2.19-0.43,3.26c-4.47,0.01-8.94,0.03-13.42,0.04
	c-0.29-1.09-0.58-2.19-0.88-3.32c-0.83-0.09-1.68-0.18-2.58-0.27c0-5.31,0-10.51,0-15.74c1.03-0.15,1.88-0.27,2.87-0.41
	c0-0.93,0-1.79,0-2.65c0.13-0.12,0.26-0.24,0.38-0.36c4.59,0.04,9.19,0.07,13.8,0.1c0.16,1.19,0.28,2.11,0.4,2.98
	c0.97,0.18,1.79,0.33,2.55,0.47c0,1.2,0,2.19,0,3.23c-2.12,0-4.06,0-5.98,0c-0.1-1.17-0.19-2.17-0.27-3.11c-2.59,0-4.96,0-7.33,0
	c0,5.14,0,10.14,0,15.31c2.36,0,4.57,0.01,6.79-0.02C315.47,50.88,315.59,50.53,315.71,50.34z"/>
<path class="st12" d="M258.73,43.93c-0.07,3.52-0.14,7.05-0.2,10.57c-2.01,0-4.02,0-6.04,0.01c-0.02-4.21-0.04-8.43-0.08-12.64
	c-0.01-0.87-0.1-1.74-0.15-2.61c0-1.23,0-2.45,0-3.87c-2.12,0-4.07,0-6.03,0c0-1.08,0-2.16,0.01-3.23c0.32-0.08,0.64-0.15,0.96-0.23
	c1.23,0,2.47,0.01,3.7,0.01c1.64,0.01,3.28,0.01,4.92,0.02c0.28,0,0.56,0,0.84,0c0.68,0,1.37,0,2.05,0c1.86,0,3.73,0,5.69,0
	c0.13,1.29,0.23,2.29,0.34,3.29c-2.02,0.12-4.05,0.25-6.01,0.37C258.73,38.53,258.73,41.23,258.73,43.93z"/>
<path class="st13" d="M70.69,51.05c0-5.15,0-10.31,0-15.48c-1.22-0.23-2.13-0.4-3.09-0.58c-0.11-0.95-0.22-1.8-0.35-2.89
	c-4.64,0-9.24,0-13.83,0c0.23-0.89,0.93-0.97,1.68-0.97c3.72,0,7.45-0.04,11.17,0.03c0.74,0.01,1.47,0.47,2.2,0.73
	c2,0.7,4.01,1.4,6.01,2.11c0.01,5.83-0.01,11.66,0.05,17.49c0.01,0.91,0.36,1.81,0.56,2.72c0,0-0.01,0.16-0.02,0.16
	c0.13,1.21,0.27,2.41,0.4,3.62c-1.07,0.64-1.55-0.16-2.07-0.85c-1.42-1.89-2.08-1.95-3.95-0.48c-0.46,0.36-1.05,0.56-1.59,0.84
	c-0.08-0.64-0.16-1.28-0.25-1.93c0.91-0.48,1.81-0.96,3.05-1.62C70.69,53.18,70.69,52.12,70.69,51.05z"/>
<path class="st5" d="M261.52,15.3c17.26,0,34.53,0,51.79,0c-0.85,1.75-0.82,1.57-2.53,1.29c-1.52-0.25-3.14-0.21-4.67-0.01
	c-1.65,0.21-3.34,0.54-4.84,1.21c-2.14,0.96-4.18,0.98-6.23,0.06c-1.11-0.49-2.08-0.47-3.22-0.15c-1.13,0.31-2.34,0.34-3.52,0.42
	c-0.98,0.06-1.96,0.01-3.41,0.01c-0.53-0.73-1.73-1.02-3.16-0.95c-1.1,0.06-2.21-0.23-3.31-0.3c-0.87-0.05-1.74-0.04-2.61,0
	c-1.75,0.09-3.49,0.24-5.23,0.31c-1.33,0.05-2.67,0.01-4,0c-0.08,0-0.16,0-0.24,0C265.42,17.2,262.07,15.87,261.52,15.3z"/>
<path class="st5" d="M384.75,15.3c11.5-0.01,23-0.02,34.51-0.04c1.6,0,3.19-0.07,4.79-0.11c0.15,0.7,0.3,1.41,0.45,2.12
	c-0.24,0.98-0.48,1.96-0.74,3.02c-0.6-0.06-1.15-0.17-1.68-0.16c-1.2,0.03-1.86-0.5-2.32-1.63c-0.75-1.87-0.89-1.79-2.87-1.55
	c-2.26,0.28-4.53,0.42-6.83,0.45c-2.79,0.03-5.51-0.16-8.27-0.38c-3.23-0.26-6.49-0.21-9.74-0.27c-1.81-0.03-3.62-0.01-5.43-0.01
	C385.64,16.73,384.92,16.38,384.75,15.3z"/>
<path class="st6" d="M315.71,50.34c-0.12,0.19-0.24,0.54-0.37,0.54c-2.22,0.03-4.44,0.02-6.79,0.02c0-5.17,0-10.17,0-15.31
	c2.37,0,4.73,0,7.33,0c0.08,0.94,0.17,1.94,0.27,3.11c1.92,0,3.87,0,5.98,0c0-1.03,0-2.03,0-3.23c-0.76-0.14-1.58-0.29-2.55-0.47
	c-0.12-0.87-0.24-1.8-0.4-2.98c-4.62-0.03-9.21-0.07-13.8-0.1c0.31-0.21,0.62-0.59,0.93-0.59c4.13-0.04,8.25-0.03,12.38-0.03
	c0.35,0.75,0.63,1.31,0.88,1.88c0.33,0.75,0.67,1.44,1.65,1.48c1.1,0.05,1.54,0.76,1.47,1.77c-0.09,1.4-0.26,2.8-0.4,4.2
	c-1.9-1.33-4.07-1.32-6.25-1.27c-2.22-0.98-4.48-0.49-6.98-0.42c-0.08,1.16-0.21,2.16-0.21,3.16c-0.02,2.14-0.02,4.29,0.05,6.43
	c0.05,1.59,0.27,1.82,1.8,1.87C312.38,50.46,314.05,50.37,315.71,50.34z"/>
<path class="st14" d="M288.3,51.4c0,1.02,0,2.04,0,3.06c-1.02,0.32-1.77,0.55-2.6,0.81c-0.16,0.78-0.31,1.54-0.45,2.27
	c-1.79,0.58-14.61,0.58-16.97-0.07c0-0.84,0-1.78,0-2.71c0.13-0.02,0.24-0.08,0.33-0.18c0,0,0.14,0.07,0.14,0.07
	c0.52,0.15,1.04,0.42,1.56,0.42c4.37,0.03,8.75,0.03,13.12-0.01c0.51,0,1.02-0.31,1.53-0.48c0.11-1.06,0.22-2.13,0.35-3.27
	c0.96-0.05,1.81-0.09,2.65-0.13C288.05,51.3,288.16,51.37,288.3,51.4z"/>
<path class="st5" d="M344.48,15.3c12.79,0,25.58,0,38.37,0c-0.4,0.3-0.79,0.83-1.21,0.86c-3.71,0.31-7.43,0.53-11.15,0.76
	c-0.46,0.03-0.93-0.05-1.39-0.13c-0.31-0.05-0.65-0.36-0.89-0.29c-3.3,1.07-6.74-0.71-10.03,0.51c-0.57,0.21-1.27,0.22-1.88,0.12
	c-3.14-0.48-6.28-0.74-9.45-0.42C345.75,16.83,344.7,16.7,344.48,15.3z"/>
<path class="st5" d="M111.92,15.29c8.47,0,16.95,0,25.42-0.01c-0.12,0.8-0.56,1.23-1.37,1.44c-1.14,0.29-2.24,0.72-3.04,0.98
	c-1.73-0.18-3.2-0.35-4.68-0.48c-1.34-0.12-2.69-0.2-4.04-0.28c-0.39-0.02-0.83-0.1-1.17,0.04c-2.53,1.06-5.19,0.62-7.8,0.71
	C113.51,17.76,112.36,17.03,111.92,15.29z"/>
<path class="st15" d="M81.6,53.77c0-5.97,0-11.94,0-18.24c2.31-0.13,4.8-0.07,7.21-0.04c0.22,0.41,0.42,0.62,0.42,0.82
	c-0.02,5.1-0.06,10.2-0.09,15.3c-0.19-3.71-0.39-7.42-0.55-11.14c-0.05-1.06-0.47-1.56-1.57-1.64c-1.94-0.15-3.77,0.01-4.98,0.57
	c0,1.84,0.02,3.65-0.01,5.45c-0.03,2.21,0.18,4.43-0.55,6.6C81.25,52.14,81.54,53,81.6,53.77z"/>
<path class="st14" d="M215.53,55.13c0,0.85,0,1.69,0,2.72c-1.08,0.06-1.85,0.14-2.62,0.14c-3.97,0-7.94-0.01-11.91-0.02
	c-2.65-0.01-2.78-0.17-2.47-2.92c5.5,0.01,11,0.03,16.51,0.04C215.19,55.1,215.36,55.11,215.53,55.13z"/>
<path class="st15" d="M106.34,50.26c-0.06-1.34-0.12-2.69-0.18-4.1c1.75-0.75,3.51-0.29,5.21-0.38c1.73-0.09,3.48-0.02,5.36-0.02
	c0.17-1.11,0.31-2.1,0.47-3.17c1.01-0.08,1.94-0.16,2.88-0.23c0,1.09,0,2.18,0,3.35c-0.94,0.24-1.68,0.42-2.53,0.63
	c-0.19,0.91-0.39,1.8-0.64,2.98c-2.62,0-5.2,0-7.79,0C108.08,49.33,107.02,49.22,106.34,50.26z"/>
<path class="st13" d="M351.31,35.47c-0.03,5.12-0.05,10.24-0.08,15.36c-0.44-1.04-0.87-2.08-1.31-3.13
	c-0.98,0.04-1.81,0.12-2.08,1.17c-0.15-0.76-0.44-1.51-0.44-2.27c-0.03-4.68,0-9.35,0.01-14.03c0.15,0.84,0.25,1.68,0.46,2.5
	c0.14,0.57,0.32,1.46,0.67,1.56c0.56,0.16,1.3-0.15,1.91-0.39C350.78,36.12,351.02,35.74,351.31,35.47z"/>
<path class="st14" d="M368.48,54.63l0.1-0.1c0,0,0.13,0.05,0.13,0.05c1.11-0.46,2.23-0.93,3.34-1.39c0.45,2.43-1.73,1.43-2.93,2.24
	c-0.05,0.56-0.13,1.33-0.2,2.09c-0.79,0.16-1.58,0.31-2.37,0.47c-3.85-0.01-7.7-0.03-11.56-0.04c-0.15-0.13-0.31-0.26-0.46-0.39
	c-0.06-0.81-0.12-1.61-0.18-2.42c0.18-0.02,0.36-0.05,0.54-0.07c3.78,0.01,7.56,0.04,11.33,0.01
	C366.98,55.06,367.73,54.78,368.48,54.63z"/>
<path class="st14" d="M166.49,55.09c0,0.85,0,1.69,0,2.86c-5.78,0.07-11.29,0.03-17.09-0.02c0-0.99,0-1.68,0-2.36
	c2.38-0.1,4.79-0.5,7.12-0.24C159.89,55.69,163.18,55.61,166.49,55.09z"/>
<path class="st16" d="M242.41,54.56c0.04-3.82,0.1-7.64,0.13-11.46c0.02-2.54,0-5.08,0-7.71c-1.05-0.2-1.89-0.36-2.82-0.53
	c-0.12-0.86-0.24-1.7-0.38-2.66c-4.48,0-8.9,0-13.39,0c-0.12,0.96-0.23,1.81-0.36,2.88c-1,0-1.94,0-2.88,0
	c1.02-0.69,2.18-1.21,2.41-2.68c0.14-0.92,0.9-1.25,1.79-1.25c3.74,0,7.49-0.01,11.23,0c1.07,0,1.75,0.51,2.24,1.48
	c0.34,0.66,0.8,1.52,1.4,1.74c1.23,0.45,1.54,1.21,1.53,2.36c-0.01,5.34,0.02,10.67-0.02,16.01c-0.01,0.67-0.35,1.35-0.53,2.02
	C242.61,54.73,242.5,54.67,242.41,54.56z"/>
<path class="st14" d="M191.02,55.12c0,0.84,0,1.69,0,2.7c-4.87,0-9.43,0-14.22,0c-0.07-1.01-0.12-1.86-0.17-2.71
	C181.43,55.12,186.23,55.12,191.02,55.12z"/>
<path class="st15" d="M128.17,54.71c4.19,0,8.38,0,12.57,0c-0.02,0.22,0,0.62-0.07,0.64c-1.44,0.3-1.49,1.37-1.42,2.51
	c-3.75,0.21-7.5,0.19-11.46,0.08c-0.05-1.14-0.09-1.98-0.13-2.82C127.83,54.98,128,54.85,128.17,54.71z"/>
<path class="st5" d="M99.92,54.2c0.09,0.09,0.1,0.18,0.01,0.28c0.16,1.21,0.32,2.41,0.48,3.62c-0.25,0.38-0.41,0.92-0.76,1.1
	c-2.19,1.1-4.36,0.37-6.49-0.29c-0.2-0.06-0.28-0.52-0.42-0.8c0.9-0.13,1.81-0.25,2.86-0.4c0-1.24,0-2.25,0-3.27l-0.08-0.11
	c0,0,0.08-0.12,0.08-0.12c0.19-1.47,0.37-2.93,0.56-4.39c0.94,0.32,1.88,0.64,2.83,0.96C99.24,51.93,98.34,53.41,99.92,54.2z"/>
<path class="st14" d="M393.21,55.08c0,0.84,0,1.69,0,2.82c-4.75,0-9.26,0-13.78,0c-1.05-0.14-2.1-0.27-3.15-0.41
	c-0.02-0.32-0.04-0.64-0.06-0.96c2.05-1.05,4.26-1.03,6.48-0.98c2.31,0.06,4.63,0.05,6.94-0.01c0.77-0.02,1.53-0.28,2.3-0.43
	c0.31-0.02,0.61-0.05,0.92-0.07C392.98,55.07,393.09,55.08,393.21,55.08z"/>
<path class="st15" d="M155.64,38.79c0-1.02,0-2.05,0-3.39c3.86,0,7.66,0,11.47,0c-0.02,1.16-0.04,2.31-0.05,3.47
	C163.25,38.84,159.45,38.82,155.64,38.79z"/>
<path class="st14" d="M67.63,55.57c0.08,0.64,0.16,1.28,0.25,1.93c-0.06,0.13-0.09,0.27-0.1,0.41c-1.59,0.06-3.17,0.12-4.76,0.17
	c-3.07-0.08-6.13-0.16-9.42-0.24c-0.07-1.04-0.12-1.89-0.17-2.73c0,0,0.04-0.04,0.04-0.04c1.16,0.17,2.33,0.46,3.49,0.48
	C60.52,55.62,64.08,55.57,67.63,55.57z"/>
<path class="st6" d="M305,32.28c0,0.86,0,1.72,0,2.65c-0.99,0.14-1.84,0.26-2.87,0.41c0,5.23,0,10.42,0,15.74
	c0.9,0.1,1.75,0.18,2.58,0.27c0.3,1.13,0.59,2.23,0.88,3.32c0.01,0.14,0.03,0.28,0.04,0.42c-0.04,0.84-0.08,1.67-0.11,2.51
	c-0.16-0.17-0.47-0.34-0.46-0.51c0.04-1.93-1.19-2.58-2.99-2.77c-0.21-1.97-0.53-3.85-0.57-5.74c-0.09-3.67-0.03-7.35-0.02-11.02
	c0.01-2.49,0.02-2.49,2.42-3.25C304.27,33.61,304.63,32.95,305,32.28z"/>
<path class="st15" d="M31.77,38.97c-0.08-1.08-0.17-2.17-0.26-3.4c2.75,0,5.27,0,7.98,0c0,6.17,0,12.35,0,18.53
	c-0.11-0.86-0.31-1.71-0.32-2.57c-0.03-3.5,0.03-6.99,0-10.49c-0.02-2.04-0.18-2.2-2.17-2.21C35.26,38.82,33.51,38.92,31.77,38.97z"
	/>
<path class="st16" d="M155.64,38.79c3.81,0.02,7.61,0.05,11.42,0.07c0,1.26,0,2.52,0,3.89c2.72,0.42,3.13,2.18,2.86,4.28
	c-0.16,1.28,0.62,2.74-0.71,3.8c0-2.13,0-4.26,0-6.49c-1.02-0.22-1.83-0.39-2.7-0.58c-0.11-0.89-0.21-1.73-0.35-2.86
	c-3.51,0-6.95,0-10.51,0C155.64,40,155.64,39.4,155.64,38.79z"/>
<path class="st15" d="M407.09,53.57c0-2.45,0-4.91,0-7.52c2.35,0,4.71,0,7.3,0c0,2.34,0,4.71,0,7.07c-0.08-0.39-0.21-0.77-0.25-1.16
	c-0.24-2.55-0.24-2.56-2.88-2.6c-1.09-0.02-2.18,0-3.2,0C407.69,50.99,407.39,52.28,407.09,53.57z"/>
<path class="st14" d="M305.52,57.6c0.04-0.84,0.08-1.67,0.12-2.51c4.46-0.02,8.92-0.04,13.38-0.06c-0.56,0.7-1.14,1.4,0.12,2
	c-0.08,0.16-0.15,0.31-0.23,0.47c-4.44,0.02-8.88,0.05-13.32,0.07L305.52,57.6z"/>
<path class="st6" d="M393.21,55.08c-0.12-0.01-0.23-0.01-0.35-0.03c0.02-0.14,0.02-0.28,0.01-0.42c0.16-1.07,0.32-2.15,0.49-3.28
	c0.91-0.08,1.76-0.16,2.85-0.26c0-2.18,0.02-4.34-0.04-6.51c-0.01-0.21-0.56-0.4-0.85-0.61c0.15-0.79,0.29-1.57,0.47-2.54
	c-1.07,0.1-1.76,0.16-2.46,0.22c0.61-1.21,1.92-0.13,2.84-1.01c0-1.59,0-3.37,0-5.37c-0.89-0.16-1.79-0.32-2.99-0.53
	c0-0.79,0-1.63,0-2.48c0,0,0.1,0.06,0.1,0.06c-0.18,1.22,0.32,2.11,1.53,2.25c1.53,0.17,1.76,1.1,1.76,2.33
	c0,3.75,0.02,7.51,0.01,11.26c-0.01,2.05-0.06,4.1-0.09,6.08C395.2,54.59,394.2,54.83,393.21,55.08z"/>
<path class="st15" d="M166.49,55.09c-3.31,0.51-6.6,0.6-9.96,0.23c-2.34-0.26-4.75,0.14-7.12,0.24c-0.02-0.37-0.04-0.74-0.06-1.11
	c5.58,0,11.15,0,16.86,0c0.08-1.02,0.16-2.03,0.25-3.15c0.93-0.05,1.79-0.1,2.65-0.15c0.13,0.36,0.26,0.72,0.39,1.08
	c0,0.62-0.01,1.24-0.01,1.86C168.48,54.43,167.48,54.76,166.49,55.09z"/>
<path class="st15" d="M258.73,43.93c0-2.7,0-5.4,0-8.31c1.96-0.12,3.99-0.25,6.01-0.37c0.21,4.21-0.08,3.92-3.58,3.92
	c-2.02,0-2.13,0.16-2.23,2.16C258.9,42.21,258.81,43.07,258.73,43.93z"/>
<path class="st3" d="M229.01,50.77c0-1.57,0-3.14,0-4.82c2.46,0,4.8,0,7.29,0c0,1.27,0,2.43,0,3.59c-1.8-0.06-3.61-0.08-5.41-0.18
	C229.81,49.3,229.31,49.88,229.01,50.77z"/>
<path class="st15" d="M246.24,35.4c1.95,0,3.9,0,6.03,0c0,1.42,0,2.65,0,3.87c-1.85-0.1-3.71-0.2-5.85-0.32
	C246.35,37.67,246.29,36.53,246.24,35.4z"/>
<path class="st15" d="M400.6,54.41c2.1,0.03,4.2,0.07,6.3,0.1c0.48,1.05,0.45,2.1-0.03,3.37c-2.13-0.05-4.27,0.66-6.36-0.43
	c0.03-0.14,0.02-0.27-0.02-0.4C400.52,56.17,400.56,55.29,400.6,54.41z"/>
<path class="st15" d="M39.53,54.4c2.06,0.05,4.12,0.1,6.18,0.15c0.15,0.07,0.3,0.13,0.45,0.2c-0.06,0.94-0.11,1.88-0.17,2.91
	c-2.1,0.66-4.09,0.28-6.31,0.21C39.62,56.56,39.57,55.48,39.53,54.4z"/>
<path class="st15" d="M332.98,47.59c0-0.94,0-1.88,0-3.01c2.49,0,4.96,0,7.64,0c0,0.97,0,1.96,0,2.96
	C338.08,47.56,335.53,47.58,332.98,47.59z"/>
<path class="st15" d="M25.17,54.33c2.11,0.07,4.23,0.15,6.34,0.22c0.09,3.46,0.09,3.46-3.44,3.44c-0.4,0-0.8-0.03-1.2-0.01
	c-1.23,0.06-1.75-0.55-1.71-1.73C25.19,55.61,25.17,54.97,25.17,54.33z"/>
<path class="st15" d="M414.49,54.48c2.09,0.02,4.18,0.04,6.27,0.06c0,1,0,2,0,3.2c-2.02,0-3.93,0-6.11,0
	C414.6,56.61,414.54,55.55,414.49,54.48z"/>
<path class="st15" d="M222.71,54.52c2.07,0,4.15-0.01,6.22-0.01c0,1.01,0,2.03,0,3.26c-2.08,0-3.92,0-6.04,0
	C222.83,56.67,222.77,55.59,222.71,54.52z"/>
<path class="st15" d="M340.73,54.38c2.07,0.06,4.14,0.12,6.21,0.17c0,1.01,0,2.01,0,3.23c-2.08,0-3.91,0-6.08,0
	C340.81,56.65,340.77,55.52,340.73,54.38z"/>
<path class="st15" d="M326.72,54.55c2.08-0.04,4.16-0.09,6.24-0.13c0,1.01,0,2.03,0,3.12c-2.01,0.71-3.86,0.37-6,0.24
	C326.88,56.68,326.8,55.61,326.72,54.55z"/>
<path class="st15" d="M95.6,54.44c0,1.01,0,2.03,0,3.27c-1.05,0.15-1.96,0.28-2.86,0.4c-0.99-0.1-1.98-0.2-3.21-0.33
	c-0.07-1.11-0.13-2.15-0.2-3.2C91.42,54.53,93.51,54.48,95.6,54.44z"/>
<path class="st15" d="M100.42,58.09c-0.16-1.21-0.32-2.41-0.48-3.62c2.09,0.04,4.18,0.07,6.28,0.11c0,1,0,2,0,3.27
	C104.11,57.93,102.26,58.01,100.42,58.09z"/>
<path class="st15" d="M75.48,57.99c-0.13-1.21-0.27-2.41-0.4-3.62c2.08,0.07,4.15,0.13,6.23,0.19c0,0.99,0,1.99,0,3.25
	C79.17,57.88,77.32,57.93,75.48,57.99z"/>
<path class="st10" d="M198.48,33.48c0.05,5.14,0.1,10.27,0.16,15.41c0.02,1.89,0.08,3.79,0.13,5.68c-0.11,0.09-0.24,0.13-0.38,0.12
	c-0.19-0.91-0.53-1.81-0.54-2.72c-0.04-6.1-0.01-12.2,0-18.31C198.05,33.61,198.27,33.55,198.48,33.48z"/>
<path class="st16" d="M167.25,34.97c-0.07-0.86-0.15-1.72-0.24-2.81c-5.89-0.12-11.72-0.2-17.57,0.06c0.15-1.33,1.19-1.07,2.02-1.08
	c3.51-0.03,7.03-0.01,10.54-0.01c1.12,0,2.24-0.01,3.35,0.01C168.14,31.19,168.72,32.37,167.25,34.97z"/>
<path class="st16" d="M45.71,32.13c-6.81,0.03-13.62,0.06-20.43,0.1c0.08-1.19,0.98-1.08,1.76-1.08c2.56-0.02,5.11-0.01,7.67-0.01
	c2.96,0,5.91-0.01,8.87,0.01C44.4,31.16,45.42,30.9,45.71,32.13z"/>
<path class="st16" d="M95.54,32.19c-6.81,0.02-13.62,0.04-20.44,0.05c0.09-1.15,0.95-1.09,1.75-1.1c1.82-0.01,3.64-0.01,5.47-0.01
	c3.72,0,7.45-0.01,11.17,0.01C94.32,31.15,95.33,30.92,95.54,32.19z"/>
<path class="st14" d="M242.41,54.56c0.09,0.1,0.2,0.16,0.33,0.18c0,0.93,0,1.86,0,3.13c-1.91,0.01-3.61,0.12-5.3,0
	c-1.17-0.08-1.3-0.67-0.91-2.83c1.93-0.14,3.85-0.28,5.78-0.42C242.31,54.63,242.41,54.56,242.41,54.56z"/>
<path class="st5" d="M315.71,15.29c3.52,0,7.04,0,10.56,0c-0.99,1.62-2.63,1.75-4.27,1.93c-1.3,0.14-2.59,0.33-4.35,0.56
	C316.95,17.4,315.98,16.66,315.71,15.29z"/>
<path class="st6" d="M139.25,57.85c-0.06-1.14-0.02-2.2,1.42-2.51c0.07-0.01,0.05-0.42,0.07-0.64c0.29-0.3,0.77-0.57,0.83-0.91
	c0.13-0.74,0.04-1.52,0.04-2.35c1.22-0.18,2.27-0.33,3.32-0.48c0.01,0.71,0.02,1.42,0.02,2.13c0,0.78-0.24,1.46-1.13,1.53
	c-1.81,0.13-2.52,1.11-2.11,3.14C140.73,57.8,139.99,57.83,139.25,57.85z"/>
<path class="st15" d="M191.02,55.12c-4.8,0-9.59-0.01-14.39-0.01c0.02-0.18,0.04-0.36,0.06-0.54c4.67,0,9.34,0,14.16,0
	c0.1-1.11,0.19-2.09,0.3-3.24c0.98-0.05,1.91-0.09,2.84-0.14c0.07,0.31,0.19,0.61,0.21,0.92c0.12,2.07,0.05,2.14-2.04,2.65
	C191.77,54.85,191.4,55,191.02,55.12z"/>
<path class="st14" d="M258.59,55.04c0,0.85,0,1.7,0,2.75c-2.04,0-3.88,0-6.01,0c-0.06-0.94-0.12-1.85-0.18-2.75
	C254.46,55.04,256.52,55.04,258.59,55.04z"/>
<path class="st16" d="M332.89,32.23c-1.96,0-3.92,0-6.08,0c-0.06,7.36-0.11,14.64-0.17,21.93c-0.13-0.85-0.37-1.7-0.38-2.56
	c-0.04-3.99,0.04-7.99-0.04-11.98c-0.04-2.13-0.43-4.24,0-6.4c0.35-1.74,0.46-2.01,2.25-2.08c1.04-0.04,2.08-0.01,3.11,0
	C332.3,31.16,332.82,31.43,332.89,32.23z"/>
<path class="st16" d="M198.48,33.48c-0.21,0.06-0.42,0.12-0.63,0.19c0.09-2.35,0.19-2.51,2.39-2.53c4.37-0.03,8.75-0.02,13.12,0
	c0.83,0,1.85-0.24,2.07,1.03c-5.56-0.03-11.12-0.06-16.68-0.09c-0.09,0.16-0.17,0.31-0.26,0.47
	C198.48,32.87,198.48,33.18,198.48,33.48z"/>
<path class="st16" d="M99.92,54.2c-1.58-0.79-0.68-2.26-0.94-3.42c0.13-2.76,0.37-5.52,0.38-8.28c0-2.84-0.25-5.68-0.35-8.52
	c-0.03-0.79-0.07-1.65,1.03-1.84c-0.01,6.49-0.01,12.97-0.03,19.46C100,52.46,99.95,53.33,99.92,54.2z"/>
<path class="st16" d="M376.18,32.2c-0.01,7.34-0.01,14.67-0.02,22.01c-0.82-0.29-1-0.95-0.96-1.71c0.1-2.13,0.27-4.26,0.29-6.39
	c0.03-2.6-0.03-5.21-0.08-7.82c-0.04-1.89-0.15-3.79-0.16-5.68C375.25,32.02,375.61,31.76,376.18,32.2z"/>
<path class="st6" d="M319.13,57.03c-1.25-0.6-0.68-1.3-0.11-2c0.01-0.13,0.01-0.27,0-0.4c0.14-1.07,0.28-2.14,0.43-3.26
	c0.92-0.1,1.75-0.19,2.66-0.29c0.1-0.84,0.19-1.61,0.28-2.38c0.09,1.25,0.28,2.5,0.25,3.75c-0.02,1.16-0.36,2.18-1.85,2.27
	C319.35,54.81,319.6,56.2,319.13,57.03z"/>
<path class="st16" d="M222.79,35.01c-0.02,5.51-0.03,11.02-0.05,16.53c0,0.88-0.06,1.75-0.09,2.63c-0.3-1.63-0.8-3.24-0.85-4.88
	c-0.13-4.06-0.05-8.13-0.04-12.19C221.76,36.26,221.54,35.26,222.79,35.01z"/>
<path class="st16" d="M46.16,54.75c-0.15-0.07-0.3-0.13-0.45-0.2c0.02-6.45,0.03-12.9,0.05-19.35c0-0.87,0.06-1.75,0.09-2.62
	c0.28,2.49,0.8,4.99,0.79,7.48C46.64,44.95,46.34,49.85,46.16,54.75z"/>
<path class="st16" d="M393.29,32.34c0,0-0.11-0.07-0.1-0.06c-1.17-0.07-2.35-0.2-3.52-0.21c-4.35-0.04-8.7-0.05-13.04-0.07
	c0.29-0.9,1.04-0.86,1.76-0.86c4.29,0,8.58,0,12.88,0C392.16,31.14,393.04,31.21,393.29,32.34z"/>
<path class="st16" d="M173.95,35.16c-0.08,0.79-0.23,1.57-0.23,2.36c0.01,4.55,0.05,9.1,0.08,13.66c-0.13,0.09-0.28,0.13-0.44,0.13
	c-0.18-0.59-0.51-1.18-0.51-1.78c-0.04-4.23-0.03-8.45-0.01-12.68C172.84,36.08,172.71,35.14,173.95,35.16z"/>
<path class="st16" d="M190.54,31.98c-4.62,0.04-9.24,0.09-13.86,0.13c0.47-0.32,0.94-0.91,1.42-0.92c3.71-0.08,7.43-0.07,11.15,0
	C189.69,31.2,190.11,31.7,190.54,31.98z"/>
<path class="st16" d="M274.52,32.03c0.96,0.36,0.89,1.2,0.9,1.99c0.01,1.35-0.03,2.69,0.02,4.04c0.07,1.75,0.38,2.08,2.1,2.14
	c1.9,0.06,3.8-0.01,5.7,0.05c0.6,0.02,1.19,0.3,1.79,0.46c0,0-0.14,0.15-0.14,0.15c-3.34,0-6.67,0-10.19,0
	c-0.09-3.06-0.17-5.91-0.25-8.76C274.46,32.1,274.52,32.03,274.52,32.03z"/>
<path class="st16" d="M340.81,32.13c0,2.77,0,5.54,0,8.52c-2.64,0-5.11,0-7.84,0c0-2.75,0-5.42,0-8.09
	c1.19,0.74,0.99,1.87,0.82,2.98c-0.73,4.61-0.4,4.97,4.22,4.69c1.75-0.11,2.06-0.39,2.14-2.12c0.06-1.27-0.06-2.54,0.05-3.8
	C340.25,33.56,340.59,32.85,340.81,32.13z"/>
<path class="st14" d="M316.05,39.37c2.18-0.05,4.35-0.06,6.25,1.27c-0.01,0.35-0.03,0.69-0.04,1.04c-2.04,0-4.08,0.01-6.12,0.01
	C316.11,40.91,316.08,40.14,316.05,39.37z"/>
<path class="st6" d="M305.58,57.57c4.44-0.02,8.88-0.05,13.32-0.07c-0.43,0.26-0.86,0.74-1.29,0.75c-3.55,0.06-7.1,0.06-10.65,0
	C306.5,58.24,306.04,57.81,305.58,57.57z"/>
<path class="st6" d="M215.53,55.13c-0.17-0.01-0.33-0.03-0.5-0.04c0.01-0.14,0.01-0.28,0.01-0.42c0.22-1.03,0.43-2.06,0.69-3.27
	c0.74-0.09,1.63-0.2,2.58-0.32c0.07-0.59,0.14-1.13,0.2-1.66c0.05,0.23,0.13,0.46,0.15,0.7C219.03,53.86,218.95,53.98,215.53,55.13z
	"/>
<path class="st5" d="M330.57,15.3c3.04,0,6.08,0,9.12,0.01c-0.18,1.35-1.27,1.69-2.27,1.66c-1.89-0.07-3.78-0.37-5.65-0.7
	C331.33,16.18,330.97,15.63,330.57,15.3z"/>
<path class="st16" d="M255.83,31.96c-1.64-0.01-3.28-0.01-4.92-0.02c-1.23,0-2.47-0.01-3.7-0.01c-0.32,0.08-0.64,0.15-0.96,0.23
	c0.16-0.94,0.86-1.02,1.61-1.02c5.23,0,10.46,0,15.71,0.28c-1.62,0.18-3.23,0.36-4.85,0.54c-0.68,0-1.37,0-2.05,0
	C256.39,31.96,256.11,31.96,255.83,31.96z"/>
<path class="st16" d="M268.59,54.58c-0.09,0.1-0.19,0.16-0.33,0.18c-0.17-0.93-0.47-1.85-0.48-2.78
	c-0.05-5.88-0.05-11.76-0.01-17.64c0-0.76,0.29-1.52,0.44-2.28l0.16,0.16c0,1.9-0.01,3.81,0.01,5.71
	C268.45,43.48,268.52,49.03,268.59,54.58z"/>
<path class="st4" d="M354.9,55.07c-0.18,0.02-0.36,0.05-0.54,0.07c-0.97-0.25-1.94-0.49-3.14-0.8c0-1.19,0-2.27,0-3.34
	c0.94,0.12,1.88,0.25,2.93,0.39c0.25,1.07,0.52,2.18,0.78,3.29C354.93,54.8,354.92,54.94,354.9,55.07z"/>
<path class="st16" d="M288.3,51.4c-0.14-0.03-0.25-0.1-0.34-0.21c0.08-2.36,0.21-4.72,0-6.99c-1.08-0.17-1.85-0.29-2.64-0.42
	c-0.15-1.06-0.28-2-0.41-2.93c0,0,0.14-0.15,0.14-0.15c0.25,0.18,0.67,0.31,0.72,0.53c0.23,1.06,0.62,1.82,1.82,2.13
	c0.48,0.12,1.11,0.86,1.12,1.34C288.78,46.94,289.36,49.23,288.3,51.4z"/>
<path class="st16" d="M347.4,32.56c-0.01,4.68-0.04,9.35-0.01,14.03c0.01,0.76,0.29,1.52,0.44,2.27c0,0.96,0,1.91,0,2.87
	c-0.14,0.78-0.29,1.57-0.43,2.35c-0.12,0.04-0.24,0.08-0.37,0.11c0-7.22-0.01-14.45-0.01-21.67
	C347.15,32.53,347.27,32.54,347.4,32.56z"/>
<path class="st15" d="M173.36,51.31c0.16,0,0.3-0.05,0.44-0.13c0.87,0.04,1.73,0.08,2.91,0.13c0,1.12,0,2.21,0,3.29
	C173.38,54.64,173.38,54.64,173.36,51.31z"/>
<path class="st16" d="M149.49,32.13c-0.02,6.57-0.03,13.14-0.05,19.71c0,0.79-0.06,1.58-0.09,2.37c-0.17-0.84-0.48-1.67-0.49-2.51
	c-0.05-3.74-0.02-7.49-0.02-11.24c0-2.13-0.05-4.27,0.04-6.4C148.89,33.41,149.27,32.78,149.49,32.13z"/>
<path class="st16" d="M140.18,32.01c-1.26,0-2.51,0-3.77,0c-0.5,0-1,0-1.5,0c-1.74,0-3.48,0-5.22,0c-0.65-0.12-1.3-0.24-1.95-0.36
	c0.6-0.17,1.19-0.48,1.79-0.49c3.43-0.05,6.87-0.05,10.3,0.01c0.58,0.01,1.15,0.38,1.73,0.58C141.1,31.83,140.64,31.92,140.18,32.01
	z"/>
<path class="st16" d="M96.15,49.82c-0.19,1.46-0.37,2.93-0.56,4.39c-0.02-6.41-0.04-12.83-0.07-19.25c0-0.95-0.02-1.9-0.02-2.85
	c0.2,0.89,0.57,1.78,0.59,2.68C96.16,39.8,96.14,44.81,96.15,49.82z"/>
<path class="st4" d="M75.09,54.21c-0.19-0.91-0.55-1.81-0.56-2.72c-0.06-5.83-0.04-11.66-0.05-17.49c0.22-0.64,0.44-1.27,0.66-1.91
	C75.12,39.46,75.11,46.84,75.09,54.21z"/>
<path class="st16" d="M25.31,32.16c-0.02,7.37-0.05,14.73-0.07,22.1c-0.2-0.82-0.57-1.65-0.58-2.47c-0.05-5.74-0.05-11.48,0-17.22
	C24.68,33.76,25.09,32.96,25.31,32.16z"/>
<path class="st6" d="M50.09,50.97c0.84,0.13,1.68,0.26,2.89,0.45c0.14,0.94,0.3,2.04,0.47,3.14c0.01,0.17,0.02,0.34,0.03,0.5
	c0,0-0.04,0.04-0.04,0.04c-0.84-0.24-1.68-0.47-2.76-0.77C50.49,53.29,50.29,52.13,50.09,50.97z"/>
<path class="st16" d="M100.4,32.06c-0.13,0.07-0.27,0.1-0.42,0.11c0.37-0.34,0.75-0.96,1.12-0.96c4.99-0.04,9.99,0.01,14.99,0.06
	c0.21,0,0.41,0.22,0.62,0.34l-0.05,0.05c-1.9,0.11-3.8,0.23-5.7,0.34c-0.96,0-1.91,0.01-2.87,0.01
	C105.53,31.45,102.96,31.4,100.4,32.06z"/>
<path class="st6" d="M124.39,51.18c0.92,0.06,1.84,0.12,2.91,0.18c0.08,1.12,0.16,2.19,0.24,3.25c-0.91-0.05-1.81-0.09-2.93-0.15
	C124.53,53.27,124.46,52.22,124.39,51.18z"/>
<path class="st5" d="M250.02,15.3c2.4,0,4.8,0,7.2,0c-0.98,2.01-1.31,2.14-3.23,1.52c-0.82-0.26-1.71-0.31-2.51-0.59
	C250.94,16.04,250.5,15.62,250.02,15.3z"/>
<path class="st15" d="M218.3,44.09c-0.86-0.08-1.72-0.16-2.7-0.25c0-0.92,0-1.75,0-2.67c0.96-0.05,1.82-0.1,2.68-0.15
	c0.18,0.08,0.35,0.15,0.53,0.23C218.64,42.2,218.47,43.14,218.3,44.09z"/>
<path class="st16" d="M371.74,51.11c0-5.16,0-10.32,0-15.17c-0.78-1.35-2.48,0.03-2.9-1.52c3.46,0.16,3.47,0.16,3.46,3.53
	c-0.01,4.46-0.04,8.92-0.06,13.38C372.08,51.26,371.91,51.19,371.74,51.11z"/>
<path class="st6" d="M391.94,55.12c-0.77,0.15-1.53,0.41-2.3,0.43c-2.31,0.06-4.63,0.07-6.94,0.01c-2.23-0.06-4.43-0.07-6.48,0.98
	c-0.03-0.71-0.06-1.42-0.08-2.12c0.17,0.08,0.33,0.15,0.5,0.23c0.83,0.15,1.67,0.41,2.5,0.42
	C383.41,55.12,387.68,55.11,391.94,55.12z"/>
<path class="st16" d="M401.01,35.07c-0.09,0.86-0.25,1.71-0.26,2.57c-0.06,5.53-0.09,11.06-0.12,16.58
	c-0.18-0.75-0.5-1.49-0.51-2.24c-0.05-4.9-0.03-9.81-0.02-14.71C400.1,36.43,399.89,35.46,401.01,35.07z"/>
<path class="st5" d="M55.82,15.29c2.08,0,4.16,0,6.25-0.01c-0.45,1.35-1.67,1.93-2.77,1.72C58.07,16.78,56.21,17.35,55.82,15.29z"/>
<path class="st15" d="M371.74,51.11c0.17,0.07,0.34,0.15,0.51,0.22c-0.06,0.62-0.13,1.23-0.19,1.85c-1.12,0.46-2.23,0.93-3.34,1.39
	c0.06-1.06,0.12-2.13,0.19-3.31C369.92,51.21,370.83,51.16,371.74,51.11z"/>
<path class="st1" d="M215.04,54.66c0,0.14-0.01,0.28-0.01,0.42c-5.5-0.01-11.01-0.03-16.51-0.04c-0.08-0.1-0.13-0.22-0.14-0.35
	c0.14,0.01,0.27-0.03,0.38-0.12C204.19,54.6,209.61,54.63,215.04,54.66z"/>
<path class="st16" d="M124.49,35.56c-0.05,5.09-0.1,10.18-0.15,15.27c-0.15-0.68-0.43-1.35-0.43-2.03c-0.04-3.94-0.04-7.89,0-11.83
	c0.01-0.67,0.32-1.34,0.49-2.01c0,0,0.1,0.1,0.1,0.1C124.49,35.23,124.49,35.39,124.49,35.56z"/>
<path class="st16" d="M50.25,35.48c-0.03,5.15-0.06,10.3-0.08,15.45c-0.19-0.75-0.54-1.5-0.55-2.25c-0.06-3.67-0.06-7.35,0-11.02
	C49.63,36.92,50.03,36.2,50.25,35.48z"/>
<path class="st16" d="M218.81,41.25c-0.18-0.08-0.35-0.15-0.53-0.23c0-1.83,0-3.65,0-5.6c-0.9-0.17-1.74-0.32-2.73-0.51
	c-0.06-0.93-0.11-1.87-0.17-2.8c0.31,0.62,0.61,1.23,0.96,1.94c2.54,1.03,3.36,2.6,2.78,5.57
	C219.02,40.17,218.91,40.71,218.81,41.25z"/>
<path class="st16" d="M120.04,42.33c0-2.23,0-4.46,0-6.9c-1.03-0.17-1.94-0.32-2.86-0.46c-0.01-0.94-0.03-1.89-0.04-2.83l0.05-0.06
	c0.25,0.66,0.5,1.31,0.75,1.98c2.61,0.98,2.67,0.98,2.6,3.87C120.51,39.4,120.22,40.86,120.04,42.33z"/>
<path class="st6" d="M316.14,41.68c2.04,0,4.08-0.01,6.12-0.01c-0.11,0.2-0.22,0.56-0.34,0.56c-1.79,0.03-3.58,0.02-5.36-0.02
	C316.41,42.22,316.28,41.87,316.14,41.68z"/>
<path class="st16" d="M346.86,32.12c-2.03,0.04-4.07,0.07-6.1,0.11c0.03-0.15,0.01-0.35,0.11-0.44c1.23-1.21,2.76-0.47,4.16-0.62
	C345.78,31.07,346.61,31.09,346.86,32.12z"/>
<path class="st16" d="M268.22,32.06c0.19-0.24,0.37-0.69,0.57-0.69c1.71-0.06,3.43-0.06,5.15,0c0.21,0.01,0.4,0.44,0.6,0.67
	c0,0-0.07,0.07-0.07,0.07c-2.03,0.04-4.06,0.07-6.09,0.11L268.22,32.06z"/>
<path class="st5" d="M74.52,15.29c1.6,0,3.2,0,4.81,0c-0.73,1.52-2.26,1.1-3.47,1.34C75.06,16.79,74.64,16.06,74.52,15.29z"/>
<path class="st13" d="M63.02,58.08c1.59-0.06,3.17-0.12,4.76-0.17c-0.25,0.37-0.47,1.04-0.75,1.06
	C65.62,59.11,64.11,59.47,63.02,58.08z"/>
<path class="st13" d="M53.32,32.15c0,0.93,0,1.86,0,2.86c-1.17,0.21-2.16,0.39-3.14,0.57c0.03-0.15,0.01-0.41,0.09-0.44
	C51.72,34.59,52.45,33.3,53.32,32.15z"/>
<path class="st16" d="M176.68,32.11c-0.06,0.92-0.13,1.84-0.21,3.08c-0.91,0-1.74,0-2.57,0C175.4,34.68,175.48,32.89,176.68,32.11z"
	/>
<path class="st16" d="M127.72,32.1c-0.15,0.98-0.3,1.95-0.45,2.93c-0.93,0.01-1.85,0.02-2.78,0.03c0,0-0.1-0.1-0.1-0.1
	c0.66-0.25,1.31-0.51,1.96-0.76c0.38-0.83,0.76-1.66,1.13-2.49C127.56,31.84,127.64,31.97,127.72,32.1z"/>
<path class="st6" d="M376.28,57.5c1.05,0.14,2.1,0.27,3.15,0.41C378.31,58.35,377.19,58.7,376.28,57.5z"/>
<path class="st1" d="M258.59,55.04c-2.06,0-4.13,0-6.19-0.01c0.03-0.17,0.06-0.35,0.1-0.52c2.01,0,4.03,0,6.04-0.01
	C258.55,54.69,258.57,54.87,258.59,55.04z"/>
<path class="st1" d="M242.31,54.63c-1.93,0.14-3.85,0.28-5.78,0.42c0.03-0.17,0.05-0.34,0.08-0.51
	C238.51,54.57,240.41,54.6,242.31,54.63z"/>
<path class="st4" d="M366.56,57.99c0.79-0.16,1.58-0.31,2.37-0.47C368.3,58.51,367.51,58.62,366.56,57.99z"/>
<path class="st5" d="M89.86,15.29c0.64,0,1.29,0,1.93,0C90.92,16.54,90.73,16.54,89.86,15.29z"/>
<path class="st9" d="M127.72,32.1c-0.08-0.13-0.16-0.26-0.24-0.39c0.09-0.02,0.18-0.04,0.26-0.06c0.65,0.12,1.3,0.24,1.95,0.36
	C129.03,32.04,128.38,32.07,127.72,32.1z"/>
<path class="st13" d="M347.4,54.09c0.14-0.78,0.29-1.57,0.43-2.35C347.69,52.52,347.54,53.31,347.4,54.09z"/>
<path class="st5" d="M96.58,15.2c0.16,0.03,0.32,0.06,0.48,0.09c-0.16,0.22-0.33,0.43-0.49,0.65c-0.16-0.22-0.33-0.43-0.49-0.65
	c0,0,0.01-0.09,0.01-0.09C96.26,15.19,96.42,15.2,96.58,15.2z"/>
<path class="st10" d="M99.47,15.2c0.63,0,1.27,0,1.9,0C100.73,15.2,100.1,15.2,99.47,15.2z"/>
<path class="st10" d="M64.94,15.2c0.63,0,1.26,0,1.9,0C66.21,15.2,65.58,15.2,64.94,15.2z"/>
<path class="st16" d="M169.47,54.1c0-0.62,0.01-1.24,0.01-1.86C170.03,52.87,170.04,53.49,169.47,54.1z"/>
<path class="st10" d="M244.75,15.21c0.48,0,0.95,0,1.43,0C245.7,15.21,245.22,15.21,244.75,15.21z"/>
<path class="st9" d="M140.18,32.01c0.46-0.09,0.92-0.18,1.38-0.27c0.03,0.16,0.02,0.32-0.02,0.47
	C141.09,32.15,140.63,32.08,140.18,32.01z"/>
<path class="st6" d="M128.17,54.71c-0.17,0.13-0.34,0.26-0.52,0.4c-0.05-0.18-0.1-0.35-0.15-0.53
	C127.73,54.63,127.95,54.67,128.17,54.71z"/>
<path class="st4" d="M354.54,57.55c0.15,0.13,0.31,0.26,0.46,0.39C354.85,57.81,354.69,57.68,354.54,57.55z"/>
<path class="st16" d="M400.49,57.05c0.05,0.13,0.05,0.27,0.02,0.4c-0.04-0.09-0.09-0.18-0.11-0.27
	C400.39,57.15,400.45,57.1,400.49,57.05z"/>
<path class="st16" d="M116.71,31.61c0.16,0.16,0.32,0.31,0.49,0.47c0,0-0.05,0.06-0.05,0.05c-0.16-0.03-0.31-0.03-0.47-0.01
	c0,0,0.01-0.02,0.01-0.02c0.01-0.15,0-0.3-0.03-0.45L116.71,31.61z"/>
<path class="st10" d="M206.86,15.2c-0.32,0-0.64,0-0.96,0C206.23,15.2,206.54,15.2,206.86,15.2z"/>
<path class="st10" d="M198.23,15.19c-0.32,0-0.63,0-0.95,0.01C197.6,15.19,197.91,15.19,198.23,15.19z"/>
<path class="st10" d="M96.58,15.2c-0.16,0-0.32,0-0.49,0C96.26,15.19,96.42,15.19,96.58,15.2z"/>
<path class="st15" d="M204.92,48c0-1.1,0-2.2,0-3.47c2.32,0,4.58,0,7.08,0c0,1.12,0,2.28,0,3.44
	C209.64,47.98,207.28,47.99,204.92,48z"/>
<path class="st13" d="M204.92,48c2.36-0.01,4.72-0.02,7.08-0.03c0,0.94,0,1.88,0,3.01c-2.31,0-4.57,0-7.08,0
	C204.92,49.98,204.92,48.99,204.92,48z"/>
<path class="st15" d="M211.96,35.81c0.01,0.7,0.02,1.4,0.03,2.1c-0.28,0.32-0.56,0.64-0.85,0.96c-1.9-0.01-3.79-0.02-5.69-0.03
	c-0.16-0.01-0.33-0.02-0.49-0.04c-0.06-1.01-0.13-2.02-0.2-3.19c2.42,0,4.73,0,7.03,0c0,0,0.01,0.16,0.01,0.16L211.96,35.81z"/>
<path class="st4" d="M204.96,38.79c0.16,0.01,0.33,0.02,0.49,0.04c0.08,1.94,1.59,1.42,2.6,1.35c1.11-0.08,2.83,0.89,3.09-1.31
	c0.28-0.32,0.56-0.64,0.85-0.96c0,0.86,0,1.72,0,2.76c-2.35,0-4.62,0-7.03,0C204.96,40.01,204.96,39.4,204.96,38.79z"/>
<path class="st10" d="M198.48,32.56c0.09-0.16,0.17-0.31,0.26-0.47C198.65,32.25,198.56,32.4,198.48,32.56z"/>
<polygon class="st4" points="211.96,35.81 211.81,35.76 211.79,35.6 211.98,35.62 "/>
<path class="st13" d="M389.88,47.55c0,1.09,0,2.18,0,3.43c-2.5,0-4.89,0-7.41,0c0-1.23,0-2.32,0-3.41
	C384.94,47.56,387.41,47.56,389.88,47.55z"/>
<path class="st15" d="M382.48,37.9c0.01-0.7,0.02-1.4,0.03-2.1c0,0,0.15-0.06,0.15-0.06l0.02-0.17c2.33,0.03,4.66,0.06,6.99,0.1
	c0.06,0.38,0.13,0.76,0.19,1.14c0,0.52,0,1.03,0.01,1.55c-2.09,0.12-4.18,0.28-6.27,0.31C383.23,38.68,382.86,38.17,382.48,37.9z"/>
<path class="st15" d="M389.88,47.55c-2.47,0.01-4.94,0.01-7.41,0.02c0-0.97,0-1.94,0-2.91c2.47,0,4.95,0,7.42,0.01
	C389.89,45.63,389.88,46.59,389.88,47.55z"/>
<path class="st4" d="M382.48,37.9c0.37,0.27,0.75,0.78,1.11,0.78c2.09-0.04,4.18-0.19,6.27-0.31c0.04,0.7,0.08,1.41,0.13,2.38
	c-2.5,0.25-4.9,0.1-7.52,0.07C382.48,39.73,382.48,38.81,382.48,37.9z"/>
<path class="st1" d="M391.94,55.12c-4.27-0.01-8.53,0-12.8-0.06c-0.84-0.01-1.67-0.28-2.5-0.42c5.41-0.01,10.82-0.01,16.23-0.02
	c0.01,0.14,0.01,0.28-0.01,0.42C392.55,55.08,392.25,55.1,391.94,55.12z"/>
<path class="st15" d="M393.33,41.66c0.69-0.06,1.39-0.12,2.46-0.22c-0.18,0.96-0.33,1.75-0.47,2.54c-0.64-0.04-1.28-0.08-1.92-0.12
	c-0.02-0.18-0.05-0.36-0.07-0.54C393.33,42.77,393.33,42.22,393.33,41.66z"/>
<path class="st17" d="M389.89,44.67c-2.47,0-4.95,0-7.42-0.01c0.32-0.18,0.63-0.51,0.95-0.52c1.83-0.04,3.66-0.04,5.5,0.02
	C389.24,44.17,389.56,44.49,389.89,44.67z"/>
<path class="st4" d="M389.86,36.81c-0.06-0.38-0.13-0.76-0.19-1.14C389.74,36.05,389.8,36.43,389.86,36.81z"/>
<path class="st6" d="M393.33,43.32c0.02,0.18,0.05,0.36,0.07,0.54c-0.06-0.12-0.13-0.24-0.16-0.36
	C393.22,43.45,393.29,43.38,393.33,43.32z"/>
<polygon class="st4" points="382.69,35.57 382.67,35.74 382.51,35.8 382.49,35.61 "/>
<path class="st6" d="M407.03,38.76c-0.01-1-0.03-2-0.04-3c0,0,0.12-0.02,0.12-0.02l-0.04-0.13c2.39-0.01,4.78-0.01,7.17-0.02
	c0,0-0.03,0.12-0.03,0.12s0.13,0.01,0.13,0.01c0.02,0.89,0.03,1.78,0.05,2.67c-0.29,0.18-0.57,0.35-0.86,0.53
	c-1.92-0.01-3.84-0.02-5.76-0.02C407.53,38.85,407.28,38.81,407.03,38.76z"/>
<path class="st16" d="M407.03,38.76c0.25,0.05,0.5,0.09,0.75,0.14c0.07,0.84,0.14,1.67,0.22,2.76c1.35,0,2.45,0.02,3.54,0
	c2.35-0.06,2.54-0.32,1.99-2.74c0.29-0.18,0.57-0.35,0.86-0.53c0,1.17,0,2.34,0,3.79c-2.45,0.17-4.84,0.11-7.36,0.01
	C407.03,40.92,407.03,39.84,407.03,38.76z"/>
<polygon class="st16" points="414.34,35.73 414.22,35.71 414.25,35.59 414.38,35.6 "/>
<polygon class="st16" points="407.07,35.61 407.12,35.74 406.99,35.76 406.93,35.63 "/>
<path class="st16" d="M236.37,38.78c0.05,1.02,0.11,2.05,0.18,3.37c-2.55,0.28-4.97,0.12-7.56,0.04c0-1.19,0-2.27,0-3.35
	C231.45,38.82,233.91,38.8,236.37,38.78z"/>
<path class="st15" d="M236.37,38.78c-2.46,0.02-4.92,0.04-7.38,0.06c0-1.02,0-2.04,0-3.18c2.47,0,4.89,0,7.3,0
	c0,0-0.06,0.1-0.06,0.1s0.11,0,0.11,0C236.35,36.77,236.36,37.78,236.37,38.78z"/>
<polygon class="st16" points="236.34,35.77 236.23,35.77 236.29,35.67 236.41,35.67 "/>
<path class="st13" d="M138.24,38.94c0,3.97,0,7.93,0,12.02c-2.53,0-4.95,0-7.5,0c0-4.12,0-8.08,0-12.05
	C133.24,38.92,135.74,38.93,138.24,38.94z"/>
<path class="st15" d="M138.24,38.94c-2.5-0.01-5-0.02-7.5-0.03c0-1.02,0-2.05,0-3.4c2.44-0.11,4.91-0.11,7.5,0.06
	C138.24,36.78,138.24,37.86,138.24,38.94z"/>
<path class="st11" d="M124.49,35.06c0.93-0.01,1.85-0.02,2.78-0.03c-0.93,0.18-1.86,0.36-2.78,0.53
	C124.49,35.39,124.49,35.23,124.49,35.06z"/>
<path class="st9" d="M134.91,32.01c0.5,0,1,0,1.5,0C135.91,32.01,135.41,32.01,134.91,32.01z"/>
<path class="st13" d="M365.35,38.87c0,3.97,0,7.94,0,12.16c-2.47,0.21-4.89,0.05-7.59,0.05c0.06-4.17-0.39-8.12,0.12-12.08
	C360.36,38.96,362.86,38.92,365.35,38.87z"/>
<path class="st15" d="M365.35,38.87c-2.49,0.04-4.98,0.09-7.48,0.13c-0.02-1.08-0.03-2.16-0.05-3.24c0,0,0-0.02,0-0.02
	c2.5-0.02,5-0.04,7.49-0.06c0,0,0.01,0.05,0.01,0.05C365.33,36.78,365.34,37.82,365.35,38.87z"/>
<path class="st1" d="M354.9,55.07c0.02-0.13,0.04-0.26,0.03-0.39c4.52-0.02,9.03-0.03,13.55-0.05c-0.75,0.16-1.5,0.44-2.25,0.45
	C362.45,55.11,358.68,55.07,354.9,55.07z"/>
<polygon class="st13" points="357.82,35.74 357.82,35.76 357.72,35.74 "/>
<path class="st13" d="M365.33,35.73c0,0-0.01-0.05-0.01-0.05C365.32,35.68,365.33,35.73,365.33,35.73z"/>
<path class="st13" d="M64.23,38.88c0,3.97,0,7.95,0,11.9c-1.78,0.47-5.08,0.47-7.45-0.02c0-3.94,0-7.91,0-11.88
	C59.26,38.89,61.75,38.89,64.23,38.88z"/>
<path class="st15" d="M64.23,38.88c-2.48,0-4.97,0-7.45,0.01c0-1.03,0-2.05,0-3.38c2.5-0.02,4.98-0.25,7.47,0.14
	c0,0,0.02,0.04,0.02,0.04C64.26,36.76,64.24,37.82,64.23,38.88z"/>
<path class="st15" d="M53.48,55.07c-0.01-0.17-0.02-0.34-0.03-0.5c4.59,0,9.18,0,13.91,0c0.09-1.1,0.17-2.09,0.27-3.19
	c1.07-0.11,2.07-0.22,3.07-0.32c0,1.07,0,2.13,0,2.9c-1.24,0.66-2.15,1.14-3.05,1.62c-3.56,0-7.11,0.04-10.67-0.02
	C55.8,55.53,54.64,55.24,53.48,55.07z"/>
<path class="st13" d="M64.27,35.7c0,0-0.02-0.04-0.02-0.04C64.25,35.65,64.27,35.7,64.27,35.7z"/>
<path class="st15" d="M180.05,38.82c0-1.03,0-2.06,0-3.23c2.47,0,4.91,0,7.58,0c0,1.1,0,2.18,0,3.26c-0.31,0.04-0.61,0.08-0.92,0.12
	c-1.92-0.01-3.83-0.02-5.75-0.04C180.67,38.89,180.36,38.85,180.05,38.82z"/>
<path class="st16" d="M186.72,38.97c0.31-0.04,0.61-0.08,0.92-0.12c0,3.98,0,7.96,0,12.12c-2.49,0-4.92,0-7.58,0
	c0-4.08,0-8.12,0-12.15c0.31,0.04,0.61,0.08,0.92,0.11c-0.15,2.28-0.41,4.56-0.44,6.84c-0.06,4.52,0.39,4.89,4.9,4.54
	c0.08-0.01,0.16-0.01,0.24-0.01c0.95,0,1.5-0.43,1.5-1.42c0-0.63,0.02-1.27-0.01-1.9C187.02,44.3,186.86,41.63,186.72,38.97z"/>
<path class="st15" d="M155.63,47.89c0-1.09,0-2.19,0-3.42c2.37,0,4.69,0,7.13,0c0,1.25,0,2.34,0,3.43c-0.48-0.1-0.95-0.19-1.43-0.29
	c-1.63,0.07-3.25,0.14-4.88,0.22C156.18,47.85,155.9,47.87,155.63,47.89z"/>
<path class="st16" d="M161.32,47.61c0.48,0.1,0.95,0.19,1.43,0.29c0,1.01,0,2.02,0,3.13c-2.41,0-4.68,0-7.13,0c0-1.14,0-2.14,0-3.15
	c0.27-0.02,0.55-0.04,0.82-0.06c0.1,0.75,0.2,1.5,0.32,2.47c1.38,0,2.54,0.02,3.71-0.01c1.01-0.02,1.42-0.56,1.19-1.55
	C161.57,48.36,161.44,47.99,161.32,47.61z"/>
<path class="st15" d="M106.26,38.93c0-1.08,0-2.17,0-3.36c2.43,0,4.69,0,7.11,0c0,1.15,0,2.23,0,3.31
	C111,38.9,108.63,38.92,106.26,38.93z"/>
<path class="st13" d="M106.26,38.93c2.37-0.02,4.74-0.03,7.11-0.05c0.05,1.02,0.09,2.04,0.14,3.23c-2.42,0-4.69,0-7.25,0
	C106.26,41.07,106.26,40,106.26,38.93z"/>
<path class="st10" d="M100.4,32.06c2.56-0.66,5.12-0.61,7.69-0.05C105.53,32.03,102.97,32.05,100.4,32.06z"/>
<path class="st10" d="M116.66,31.66c0.03,0.15,0.03,0.3,0.03,0.45c-1.91-0.04-3.82-0.07-5.73-0.11
	C112.86,31.89,114.76,31.78,116.66,31.66z"/>
<path class="st9" d="M116.67,32.13c0.16-0.02,0.31-0.02,0.47,0.01c0.01,0.94,0.03,1.89,0.04,2.83
	C117.01,34.02,116.84,33.07,116.67,32.13z"/>
<path class="st1" d="M319.01,54.63c0.02,0.13,0.02,0.27,0,0.4c-4.46,0.02-8.92,0.04-13.38,0.06c-0.01-0.14-0.03-0.28-0.04-0.42
	C310.06,54.66,314.54,54.65,319.01,54.63z"/>
<path class="st8" d="M247.2,31.94c1.23,0,2.47,0.01,3.7,0.01C249.67,31.94,248.44,31.94,247.2,31.94z"/>
<path class="st8" d="M255.83,31.96c0.28,0,0.56,0,0.84,0C256.39,31.96,256.11,31.96,255.83,31.96z"/>
<path class="st12" d="M268.37,32.21c2.03-0.04,4.06-0.07,6.09-0.11c0.08,2.85,0.16,5.7,0.25,8.76c3.52,0,6.86,0,10.19,0
	c0.13,0.94,0.26,1.87,0.41,2.93c0.79,0.12,1.56,0.24,2.64,0.42c0.22,2.27,0.09,4.63,0,6.99c-0.84,0.04-1.69,0.08-2.65,0.13
	c-0.12,1.14-0.23,2.2-0.34,3.27c-5.41,0.02-10.81,0.04-16.22,0.06c0,0-0.14-0.07-0.14-0.07c-0.07-5.55-0.15-11.1-0.21-16.66
	C268.37,36.02,268.38,34.12,268.37,32.21z M281.62,47.95c0-1.16,0-2.31,0-3.56c-2.46-0.06-4.72-0.19-7,0.02c0,1.4,0,2.51,0,3.61
	c0,0.99,0,1.98,0,3.05c2.5,0.1,4.75,0.21,7.16-0.06C281.72,49.82,281.67,48.88,281.62,47.95z"/>
<path class="st1" d="M268.74,54.65c5.41-0.02,10.81-0.04,16.22-0.06c-0.51,0.17-1.02,0.47-1.54,0.48
	c-4.37,0.04-8.75,0.04-13.12,0.01C269.78,55.07,269.26,54.8,268.74,54.65z"/>
<path class="st13" d="M211.14,38.86c-0.25,2.2-1.98,1.24-3.09,1.31c-1.01,0.07-2.52,0.59-2.6-1.35
	C207.35,38.84,209.24,38.85,211.14,38.86z"/>
<path class="st8" d="M413.53,38.92c0.54,2.42,0.36,2.68-1.99,2.74c-1.1,0.03-2.2,0-3.54,0c-0.09-1.09-0.16-1.93-0.22-2.76
	C409.7,38.91,411.61,38.92,413.53,38.92z"/>
<path class="st8" d="M186.72,38.97c0.15,2.67,0.3,5.34,0.43,8.01c0.03,0.63,0.02,1.27,0.01,1.9c0,0.99-0.55,1.42-1.5,1.42
	c-0.08,0-0.16,0-0.24,0.01c-4.51,0.35-4.96-0.02-4.9-4.54c0.03-2.28,0.29-4.56,0.44-6.84C182.89,38.94,184.8,38.95,186.72,38.97z"/>
<path class="st8" d="M161.32,47.61c0.12,0.38,0.25,0.75,0.34,1.13c0.23,0.99-0.18,1.53-1.19,1.55c-1.16,0.03-2.33,0.01-3.71,0.01
	c-0.13-0.97-0.23-1.72-0.32-2.47C158.07,47.75,159.7,47.68,161.32,47.61z"/>
<path class="st6" d="M274.62,48.02c0-1.11,0-2.21,0-3.61c2.28-0.22,4.53-0.08,7-0.02c0,1.25,0,2.41,0,3.56
	C279.29,47.97,276.95,48,274.62,48.02z"/>
<path class="st13" d="M274.62,48.02c2.33-0.02,4.67-0.05,7-0.07c0.05,0.94,0.1,1.87,0.16,3.07c-2.41,0.27-4.66,0.16-7.16,0.06
	C274.62,50,274.62,49.01,274.62,48.02z"/>
<rect x="0.34" y="15.1" class="st0" width="7.08" height="57.18"/>
<rect x="14.63" class="st0" width="417.22" height="7.98"/>
</svg>
