<svg version="1.1" id="start-btn" xmlns="http://www.w3.org/2000/svg" xmlns:xlink="http://www.w3.org/1999/xlink" x="0px" y="0px"
     viewBox="0 0 258.51 93.47" style="enable-background:new 0 0 258.51 93.47;" xml:space="preserve">
<style type="text/css">
    .st0{fill:#0B3358;}
    .st1{fill:#083255;}
    .st2{fill:#0A3459;}
    .st3{fill:#3F484A;}
    .st4{fill:#656E70;}
    .st5{fill:#60AFDA;}
    .st6{fill:#A4DDF2;}
    .st7{fill:#217ED6;}
    .st8{fill:#1F5F98;}
    .st9{fill:#227ED6;}
    .st10{fill:#1E7ED7;}
    .st11{fill:#F6F9F9;}
    .st12{fill:#F3F8F8;}
    .st13{fill:#F1F6F6;}
    .st14{fill:#3A83C9;}
    .st15{fill:#0B3868;}
    .st16{fill:#555E60;}
    .st17{fill:#777D80;}
</style>
<g>
    <path class="st0" d="M14.38,5.25c0-1.59,0-3.18,0-4.57c0.3-0.27,0.35-0.32,0.41-0.37c0.06-0.05,0.12-0.13,0.18-0.14
        C15.53,0.1,16.08,0,16.64,0c75.64,0.01,151.28,0.03,226.92,0.06c0.22,0,0.44,0.14,1.01,0.33c0,2.19,0,4.48,0,6.76
        c0,0-0.01,0.02-0.01,0.02c-2.41,0.02-4.81,0.04-7.22,0.07c-0.56-0.02-1.12-0.07-1.67-0.07c-47.5,0-94.99,0-142.49,0.01
        c-9.5,0-19,0.04-28.49,0.06c-7.14,0.01-14.29,0.01-21.44,0.02c-2.45,0-4.89-0.01-7.34-0.01c-7.17-0.02-14.34-0.04-21.5-0.06l0,0
        C14.39,6.53,14.39,5.89,14.38,5.25z"/>
    <path class="st1" d="M259.08,23.47c-0.04,1.2-0.1,2.39-0.1,3.59c0,14.06,0,28.12,0,42.19c0,0.88-0.05,1.76-0.07,2.63
        c-2.39,0.01-4.78,0.02-7.18,0.02c0.02-9.79,0.05-19.58,0.04-29.38c0-7-0.05-14.01-0.08-21.01c0.02-2.38,0.04-4.77,0.06-7.15l0.01,0
        c2.29,0,4.58,0,7.11,0C258.94,17.62,259.01,20.55,259.08,23.47z"/>
    <path class="st2" d="M1.44,14.4c1.77-0.03,3.53-0.07,5.3-0.1c0.16,0.02,0.32,0.05,0.47,0.07l-0.02-0.01
        c0.04,0.16,0.08,0.31,0.13,0.47c0.02,2.23,0.04,4.47,0.07,6.7c-0.04,0.95-0.12,1.9-0.12,2.86c-0.01,9.63-0.01,19.26,0.01,28.9
        c0.01,3.82,0.07,7.64,0.1,11.46c-0.02,2.35-0.04,4.69-0.07,7.04c-2.38,0.01-4.76,0.02-7.15,0.03c-0.05-0.45-0.1-0.9-0.15-1.35
        c0-3.68,0-7.35-0.01-11.03c0-1.28,0-2.56,0-3.84c0.02-1.68,0.06-3.35,0.06-5.03c0.02-11.9,0.03-23.79,0.05-35.69
        C0.55,14.72,0.99,14.56,1.44,14.4z"/>
    <path class="st0" d="M7.15,13.89c0-1.6,0-3.21-0.01-4.81C7.26,8.5,7.37,7.92,7.52,7.17c2.38,0,4.63,0,6.87,0c0,0,0,0,0,0
        c0,2.4,0.01,4.8,0.01,7.2c-2.23,0.02-4.47,0.05-6.7,0.07c-0.17-0.03-0.34-0.06-0.51-0.09c0,0,0.02,0.01,0.02,0.01
        C7.19,14.21,7.17,14.05,7.15,13.89z"/>
    <path class="st2" d="M244.57,7.15c2.27,0,4.53,0,7.15,0c0.01,2.56,0.02,4.88,0.04,7.21c0,0-0.01,0-0.01,0
        c-2.37-0.03-4.74-0.06-7.11-0.09c-0.03-2.37-0.05-4.73-0.08-7.1L244.57,7.15z"/>
    <path class="st3" d="M0.11,14.88c-0.02-0.17-0.04-0.33-0.06-0.5c0.46,0.01,0.93,0.02,1.39,0.02C0.99,14.56,0.55,14.72,0.11,14.88z"
        />
    <path class="st4" d="M7.15,13.89c0.02,0.16,0.04,0.32,0.06,0.47c-0.16-0.02-0.32-0.05-0.47-0.07C6.87,14.16,7.01,14.03,7.15,13.89z
        "/>
    <path class="st3" d="M244.62,86.35c-0.02,2.37-0.05,4.75-0.07,7.12c0,0,0.01,0,0.01,0c-55.44,0-110.89,0.01-166.33,0.01
        c-20.29,0-40.58,0-60.88-0.01c-0.92,0-1.83-0.13-2.97-0.22c0-2.5,0-4.73,0-6.95c61.37,0,122.74,0.01,184.12,0.01
        c15.34,0,30.69-0.03,46.03-0.04L244.62,86.35z"/>
    <path class="st3" d="M251.86,79.22c-0.07,2.21-0.13,4.43-0.21,6.93c-2.47,0.07-4.75,0.13-7.03,0.2c0,0-0.1-0.1-0.09-0.1
        c0.02-2.39,0.03-4.77,0.05-7.16l-0.02,0.02c2.4-0.01,4.8-0.01,7.19-0.02L251.86,79.22z"/>
    <path class="st3" d="M251.73,71.9c2.39-0.01,4.78-0.02,7.18-0.02c0,2.27,0,4.55,0,7.09c-2.53,0.09-4.79,0.17-7.05,0.25
        c0,0-0.11-0.13-0.11-0.13c0-2.4,0-4.81,0-7.21C251.75,71.88,251.73,71.9,251.73,71.9z"/>
    <path class="st5" d="M64.68,7.23c9.5-0.02,19-0.05,28.49-0.06c47.5-0.01,94.99-0.01,142.49-0.01c0.56,0,1.12,0.04,1.67,0.07
        c0.01,2.38,0.02,4.76,0.04,7.14c-33.76,0-67.53,0.01-101.29,0c-23.79,0-47.57-0.02-71.36-0.03C64.71,11.97,64.7,9.6,64.68,7.23z"/>
    <path class="st6" d="M64.68,7.23c0.01,2.37,0.03,4.74,0.04,7.11c-7.17-0.02-14.34-0.03-21.5-0.05c0.01-2.35,0.02-4.69,0.03-7.04
        C50.39,7.24,57.54,7.24,64.68,7.23z"/>
    <path class="st6" d="M14.41,14.37c0-2.4-0.01-4.8-0.01-7.2c7.17,0.02,14.34,0.04,21.51,0.06c0.02,2.37,0.03,4.74,0.05,7.11
        c-4.62,0.03-9.24,0.06-13.85,0.09C19.54,14.41,16.97,14.39,14.41,14.37L14.41,14.37z"/>
    <path class="st5" d="M35.96,14.34c-0.02-2.37-0.03-4.74-0.05-7.11c2.45,0,4.89,0.01,7.34,0.01c-0.01,2.35-0.02,4.69-0.02,7.04
        C40.8,14.31,38.38,14.33,35.96,14.34z"/>
    <path class="st7" d="M237.37,14.37c-0.01-2.38-0.02-4.76-0.04-7.14c2.41-0.02,4.81-0.04,7.22-0.07c0.03,2.37,0.05,4.73,0.08,7.1
        c0,0-0.16,0.17-0.16,0.17c-2.38-0.03-4.75-0.06-7.13-0.09C237.35,14.35,237.37,14.37,237.37,14.37z"/>
    <path class="st8" d="M251.69,21.51c0.03,7,0.08,14.01,0.08,21.01c0,9.79-0.03,19.58-0.04,29.38c0,0,0.02-0.02,0.02-0.02
        c-2.28,0.01-4.57,0.01-7.2,0.02c0,2.63,0,4.92,0,7.2c0,0,0.02-0.02,0.02-0.02c-50.3,0-100.59,0-150.89,0
        c-26.43,0-52.85-0.01-79.28-0.01c-0.01-2.4-0.01-4.81-0.02-7.21c0.01-2.38,0.02-4.75,0.03-7.13c0,0,0.01-0.01,0.01-0.01
        c2.07-0.02,4.13-0.04,6.2-0.06c0.36,0.33,0.72,0.67,1.07,1c0,1.97,0,3.93,0,5.82c2.61,0.61,213.55,0.53,215.55-0.06
        c0.09-2.11,0.18-4.29,0.26-6.41c2.44-0.72,4.75,0.2,7.03-0.77c0-1.95,0-3.86,0-5.77c0-0.32,0-0.64,0-0.96c0-1.28,0-2.56,0-3.83
        c0-0.48,0-0.96,0-1.44c0-0.48,0-0.96,0-1.44c0-0.96-0.01-1.92-0.01-2.88c0-0.32,0-0.64,0-0.96c0.03-8.45,0.05-16.9,0.08-25.35
        C246.98,21.58,249.33,21.55,251.69,21.51z"/>
    <path class="st7" d="M251.69,21.51c-2.36,0.04-4.72,0.07-7.07,0.11c0,0-0.07-0.07-0.07-0.07c-0.02-2.37-0.04-4.74-0.07-7.11
        c0,0,0.16-0.17,0.16-0.17c2.37,0.03,4.74,0.06,7.11,0.09C251.73,16.74,251.71,19.13,251.69,21.51z"/>
    <path class="st5" d="M7.37,64.73c-0.04-3.82-0.09-7.64-0.1-11.46c-0.02-9.63-0.01-19.26-0.01-28.9c0-0.95,0.08-1.9,0.12-2.86
        c2.32,0,4.65-0.01,6.97-0.01c0,0,0.17,0.17,0.17,0.17c-0.02,0.27-0.04,0.54-0.06,0.81c0,4.8,0.01,9.6,0.01,14.4
        c0,3.84,0,7.67,0,11.51c0,2.72,0,5.44,0,8.15c0,0.32,0,0.64,0,0.95c0.01,1.92,0.01,3.83,0.02,5.75c-0.03,0.49-0.06,0.98-0.09,1.47
        c0,0-0.01,0.01-0.01,0.01C12.07,64.73,9.72,64.73,7.37,64.73z"/>
    <path class="st3" d="M0.02,78.13c0.05-2.11,0.09-4.21,0.14-6.32c2.38-0.01,4.77-0.02,7.15-0.03c0,0-0.05,0.03-0.05,0.03
        c-0.03,2.43-0.05,4.87-0.08,7.3c-1.75,0-3.5,0-5.25,0C1.13,79.1,0.28,79.18,0.02,78.13z"/>
    <path class="st9" d="M7.37,64.73c2.35,0,4.69,0,7.04,0c-0.01,2.38-0.02,4.75-0.03,7.13c-2.38-0.02-4.75-0.04-7.13-0.06
        c0,0,0.05-0.03,0.05-0.03C7.33,69.43,7.35,67.08,7.37,64.73z"/>
    <path class="st6" d="M14.36,21.51c-2.32,0-4.65,0.01-6.97,0.01c-0.02-2.23-0.04-4.47-0.07-6.7c0.13-0.13,0.26-0.25,0.39-0.38
        c2.23-0.02,4.47-0.05,6.7-0.07c0,0,0,0,0,0C14.39,16.75,14.37,19.13,14.36,21.51z"/>
    <path class="st5" d="M7.7,14.44c-0.13,0.13-0.26,0.25-0.39,0.38c-0.04-0.16-0.08-0.31-0.13-0.47C7.36,14.38,7.53,14.41,7.7,14.44z"
        />
    <path class="st1" d="M14.4,79.08c26.43,0,52.85,0.01,79.28,0.01c50.3,0,100.59,0,150.89,0c-0.02,2.39-0.03,4.77-0.05,7.16
        c-15.34,0.02-30.69,0.04-46.03,0.04c-61.37,0-122.74,0-184.12-0.01c0,0,0.01,0.01,0.01,0.01c0-2.4-0.01-4.79-0.01-7.19L14.4,79.08z
        "/>
    <path class="st1" d="M244.55,79.11c0-2.29,0-4.58,0-7.2c2.63-0.01,4.91-0.01,7.2-0.02c0,2.4,0,4.81,0,7.21
        C249.35,79.09,246.95,79.1,244.55,79.11z"/>
    <path class="st10" d="M14.48,36.89c0-4.8-0.01-9.6-0.01-14.4c0.6-0.28,1.2-0.57,1.8-0.85c1.62,0,3.24-0.01,4.86-0.01
        c0.15-0.03,0.3-0.06,0.45-0.08c0-1.16-0.06-2.33,0.03-3.49c0.09-1.21,0.32-2.42,0.49-3.62c4.62-0.03,9.24-0.06,13.85-0.09
        c2.42-0.02,4.84-0.04,7.26-0.05c7.17,0.02,14.34,0.03,21.5,0.05c23.79,0.01,47.57,0.03,71.36,0.03c33.76,0,67.53,0,101.29,0
        c0,0-0.02-0.02-0.02-0.02c0.24,2.33-0.26,4.72,0.35,7.2c2.41,0,4.63,0,6.85,0c0,0,0.07,0.07,0.07,0.07
        c-0.03,8.45-0.05,16.9-0.08,25.35c-0.21,0.16-0.43,0.32-0.64,0.48c0.21,0.16,0.43,0.32,0.64,0.48c0,0.96,0.01,1.92,0.01,2.88
        c-1.14,0.67-1.14,0.76,0,1.44c0,0.48,0,0.96,0,1.44c-1.35,1.34-1.35,2.5,0,3.83c0,0.32,0,0.64,0,0.96
        c-1.26,0.38-1.45,1.33-1.31,2.46c0.08,0.62,0.24,1.26,0.18,1.86c-0.03,0.26-0.53,0.65-0.82,0.65c-0.23,0-0.6-0.46-0.68-0.77
        c-0.11-0.48-0.03-1.01-0.03-1.61c-1.25,0.58-2.27,1.18-3.38,1.55c-2.33,0.78-2.4,0.73-2.57,3.29c-0.07,1.11-0.46,1.78-1.56,2.08
        c-1.2,0.33-2.36,0.84-3.57,1.15c-0.83,0.21-1.73,0.36-2.58,0.3c-1.26-0.1-2.51-0.39-3.76-0.64c-2.3-0.45-4.71-0.71-5.85-3.26
        c-0.02-0.05-0.14-0.06-0.22-0.09c-2.64,0.88-4.93-0.05-6.86-1.21c-1.85,0.51-3.48,0.95-5.21,1.43c0.05,0.85,0.09,1.68,0.15,2.86
        c-1.09-0.24-1.97-0.44-3.1-0.69c0.35-2.2-1.43-2.52-3.2-3.25c0.69-0.78,1.42-1.26,1.64-1.91c0.3-0.91,0.32-1.96,0.22-2.93
        c-0.03-0.28-0.95-0.76-1.33-0.66c-2.06,0.54-3.93-0.33-5.87-0.66c-0.74-0.12-1.48-0.24-2.5-0.4c0.26,1.1,0.42,1.82,0.67,2.88
        c-1.06-0.16-2.01-0.05-2.68-0.44c-1.48-0.87-2.6-0.39-3.69,0.57c-1.19,1.05-2.43,2.07-3.48,3.26c-0.85,0.96-1.74,1.05-2.78,0.66
        c-0.59-0.22-1.08-0.73-1.67-0.91c-1.34-0.4-2.52-1.66-4.05-0.99c-1.23,0.54-2.38,0.81-3.68,0.32c-0.34-0.13-0.83-0.11-1.18,0.02
        c-2.38,0.89-5.09,1.39-7.02,2.88c-1.79,1.38-3.17,1.14-4.76,0.44c-1.6-0.71-3.06-0.7-4.47,0.17c-0.54-0.43-1-0.78-1.82-1.43
        c0.13,1.13,0.21,1.79,0.33,2.8c-0.87-0.36-1.45-0.57-2-0.83c-0.73-0.35-1.42-0.4-1.92,0.31c-1,1.43-2.33,1.42-3.84,1.07
        c-0.92-0.21-1.9-0.18-2.85-0.26c-0.63-0.05-1.41,0.09-1.86-0.22c-1.02-0.72-1.85-0.44-2.9-0.11c-1.54,0.49-3.18,0.73-4.95-0.35
        c0.65-0.69,1.15-1.22,2-2.13c-2.5,0.14-4.62-0.27-6.32,0.56c-1.23-1.02-2.27-1.93-3.35-2.77c-0.76-0.59-1.57-0.81-2.34,0.03
        c-0.59,0.65-1.26,0.43-1.99,0.24c-2.56-0.68-3.79,0.05-4.18,2.56c-0.21,1.37-0.92,1.91-2.16,1.99c-0.61-0.75-1.14-1.44-1.71-2.08
        c-1.71-1.93-2.69-2.03-4.91-0.78c-0.64,0.36-1.47,0.44-2.22,0.54c-0.54,0.07-1.13-0.18-1.64-0.04c-3.03,0.82-5.88-0.93-8.86-0.58
        c-0.21,0.02-0.44-0.17-0.66-0.26c-1.63-0.65-3.26-0.57-4.92-0.1c-0.66,0.19-1.37,0.2-2.06,0.26c-1.18,0.11-2.35,0.21-3.53,0.29
        c-0.61,0.04-1.4,0.3-1.79,0.02c-2.02-1.44-4.06-0.95-6.19-0.43c-1.05,0.26-2.19,0.15-3.27,0.32c-1.87,0.28-3.92-0.97-5.64,0.8
        c-0.3,0.31-1.21,0.14-1.81,0.04c-1.38-0.22-2.7-0.97-4.12,0.04c-0.28,0.2-1.01-0.19-1.52-0.36c-2.23-0.79-4.4-2-6.92-0.49
        c-0.45-2.46-2.5-1.69-3.88-2.17c-1.41-0.49-3-1.08-4.4-0.86c-1.42,0.22-2.69,1.37-4.08,2.14c-0.23-0.42-0.38-0.7-0.53-0.97
        c-0.82-1.44-2.49-2.23-2.89-1.38c0.31,0.46,0.62,0.93,1.08,1.61c-1.37,0.23-2.43,0.47-3.51,0.59c-1.95,0.22-3.27,1.08-3.53,3.17
        c-0.01,0.08-0.26,0.14-0.45,0.23c-0.18-0.09-0.45-0.15-0.57-0.32c-0.82-1.06-1.63-1.06-2.62-0.18c-0.49,0.45-1.17,0.69-1.93,1.13
        c-0.44-1.6-0.89-2.92-2.63-2.88c-0.36-0.33-0.72-0.67-1.07-1c-0.51-1.29-1.72-1.26-2.79-1.36c-1.1-0.1-2.22-0.03-3.33-0.04
        c-0.01-1.92-0.01-3.83-0.02-5.75c0.19-0.12,0.39-0.24,0.58-0.36c-0.19-0.2-0.39-0.4-0.58-0.59c0-2.72,0-5.44,0-8.15
        c0.23-0.06,0.47-0.1,0.69-0.18c2.2-0.77,2.27-0.92,2.32-3.43c0.01-0.62,0.2-1.25,0.4-1.84C19,39.77,17.79,37.6,14.48,36.89z
         M29.71,53.65c0,0,0,0.02,0,0.02c0.17-0.74,0.44-1.48,0.48-2.24c0.08-1.42,0.03-2.84,0.04-4.26c1.62-0.02,3.25-0.04,4.87-0.06
        c0.14,1.3,0.24,2.6,0.41,3.89c0.12,0.89,0.32,1.78,0.48,2.66c0,0,0,0,0,0c0,0.2-0.01,0.4-0.01,0.6c0.06,1,0.12,2,0.18,3.04
        c1.97,0,3.67,0,5.59,0c0-1.19,0-2.2,0-3.21c0.03-0.13,0.02-0.26-0.02-0.39c0.04-2.08,0.09-4.15,0.13-6.23
        c1.55-1.55,0.63-3.42,0.64-5.16c0-0.21-0.42-0.43-0.64-0.64c0-0.79,0.01-1.59,0.01-2.38c0-0.31,0-0.63,0-0.94c0-1.76,0-3.53,0-5.29
        c-0.03-0.48-0.07-0.96-0.1-1.43l-0.03-0.05c-0.12-0.2-0.24-0.57-0.37-0.57c-1.63-0.06-3.26-0.09-4.89-0.06
        c-0.16,0-0.32,0.48-0.47,0.74l0.01-0.04c-0.17,0.75-0.44,1.49-0.5,2.25c-0.09,1.19,0.01,2.39-0.04,3.58
        c-0.07,1.58-0.25,1.74-1.82,1.84c-0.4,0.02-0.8,0.02-1.19,0.01c-2.06-0.05-2.19-0.17-2.25-2.14c-0.03-0.87-0.01-1.75-0.01-2.63
        c0-3.95-0.01-3.95-4-3.87c-2.47,0.05-2.71,0.26-2.71,2.77c-0.02,5.89-0.02,11.78,0.01,17.67c0,0.69,0.23,1.38,0.35,2.08
        c0.04,0.16,0.08,0.33,0.12,0.49c-0.04,0.14-0.05,0.29-0.01,0.44c0.03,1.07,0.05,2.14,0.07,3.12c2.05,0.53,3.8,0.72,5.69-0.17
        c0-0.96,0-1.9,0-2.84C29.72,54.05,29.71,53.85,29.71,53.65z M225.96,31.59l-0.06-0.12c-1.39-1.01-4.35-1.14-5.61-0.23
        c-0.1,0.07-0.1,0.29-0.15,0.43c0,0,0.02-0.04,0.02-0.04c-0.17,0.35-0.48,0.7-0.47,1.05c0.03,3.1,0.11,6.2,0.17,9.3
        c0.04,0.27,0.08,0.54,0.13,0.81c-0.44-0.39-0.97-0.72-1.31-1.18c-1.21-1.66-0.96-3.61-0.96-5.5c0-0.98,0.03-2.12-1.16-2.3
        c-1.38-0.21-1.67-1.24-2.16-2.19l-0.02-0.05c-0.39-1.15-1.39-0.88-2.21-0.88c-3.66-0.02-7.31-0.03-10.97,0
        c-2.36,0.02-2.6,0.25-2.62,2.6c-0.03,4.93,0.02,9.85-0.03,14.78c-0.02,2.13-0.17,4.27-0.33,6.4c-0.07,0.88,0.27,1.35,1.05,1.6
        c0.17,0.7,0.33,1.41,1.28,1.4c1.47,0,2.93,0,4.72,0c0-1.3,0-2.29,0-3.29c-0.01-0.2-0.02-0.41-0.04-0.61
        c-0.03-0.12-0.01-0.24,0.05-0.35c0.66-1.3,0.67-2.6,0-3.9c-0.01-0.28-0.01-0.56-0.02-0.84l0.21,0c0,0,0.21-0.03,0.21-0.03
        c2.49,0.02,4.98,0.03,7.46,0.05c0.01,0,0.02,0,0.04,0c0.73-0.02,1.18-0.32,1.25-1.11c0.04-0.47,0.18-0.92,0.28-1.38
        c0.33-0.25,0.65-0.5,0.98-0.75c0.52-0.08,1.03-0.16,1.55-0.23c0.65,0.41,1.27,0.88,1.95,1.22c2.2,1.11,3.38,3.29,3.01,5.76
        c-0.12,0.77-0.17,1.44,0.81,1.65c0,0,0.04-0.04,0.04-0.04c-0.02,0.17-0.04,0.34-0.06,0.51c0,1,0,2,0,3.09
        c1.24,0.26,2.22,0.65,3.21,0.63c2.19-0.03,4.38-0.25,6.57-0.39c0.77-0.05,1.54-0.1,2.42-0.16c0.11-1,0.2-1.85,0.29-2.69
        c0.14-0.16,0.29-0.31,0.43-0.47c0.59-0.12,1.17-0.24,1.97-0.41c0-1.07,0-2.06,0-3.04c-0.02-0.16-0.04-0.32-0.06-0.48
        c-0.02-0.13,0-0.24,0.07-0.36c0.15-0.69,0.37-1.37,0.42-2.06c0.35-4.63-0.84-9.37,1.28-13.88c0.62-1.31-0.01-1.85-1.8-2.26
        l0.01,0.02c-0.16-0.26-0.3-0.74-0.47-0.75c-1.56-0.09-3.14-0.21-4.69-0.05c-0.39,0.04-0.9,1.03-0.98,1.63
        c-0.15,1.25-0.04,2.53-0.06,3.79c-0.02,1.39-0.07,2.78-0.11,4.28c-1.03,0.07-1.73,0.1-2.43,0.16c-1.22,0.11-2.21-0.1-2.5-1.53
        c-0.03-0.17-0.35-0.29-0.54-0.43c0.01-0.94,0.02-1.89,0.02-2.83C227.13,34.34,227.1,33.03,225.96,31.59z M89.31,31.34l0.03-0.02
        c-1.93,0.28-2.46,1.75-2.86,3.34l-0.13-0.13c0,0,0.14,0.12,0.14,0.12c-0.75,0.05-1.49,0.09-2.41,0.15
        c-0.07-0.83-0.06-1.52-0.21-2.18c-0.11-0.48-0.44-0.9-0.67-1.35l0.09,0.1c-1.51-0.94-3.76-0.98-5.56-0.09l0.05-0.02
        c-1.03,0.05-1.04,0.81-1.05,1.54c-0.01,1.43-0.01,2.87,0,4.3c0.01,3.89-0.14,4.02-4.08,3.49c-0.14-0.02-0.26-0.17-0.52-0.34
        c-0.06-0.43-0.22-0.97-0.19-1.5c0.09-1.82,0.21-3.64,0.39-5.46c0.18-1.91-0.26-2.52-2.11-2.59c-1.27-0.05-2.56-0.11-3.82,0.03
        c-0.72,0.08-1.51,0.41-2.06,0.88c-1.58,1.34-2.41,1.34-4.04-0.09c-0.44-0.39-1.07-0.78-1.63-0.79c-3.35-0.07-6.69-0.04-10.04-0.02
        c-0.91,0.01-1.55,0.45-1.61,1.41c-0.06,1.04-0.7,1.46-1.52,1.92c-0.45,0.25-0.86,0.95-0.89,1.47C44.4,39,44.24,42.5,44.17,45.99
        c-0.05,2.53,0.06,5.05,0.13,7.58c0.01,0.21,0.23,0.41,0.35,0.61c0.05,1,0.11,2.01,0.16,3.1c2.08,0.24,3.92,0.42,5.84-0.13
        c0.07-1.05,0.13-1.99,0.19-2.93c-0.02-0.25-0.03-0.5-0.05-0.75c-0.06-0.08-0.06-0.16,0.01-0.23c0.17-1.45,0.34-2.9,0.51-4.35
        c1.74-0.02,3.49-0.04,5.23-0.07c-0.04,1.1-0.13,2.2-0.1,3.3c0.01,0.38,0.35,0.74,0.53,1.12c0.07,0.13,0.1,0.28,0.11,0.43
        c-0.05,0.13-0.05,0.26-0.02,0.4c0,1.06,0,2.12,0,3.25c2.05,0,3.75,0,5.65,0c0.05-1.16,0.1-2.17,0.14-3.17
        c-0.02-0.21-0.04-0.41-0.07-0.62c-0.05-0.11-0.04-0.21,0.03-0.3c0.16-0.83,0.44-1.66,0.46-2.49c0.06-2.68,0-5.37,0.04-8.05
        c0.03-1.97,0.27-2.09,2.25-1.45c0.06,0.15,0.11,0.3,0.17,0.45c0.2,1.21-0.65,2.7,0.95,3.53c0.16,0.27,0.32,0.54,0.49,0.81
        c-0.08,0.46-0.16,0.93-0.23,1.39c-0.27,1.72,0.27,2.08,2.11,1.39c1.61-0.05,3.21-0.11,4.82-0.16c0.87,0.8,1.74,1.6,2.8,2.57
        c0.01,0.1,0.09,0.49,0.06,0.87c-0.04,0.54-0.11,1.09-0.24,1.61c-0.26,1.04-0.01,1.85,0.96,2.37c0.16,0.85,0.52,1.44,1.53,1.42
        c1.02-0.02,2.04,0.06,3.06,0.1c1.4,1.25,3.38,1.24,4.71-0.03c1.71-0.06,3.43-0.12,5.33-0.19c0-1.24,0-2.25,0-3.25
        c0.04-0.13,0.03-0.26-0.01-0.39c0.05-0.16,0.09-0.33,0.14-0.49c0.22-0.21,0.64-0.41,0.64-0.62c0.04-1.92,1.4-2.23,2.86-2.49
        c1.57-0.28,1.9-0.05,2.11,1.59c0.1,0.74-0.19,1.64,0.86,1.97c0,0,0.09,0.1,0.09,0.1c-0.05,0.12-0.05,0.24-0.02,0.36
        c0,1,0,1.99,0,3.1c2.04,0,3.78,0,5.77,0c0-1.15,0-2.08,0-3.01c-0.01-0.2-0.01-0.4-0.02-0.61c-0.01-0.14,0.02-0.27,0.08-0.4
        c0.28-2.89,0.7-5.77,0.78-8.67c0.07-2.68-0.2-5.36-0.39-8.04c-0.05-0.66-0.39-1.29-0.6-1.93c-0.85-0.07-1.69-0.14-2.82-0.24
        c0-1.02,0-1.94,0-2.86c-0.53-0.26-1.05-0.73-1.58-0.74c-3.08-0.07-6.17-0.06-9.25-0.01C90.26,30.73,89.79,31.12,89.31,31.34z
         M168.78,47.45c0.49,0.07,0.98,0.14,1.47,0.21l0,0.22c0.12,0.18,0.25,0.35,0.37,0.53c0.16,0.1,0.22,0.24,0.16,0.42
        c-0.85,1.77-0.74,3.55-0.1,5.34c0.09,1.06,0.17,2.11,0.26,3.16c2.07,0,3.84,0,5.95,0c0-1.15,0-2.15,0-3.14
        c0.17-0.92,0.48-1.83,0.49-2.75c0.05-5.67,0.02-11.34,0.02-17c0-3.77,0-3.77-3.9-3.76c-3.14,0.01-3.1,0.01-3.29,3.19
        c-0.04,0.73-0.29,1.88-0.74,2.06c-1.47,0.57-1.75,1.69-1.84,2.93c-1.04,0.53-1.96,1.01-3.17,1.63c0-2.07,0-3.81,0-5.56
        c0-4.43-0.01-4.44-4.36-4.26c-2.01,0.08-2.33,0.36-2.35,2.43c-0.04,3.34,0,6.68-0.01,10.02c0,0.72-0.03,1.44-0.06,2.15
        c-0.12,2.3-0.27,4.6-0.38,6.91c-0.04,0.79-0.11,1.64,0.85,2.03c0.07,1,0.13,1.99,0.21,3.08c1.94,0.24,3.68,0.47,5.45-0.17
        c0-0.98,0-1.83,0-2.69c0.15-0.13,0.31-0.25,0.46-0.38c1.93-0.12,1.94-0.12,2.04-1.83c0.02-0.38-0.02-0.76-0.03-1.14
        c0,0,0.06-0.21,0.06-0.21c0.67-0.15,1.35-0.3,2.05-0.46c0.15-1.1,0.28-2.04,0.4-2.97L168.78,47.45z M144.72,50.55
        c1.04-2.21,0.51-4.54,0.41-6.82c-0.02-0.41-0.62-1.03-1.06-1.14c-1.3-0.33-1.66-1.35-2.07-2.38c-0.57-0.85-1.43-0.91-2.34-0.91
        c-1.36,0.01-2.72,0.05-4.07-0.03c-1.8-0.11-2.22-0.57-2.28-2.36c-0.04-1.2,0.08-2.41-0.05-3.59c-0.07-0.63-0.53-1.21-0.82-1.81
        c-0.97-1.46-2.46-0.77-3.72-0.8c-2.32-0.07-2.57,0.24-2.58,2.62c-0.02,6.21-0.03,12.42,0.01,18.63c0,0.76,0.32,1.51,0.49,2.27
        c0.07,1,0.15,2,0.24,3.29c2.15,0,4.05,0,5.95,0c0.24,0.29,0.43,0.73,0.73,0.84c2.3,0.86,4.69,0.61,7.07,0.51
        c0.85-0.04,1.21-0.65,1.27-1.46c0.01-1.09,0.03-2.18,0.04-3.26l-0.01,0.02c0.83-0.07,1.65-0.15,2.78-0.25
        C144.72,52.68,144.72,51.61,144.72,50.55z M118.93,38.49c1.58-0.09,3.16-0.18,4.95-0.29c0.08-1.26,0.16-2.43,0.24-3.61
        c-0.18-1.06-0.36-2.11-0.53-3.14c-5.56,0-10.94,0-16.38,0c-0.09,1.19-0.17,2.21-0.25,3.23c0.07,1.15,0.15,2.31,0.24,3.79
        c1.93,0,3.66,0,5.38,0c0.1,0.12,0.11,0.24,0.02,0.37c-0.13,0.69-0.36,1.38-0.38,2.07c-0.07,3.34,0.26,6.71-0.64,9.99
        c-0.31,1.12,0.48,1.58,0.98,2.25c0.04,0.24,0.08,0.49,0.12,0.73c0.07,1.24-0.46,2.56,0.49,3.68c0.64,1.06,1.23,2.15,1.95,3.15
        c0.22,0.31,0.8,0.54,1.19,0.51c2.12-0.18,2.92-1.67,2.08-3.76c0.02-1.2,0.03-2.4,0.05-3.6c0.02-0.23,0.04-0.47,0.06-0.7
        c0.14-0.84,0.4-1.68,0.4-2.53C118.95,46.6,118.93,42.55,118.93,38.49z M179.8,54.15c0,1,0,1.99,0,3.09c2.03,0,3.78,0,5.77,0
        c0-1.15,0-2.09,0-3.02c-0.01-0.22-0.02-0.44-0.03-0.66c-0.03-0.12-0.01-0.24,0.05-0.35c0.15-0.84,0.42-1.68,0.43-2.52
        c0.05-4.05,0.03-8.1,0.03-12.15c3.42-0.12,6.84-0.24,10.46-0.36c0-1.23,0-2.17,0-3.1c0.16-0.27,0.4-0.53,0.45-0.82
        c0.54-2.86-0.05-3.57-2.97-3.58c-4.06-0.01-8.11-0.03-12.17,0.01c-2.17,0.02-2.41,0.32-2.5,2.51c-0.1,2.68,0.39,5.42-0.64,8.03
        c-0.11,0.27-0.1,0.67,0.02,0.92c1.02,2.04,0.48,4.23,0.62,6.34c0.11,1.57,0.24,3.13,0.36,4.7c0.04,0.17,0.08,0.33,0.12,0.5
        C179.78,53.85,179.77,54,179.8,54.15z M203.63,65.16c2.36-0.53,2.58-2.38,3.33-3.92C205.08,61.08,204.15,62.17,203.63,65.16z
         M233.02,65.19c-1.41,0.28-2.49,0.39-3.49,0.74c-0.31,0.11-0.52,0.87-0.52,1.33c0,0.17,0.77,0.57,1.09,0.49
        c0.83-0.22,1.65-0.57,2.38-1.02C232.74,66.56,232.75,65.98,233.02,65.19z M223.74,67.84c0.79-0.85,0.62-1.39-0.05-1.77
        c-0.71-0.4-1.45-0.67-2.21,0.54C222.3,67.06,223.05,67.47,223.74,67.84z M127.96,62.16c-0.13-0.22-0.2-0.35-0.28-0.48
        c-0.16,0.13-0.35,0.24-0.45,0.4c-0.04,0.06,0.17,0.37,0.2,0.36C127.62,62.38,127.78,62.26,127.96,62.16z M139.37,66.36
        c-0.1-0.19-0.16-0.31-0.23-0.43c-0.15,0.12-0.33,0.22-0.43,0.37c-0.04,0.06,0.11,0.23,0.17,0.36
        C139.04,66.56,139.21,66.46,139.37,66.36z M208.19,62.58c-0.07,0.01-0.2,0.02-0.21,0.04c-0.01,0.13,0.01,0.25,0.02,0.38
        c0.07-0.01,0.2-0.02,0.21-0.04C208.22,62.84,208.2,62.71,208.19,62.58z"/>
    <path class="st5" d="M21.13,21.63c-1.62,0-3.24,0.01-4.86,0.01c-0.58,0.01-1.17,0.03-1.75,0.04c0,0-0.17-0.17-0.17-0.17
        c0.02-2.38,0.03-4.76,0.05-7.15c2.57,0.02,5.13,0.04,7.7,0.06c-0.17,1.21-0.4,2.41-0.49,3.62c-0.09,1.16-0.02,2.33-0.03,3.49
        C21.43,21.56,21.28,21.59,21.13,21.63z"/>
    <path class="st5" d="M244.54,21.54c-2.22,0-4.44,0-6.85,0c-0.61-2.48-0.11-4.87-0.35-7.2c2.38,0.03,4.75,0.06,7.13,0.09
        C244.5,16.81,244.52,19.18,244.54,21.54z"/>
    <path class="st9" d="M21.7,65.66c1.75-0.04,2.19,1.28,2.63,2.88c0.77-0.44,1.44-0.68,1.93-1.13c0.99-0.89,1.8-0.89,2.62,0.18
        c0.13,0.17,0.4,0.22,0.57,0.32c0.19-0.09,0.44-0.14,0.45-0.23c0.26-2.09,1.58-2.95,3.53-3.17c1.08-0.12,2.15-0.36,3.51-0.59
        c-0.46-0.68-0.77-1.15-1.08-1.61c0.4-0.85,2.07-0.05,2.89,1.38c0.15,0.27,0.3,0.55,0.53,0.97c1.39-0.77,2.66-1.92,4.08-2.14
        c1.4-0.22,2.99,0.37,4.4,0.86c1.38,0.48,3.43-0.29,3.88,2.17c2.51-1.52,4.69-0.31,6.92,0.49c0.5,0.18,1.24,0.56,1.52,0.36
        c1.42-1.01,2.75-0.26,4.12-0.04c0.6,0.1,1.51,0.27,1.81-0.04c1.72-1.77,3.77-0.52,5.64-0.8c1.08-0.16,2.22-0.06,3.27-0.32
        c2.13-0.52,4.17-1.02,6.19,0.43c0.39,0.28,1.19,0.03,1.79-0.02c1.18-0.08,2.35-0.18,3.53-0.29c0.69-0.06,1.4-0.08,2.06-0.26
        c1.66-0.48,3.29-0.55,4.92,0.1c0.22,0.09,0.45,0.29,0.66,0.26c2.99-0.35,5.84,1.4,8.86,0.58c0.5-0.14,1.1,0.12,1.64,0.04
        c0.76-0.1,1.58-0.18,2.22-0.54c2.22-1.25,3.2-1.15,4.91,0.78c0.57,0.64,1.09,1.33,1.71,2.08c1.23-0.09,1.95-0.62,2.16-1.99
        c0.39-2.51,1.62-3.23,4.18-2.56c0.72,0.19,1.4,0.4,1.99-0.24c0.77-0.84,1.58-0.62,2.34-0.03c1.08,0.84,2.12,1.75,3.35,2.77
        c1.7-0.83,3.82-0.42,6.32-0.56c-0.86,0.91-1.36,1.44-2,2.13c1.77,1.08,3.41,0.84,4.95,0.35c1.05-0.33,1.88-0.61,2.9,0.11
        c0.45,0.32,1.23,0.17,1.86,0.22c0.95,0.08,1.93,0.05,2.85,0.26c1.51,0.34,2.84,0.36,3.84-1.07c0.5-0.71,1.19-0.66,1.92-0.31
        c0.55,0.26,1.12,0.47,2,0.83c-0.12-1.01-0.2-1.68-0.33-2.8c0.82,0.64,1.28,1,1.82,1.43c1.41-0.87,2.87-0.88,4.47-0.17
        c1.58,0.7,2.96,0.94,4.76-0.44c1.93-1.49,4.64-1.99,7.02-2.88c0.35-0.13,0.83-0.15,1.18-0.02c1.3,0.49,2.46,0.22,3.68-0.32
        c1.53-0.67,2.72,0.59,4.05,0.99c0.59,0.18,1.08,0.69,1.67,0.91c1.04,0.39,1.93,0.3,2.78-0.66c1.05-1.19,2.28-2.21,3.48-3.26
        c1.09-0.95,2.22-1.43,3.69-0.57c0.66,0.39,1.62,0.29,2.68,0.44c-0.25-1.06-0.41-1.78-0.67-2.88c1.02,0.16,1.76,0.28,2.5,0.4
        c1.94,0.32,3.8,1.19,5.87,0.66c0.38-0.1,1.31,0.38,1.33,0.66c0.1,0.97,0.08,2.02-0.22,2.93c-0.21,0.65-0.94,1.14-1.64,1.91
        c1.77,0.73,3.55,1.05,3.2,3.25c1.13,0.25,2.01,0.45,3.1,0.69c-0.06-1.18-0.11-2.01-0.15-2.86c1.73-0.47,3.36-0.92,5.21-1.43
        c1.92,1.16,4.21,2.08,6.86,1.21c0.07,0.03,0.19,0.04,0.22,0.09c1.14,2.55,3.55,2.81,5.85,3.26c1.25,0.24,2.5,0.54,3.76,0.64
        c0.85,0.07,1.74-0.08,2.58-0.3c1.21-0.31,2.37-0.81,3.57-1.15c1.1-0.3,1.49-0.97,1.56-2.08c0.17-2.56,0.23-2.5,2.57-3.29
        c1.1-0.37,2.13-0.97,3.38-1.55c0,0.61-0.08,1.13,0.03,1.61c0.07,0.31,0.44,0.77,0.68,0.77c0.29,0,0.79-0.39,0.82-0.65
        c0.06-0.61-0.1-1.24-0.18-1.86c-0.14-1.13,0.05-2.08,1.31-2.46c0,1.91,0,3.81,0,5.77c-2.28,0.97-4.59,0.05-7.03,0.77
        c-0.09,2.12-0.18,4.3-0.26,6.41c-2,0.6-212.95,0.67-215.55,0.06C21.7,69.59,21.7,67.63,21.7,65.66z M106,67.64
        c-0.35-0.15-0.59-0.32-0.83-0.34c-0.11-0.01-0.36,0.42-0.33,0.45c0.18,0.2,0.41,0.38,0.66,0.47
        C105.55,68.25,105.74,67.94,106,67.64z"/>
    <path class="st1" d="M7.26,71.81c2.38,0.02,4.75,0.04,7.13,0.06c0,2.4,0.01,4.81,0.01,7.21c0,0-0.03,0.03-0.03,0.03
        c-2.4,0-4.8,0-7.2,0l0,0.01C7.21,76.68,7.23,74.24,7.26,71.81z"/>
    <path class="st9" d="M14.51,63.26c1.11,0.01,2.23-0.07,3.33,0.04c1.07,0.1,2.27,0.07,2.79,1.36c-2.07,0.02-4.13,0.04-6.2,0.06
        C14.45,64.24,14.48,63.75,14.51,63.26z"/>
    <path class="st9" d="M244.55,57.51c-1.35-1.34-1.35-2.49,0-3.83C244.55,54.95,244.55,56.23,244.55,57.51z"/>
    <path class="st9" d="M244.55,52.24c-1.14-0.67-1.14-0.76,0-1.44C244.54,51.28,244.55,51.76,244.55,52.24z"/>
    <path class="st9" d="M244.53,47.92c-0.21-0.16-0.43-0.32-0.64-0.48c0.21-0.16,0.43-0.32,0.64-0.48
        C244.54,47.28,244.53,47.6,244.53,47.92z"/>
    <path class="st9" d="M14.48,36.89c3.31,0.71,4.52,2.88,3.41,6.07c-0.21,0.59-0.39,1.22-0.4,1.84c-0.05,2.51-0.12,2.65-2.32,3.43
        c-0.22,0.08-0.46,0.12-0.69,0.18C14.48,44.56,14.48,40.73,14.48,36.89z"/>
    <path class="st9" d="M14.52,21.68c0.58-0.02,1.17-0.03,1.75-0.04c-0.6,0.28-1.2,0.57-1.8,0.85C14.49,22.22,14.51,21.95,14.52,21.68
        z"/>
    <path class="st9" d="M14.49,56.55c0.19,0.2,0.39,0.4,0.58,0.59c-0.19,0.12-0.39,0.24-0.58,0.36
        C14.49,57.19,14.49,56.87,14.49,56.55z"/>
    <path class="st3" d="M7.19,82.92c0-1.27,0-2.55-0.01-3.82c2.4,0,4.8,0,7.2,0c0,2.4,0.01,4.79,0.01,7.19c-2.21,0-4.42,0-6.91,0
        C7.37,85.05,7.28,83.99,7.19,82.92z"/>
    <path class="st11" d="M170.78,48.83c0.06-0.18,0-0.32-0.16-0.42c0.03-0.17,0.07-0.34,0.1-0.51c0.23-1.38,0.32-2.76-0.17-4.26
        c-0.75,0.08-1.4,0.15-2.1,0.22c-0.08,1.11-0.15,2.03-0.21,2.78c-0.76,0.33-1.39,0.6-2.02,0.88c0,0.88,0,1.77,0.01,2.65
        c-0.75,0.14-1.5,0.29-2.24,0.42c-0.12,1.11-0.22,2.1-0.33,3.14c-1.93,0-3.65,0-5.38,0c0-7.33,0-14.66,0-22.1c1.93,0,3.62,0,5.54,0
        c0,3.79,0,7.36,0,11.06c0.76-0.04,1.28-0.07,1.84-0.1c0.13-0.9,0.25-1.66,0.36-2.4c0.79-0.18,1.46-0.33,2.11-0.48
        c0.13-0.97,0.25-1.81,0.36-2.62c0.84-0.15,1.52-0.27,2.33-0.42c0.04-0.86,0.08-1.65,0.12-2.44c0.05-0.85,0.11-1.69,0.18-2.7
        c1.93,0.03,3.64-0.44,5.48,0.35c-0.11,7.26,0.14,14.48-0.09,21.68c-2,0-3.69,0-5.4,0C170.99,51.84,170.89,50.33,170.78,48.83z"/>
    <path class="st12" d="M104.6,53.2c-0.06,0.13-0.09,0.26-0.08,0.4c-1.91,0.05-3.83,0.11-5.74,0.16c0,0-0.09-0.1-0.09-0.1
        c-0.04-1.62-0.08-3.24-0.13-4.86c0-1.15,0-2.31,0-3.51c-2.22,0-4.28,0-6.34,0c0,1.28,0,2.38,0,3.47c0,1.48-0.01,2.97-0.01,4.45
        c-0.05,0.16-0.09,0.33-0.14,0.49c-1.79,0.01-3.59,0.31-5.58-0.25c0-6.32,0-12.56,0-18.81l-0.14-0.12c0,0,0.13,0.13,0.13,0.13
        c0.89-0.12,1.79-0.24,2.68-0.36c0.07-1.12,0.12-2.05,0.18-2.98c0,0-0.03,0.02-0.03,0.02c4.08,0.04,8.17,0.08,12.25,0.12
        c0,0.92,0,1.84,0,2.86c1.13,0.1,1.98,0.17,2.82,0.24c0.02,1.75,0.04,3.51,0.06,5.26C104.5,44.28,104.55,48.74,104.6,53.2z
         M98.57,35.16c-2.06-0.59-4.13-0.3-6.34-0.19c0,1.22,0,2.29,0,3.37c0,0.99,0,1.99,0,3.11c2.2,0,4.26,0,6.38,0c0-1.27,0-2.35,0-3.44
        c0-0.92-0.01-1.83-0.01-2.75l0.08-0.08L98.57,35.16z"/>
    <path class="st12" d="M62.81,53.22c-0.07,0.09-0.08,0.19-0.03,0.3c-1.9,0.05-3.8,0.1-5.7,0.15c0-0.15-0.04-0.3-0.11-0.43
        c-0.02-1.47-0.03-2.94-0.05-4.41c0-1.16,0-2.31,0-3.58c-2.11,0-4.05,0-6.1,0c0,1.26,0,2.43,0,3.6c-0.01,1.46-0.02,2.93-0.04,4.39
        c-0.07,0.07-0.07,0.15-0.01,0.23c-1.87,0.51-3.73,0.44-5.61,0.09c0-6.4,0-12.66,0-18.88c0.85-0.19,1.52-0.33,2.15-0.47
        c0.15-0.98,0.27-1.82,0.42-2.79c4.08,0.03,8.02-0.31,11.9,0.18c0.17,1.11,0.29,1.95,0.42,2.77c0.92,0.13,1.68,0.23,2.68,0.37
        c0,2.8-0.01,5.5,0,8.2C62.74,46.37,62.78,49.79,62.81,53.22z M56.92,38.48c0-1.16,0-2.31,0-3.54c-2.12,0-4.05,0-6.09,0
        c0,1.28,0,2.45,0,3.61c-0.04,0.92-0.09,1.84-0.14,2.87c2.23,0,4.18,0,6.37,0C57.01,40.35,56.97,39.41,56.92,38.48z"/>
    <path class="st11" d="M41.87,39.28c0,0.79-0.01,1.59-0.01,2.38c0,1.93,0,3.87,0,5.8c-0.04,2.08-0.09,4.15-0.13,6.23
        c-1.91-0.01-3.82-0.02-5.73-0.03c0,0,0,0,0,0c-0.02-2.21-0.04-4.41-0.05-6.62c0-1.09,0-2.17,0-3.29c-2.19,0-4.2,0-6.17,0
        c0,1.22,0,2.25,0,3.28c-0.02,2.21-0.04,4.42-0.06,6.63c0,0,0-0.02,0-0.02c-1.91,0.01-3.82,0.03-5.73,0.04
        c-0.04-0.16-0.08-0.33-0.12-0.49c0.04-0.88,0.12-1.75,0.12-2.63c0.01-5.43,0-10.86,0-16.29c0-0.86,0-1.71,0-2.69
        c1.99,0,3.69,0,5.46,0c0.49,2.89-0.21,5.69,0.43,8.38c2.11,0,4.06,0,6.15,0c0-2.91,0-5.62,0-8.33c0,0-0.01,0.04-0.01,0.04
        c1.91-0.04,3.82-0.07,5.73-0.11c0,0,0.03,0.05,0.03,0.05c0.03,0.48,0.07,0.96,0.1,1.43c0,1.76,0,3.53,0,5.29
        C41.87,38.65,41.87,38.97,41.87,39.28z"/>
    <path class="st12" d="M226.05,35.96c-0.01,0.94-0.01,1.89-0.02,2.83c0,0.85,0,1.7,0,2.65c2.06,0,3.99,0,6.15,0
        c0-3.36,0-6.53,0-10.04c2.03,0.1,3.83,0.19,5.62,0.28c0,0-0.01-0.02-0.01-0.02c0.03,6.07,0.07,12.13,0.1,18.2
        c-0.06,0.11-0.09,0.23-0.07,0.36c-0.73,0.1-1.45,0.2-2.18,0.3c-0.21,1.07-0.43,2.15-0.64,3.22c-3.99-0.04-7.97-0.08-11.96-0.13
        c0,0-0.04,0.04-0.04,0.04c0-1.01,0-2.01,0-3.29c3.16,0,6.04,0,9.04,0c0-0.74,0-1.19,0-1.65c-0.02-0.23-0.03-0.46-0.05-0.69
        c-0.01-0.81-0.03-1.63-0.04-2.44c-0.55-0.16-1.1-0.45-1.65-0.46c-2.43-0.08-4.86-0.08-7.3-0.11c0,0,0.02,0.02,0.02,0.02
        c-0.03-1.06-0.05-2.11-0.08-3.18c-1.08-0.06-1.86-0.1-2.63-0.13c-0.05-3.36-0.1-6.72-0.16-10.08c0,0-0.02,0.04-0.02,0.04
        c1.92-0.07,3.84-0.14,5.76-0.2c0,0,0.06,0.12,0.06,0.12C225.99,33.04,226.02,34.5,226.05,35.96z"/>
    <path class="st11" d="M205.26,53.22c-0.06,0.11-0.08,0.23-0.05,0.35c-1.87,0.27-3.74,0.43-5.57-0.08c0-7.37,0-14.58,0-21.92
        c5.03,0,9.87,0,14.71,0c0,0,0.02,0.05,0.02,0.05c0,0.91,0,1.81,0,2.69c1.09,0.18,1.83,0.3,2.71,0.45c0,2.39,0,4.64,0,6.9
        c-0.84,0.07-1.69,0.13-2.73,0.21c0,1.16,0,2.17,0,3.18c-3.01,0-6.03,0-9.11,0c0,1.38,0,2.41,0,3.44c0.01,0.28,0.01,0.56,0.02,0.84
        C205.26,50.62,205.26,51.92,205.26,53.22z M205.26,38.46c0,0.98,0,1.97,0,3.01c2.13,0,4.05,0,6.17,0
        c-0.05-1.11-0.09-2.03-0.14-2.95c0-1.17,0-2.34,0-3.53c-2.13,0-4.07,0-6.04,0C205.26,36.25,205.26,37.36,205.26,38.46z"/>
    <path class="st12" d="M65.73,41.67c-0.06-0.15-0.11-0.3-0.17-0.45c0.09-3.16,0.18-6.31,0.27-9.63c1.85,0,3.55,0,5.49,0
        c0,3.28,0,6.43,0,9.75c2.18,0,4.11,0,6.32,0c0-1.32-0.02-2.49,0-3.66c0.04-2.14,0.1-4.28,0.15-6.42c0,0-0.05,0.02-0.05,0.02
        c1.85,0.03,3.71,0.06,5.56,0.09c0,0-0.09-0.1-0.09-0.1c0.01,7.24,0.03,14.48,0.02,21.72c0,0.21-0.18,0.41-0.27,0.6
        c-1.75,0-3.45,0-5.36,0c0-1.88,0-3.54,0-5.2c-0.02-0.63-0.04-1.26-0.06-1.89c-0.01-0.3-0.02-0.6-0.03-0.89
        c-0.53-0.19-1.05-0.52-1.58-0.53c-2.45-0.07-4.9-0.05-7.35-0.06l0.03,0.02c-0.1-1.07-0.2-2.14-0.31-3.23
        C67.31,41.75,66.52,41.71,65.73,41.67z"/>
    <path class="st13" d="M118.5,53.18c-0.02,0.23-0.04,0.47-0.06,0.7c-1.92,0.01-3.84,0.01-5.75,0.02c-0.04-0.24-0.08-0.49-0.12-0.73
        c0.01-4.77,0.02-9.54,0.03-14.31c0.08-0.13,0.08-0.25-0.02-0.37c0-1.16,0-2.32,0-3.5c-2-0.1-3.81-0.19-5.62-0.28
        c0.08-1.02,0.16-2.04,0.25-3.23c5.44,0,10.82,0,16.38,0c0.17,1.02,0.35,2.08,0.53,3.14c-1.86,0.13-3.72,0.27-5.61,0.4
        c0,1.24,0,2.34,0,3.43C118.51,43.35,118.51,48.26,118.5,53.18z"/>
    <path class="st13" d="M185.59,53.21c-0.06,0.11-0.08,0.23-0.05,0.35c-1.91,0.04-3.82,0.09-5.73,0.13c-0.04-0.17-0.08-0.33-0.12-0.5
        c0.07-7.16,0.14-14.32,0.21-21.43c2.53-0.6,14.5-0.5,16.27,0.09c0,0.9,0,1.8,0,3.02c-3.56,0-6.89,0-10.23,0
        c-0.12,1.18-0.24,2.36-0.37,3.54C185.59,43.35,185.59,48.28,185.59,53.21z"/>
    <path class="st14" d="M77.8,31.26c-0.05,2.14-0.11,4.28-0.15,6.42c-0.02,1.17,0,2.34,0,3.66c-2.21,0-4.14,0-6.32,0
        c0-3.33,0-6.47,0-9.75c-1.94,0-3.64,0-5.49,0c-0.09,3.32-0.18,6.48-0.27,9.63c-1.98-0.64-2.22-0.51-2.25,1.45
        c-0.04,2.68,0.02,5.37-0.04,8.05c-0.02,0.83-0.3,1.66-0.46,2.49c-0.03-3.43-0.07-6.85-0.09-10.28c-0.01-2.7,0-5.4,0-8.2
        c-1-0.14-1.76-0.24-2.68-0.37c-0.12-0.83-0.25-1.66-0.42-2.77c-3.88-0.49-7.82-0.15-11.9-0.18c-0.14,0.97-0.27,1.81-0.42,2.79
        c-0.62,0.14-1.3,0.28-2.15,0.47c0,6.22,0,12.48,0,18.88c1.88,0.35,3.75,0.42,5.61-0.09c0.02,0.25,0.03,0.5,0.05,0.74
        c-2.06-0.01-4.12-0.02-6.19-0.03c-0.12-0.2-0.34-0.4-0.35-0.61c-0.07-2.53-0.18-5.06-0.13-7.58c0.07-3.5,0.23-6.99,0.45-10.48
        c0.03-0.52,0.45-1.23,0.89-1.47c0.82-0.46,1.46-0.88,1.52-1.92c0.05-0.96,0.7-1.4,1.61-1.41c3.35-0.02,6.69-0.05,10.04,0.02
        c0.55,0.01,1.19,0.4,1.63,0.79c1.62,1.43,2.46,1.42,4.04,0.09c0.55-0.47,1.35-0.8,2.06-0.88c1.26-0.14,2.55-0.08,3.82-0.03
        c1.85,0.07,2.29,0.68,2.11,2.59c-0.18,1.81-0.3,3.64-0.39,5.46c-0.03,0.53,0.13,1.07,0.19,1.5c0.26,0.18,0.38,0.32,0.52,0.34
        c3.94,0.53,4.09,0.41,4.08-3.49c0-1.43-0.01-2.87,0-4.3C76.76,32.07,76.77,31.31,77.8,31.26z"/>
    <path class="st14" d="M77.61,48.39c0,1.66,0,3.32,0,5.2c1.92,0,3.61,0,5.36,0c0.09-0.18,0.27-0.39,0.27-0.6
        c0-7.24-0.01-14.48-0.02-21.72c0.23,0.45,0.55,0.88,0.66,1.35c0.15,0.66,0.14,1.35,0.21,2.18c0.91-0.06,1.66-0.1,2.41-0.15
        c0,6.25,0,12.49,0,18.81c1.99,0.56,3.8,0.26,5.58,0.25c0.04,0.13,0.04,0.26,0.01,0.39c-1.81,0-3.63,0-5.48,0
        c-0.33,1.37-0.57,2.42,0.14,3.45c-1.34,1.27-3.32,1.29-4.71,0.03c1.71-0.68,1.74-0.77,1.03-3.28c-1.74,0-3.5,0-5.27,0
        c-0.14,0.7-0.25,1.23-0.35,1.77c-0.97-0.53-1.22-1.33-0.96-2.37c0.13-0.53,0.2-1.07,0.24-1.61c0.03-0.38-0.05-0.77-0.06-0.87
        c-1.06-0.97-1.93-1.77-2.8-2.57c1.13-0.09,2.25-0.19,3.38-0.28C77.37,48.39,77.49,48.4,77.61,48.39z"/>
    <path class="st14" d="M170.78,48.83c0.11,1.5,0.21,3.01,0.34,4.74c1.71,0,3.4,0,5.4,0c0.22-7.2-0.02-14.42,0.09-21.68
        c-1.84-0.79-3.55-0.32-5.48-0.35c-0.07,1.01-0.13,1.85-0.18,2.7c-0.05,0.79-0.08,1.58-0.12,2.44c-0.81,0.14-1.49,0.27-2.33,0.42
        c-0.11,0.81-0.23,1.65-0.36,2.62c-0.65,0.15-1.33,0.3-2.11,0.48c-0.11,0.74-0.22,1.51-0.36,2.4c-0.55,0.03-1.08,0.06-1.84,0.1
        c0-3.7,0-7.27,0-11.06c-1.92,0-3.61,0-5.54,0c0,7.44,0,14.77,0,22.1c0.03,0.17,0.06,0.34,0.09,0.5l-0.22-0.03
        c-0.96-0.39-0.89-1.25-0.85-2.03c0.1-2.3,0.26-4.6,0.38-6.91c0.04-0.72,0.06-1.43,0.06-2.15c0.01-3.34-0.03-6.68,0.01-10.02
        c0.02-2.06,0.34-2.34,2.35-2.43c4.35-0.18,4.35-0.18,4.36,4.26c0,1.75,0,3.49,0,5.56c1.21-0.62,2.14-1.1,3.17-1.63
        c0.09-1.24,0.37-2.36,1.84-2.93c0.45-0.18,0.7-1.33,0.74-2.06c0.19-3.18,0.15-3.18,3.29-3.19c3.89-0.01,3.89-0.01,3.9,3.76
        c0,5.67,0.02,11.34-0.02,17c-0.01,0.92-0.32,1.83-0.49,2.75c-2.07-0.01-4.14-0.01-6.21-0.02
        C170.04,52.38,169.93,50.59,170.78,48.83z"/>
    <path class="st15" d="M234.99,53.74c0.21-1.07,0.43-2.15,0.63-3.22c0.75,0.06,1.5,0.12,2.25,0.17c0,0.99,0,1.97,0,3.04
        c-0.8,0.16-1.38,0.29-1.97,0.41c-0.14,0.16-0.29,0.31-0.43,0.47c-0.09,0.84-0.18,1.69-0.29,2.69c-0.89,0.06-1.66,0.11-2.42,0.16
        c-2.19,0.14-4.38,0.37-6.57,0.39c-0.98,0.01-1.97-0.38-3.21-0.63c0-1.09,0-2.09,0-3.09c3.5,0.01,6.99,0.05,10.49,0.02
        C233.97,54.15,234.48,53.88,234.99,53.74z"/>
    <path class="st15" d="M132.83,57.52c-1.9,0-3.8,0-5.95,0c-0.09-1.29-0.17-2.29-0.24-3.29c5.1-0.03,10.21-0.06,15.31-0.08
        c-0.01,1.09-0.03,2.18-0.04,3.27C138.88,57.45,135.86,57.49,132.83,57.52z"/>
    <path class="st14" d="M214.35,31.57c-4.84,0-9.68,0-14.71,0c0,7.34,0,14.55,0,21.92c1.83,0.51,3.7,0.35,5.57,0.08
        c0.01,0.2,0.02,0.41,0.04,0.61c-1.88,0-3.76,0-5.63,0c-0.16,0.8-0.27,1.34-0.37,1.89c-0.79-0.25-1.12-0.72-1.05-1.6
        c0.16-2.13,0.31-4.26,0.33-6.4c0.05-4.93,0-9.85,0.03-14.78c0.01-2.35,0.26-2.59,2.62-2.6c3.66-0.02,7.31-0.02,10.97,0
        C212.97,30.7,213.96,30.42,214.35,31.57z"/>
    <path class="st14" d="M217.08,41.66c0-2.26,0-4.52,0-6.9c-0.87-0.14-1.62-0.27-2.71-0.45c0-0.88,0-1.78,0-2.69
        c0.5,0.94,0.78,1.97,2.16,2.19c1.19,0.18,1.16,1.32,1.16,2.3c0,1.89-0.25,3.84,0.96,5.5c0.34,0.47,0.87,0.79,1.31,1.18
        c0.12,0.69,0.25,1.38,0.4,2.23c0.93,0,1.79,0,2.64,0L222.99,45c0,0.16,0,0.32,0,0.49c0,0.92,0,1.84,0,2.73
        c1.1,0.23,1.94,0.4,2.78,0.58c1.32,1.47,3.66,1.49,5.42,0.06c0.17-0.11,0.34-0.22,0.51-0.33c0.08,0.12,0.19,0.18,0.33,0.18
        c0,0.46,0,0.91,0,1.65c-2.99,0-5.88,0-9.04,0c0,1.28,0,2.29,0,3.29c-0.98-0.2-0.92-0.87-0.81-1.65c0.37-2.47-0.81-4.65-3.01-5.76
        c-0.68-0.34-1.3-0.81-1.95-1.22C217.18,43.9,217.13,42.78,217.08,41.66z"/>
    <path class="st14" d="M185.95,34.88c3.34,0,6.67,0,10.23,0c0-1.22,0-2.12,0-3.02c-1.77-0.59-13.74-0.69-16.27-0.09
        c-0.07,7.11-0.14,14.27-0.21,21.43c-0.12-1.57-0.26-3.13-0.36-4.7c-0.14-2.12,0.4-4.3-0.62-6.34c-0.13-0.25-0.13-0.65-0.02-0.92
        c1.03-2.62,0.53-5.35,0.64-8.03c0.08-2.19,0.32-2.49,2.5-2.51c4.06-0.03,8.11-0.02,12.17-0.01c2.92,0.01,3.52,0.72,2.97,3.58
        c-0.06,0.29-0.3,0.55-0.45,0.82C192.99,35.01,189.47,34.95,185.95,34.88z"/>
    <path class="st15" d="M185.95,34.88c3.52,0.07,7.04,0.13,10.56,0.2c0,0.94,0,1.87,0,3.1c-3.61,0.12-7.03,0.24-10.46,0.36
        c-0.16-0.04-0.31-0.08-0.47-0.13C185.71,37.24,185.83,36.06,185.95,34.88z"/>
    <path class="st14" d="M141.95,54.15c-5.1,0.03-10.21,0.05-15.31,0.08c-0.17-0.76-0.48-1.51-0.49-2.27
        c-0.04-6.21-0.03-12.42-0.01-18.63c0.01-2.38,0.26-2.69,2.58-2.62c1.26,0.04,2.75-0.66,3.72,0.8c0,0-0.07,0.08-0.07,0.08
        c-1.72-0.31-3.43-0.28-5.37,0.05c-0.26,7.39-0.11,14.65-0.08,22.12c5.17,0,10,0,14.84,0c0.07,0.13,0.14,0.26,0.19,0.4L141.95,54.15
        z"/>
    <path class="st14" d="M36.02,31.64c0,2.71,0,5.42,0,8.33c-2.1,0-4.04,0-6.15,0c-0.63-2.68,0.07-5.49-0.43-8.38
        c-1.77,0-3.47,0-5.46,0c0,0.98,0,1.83,0,2.69c0,5.43,0.01,10.86,0,16.29c0,0.88-0.08,1.75-0.12,2.63
        c-0.12-0.69-0.35-1.38-0.35-2.08c-0.03-5.89-0.03-11.78-0.01-17.67c0.01-2.51,0.24-2.73,2.71-2.77c3.99-0.08,4-0.07,4,3.87
        c0,0.88-0.02,1.75,0.01,2.63c0.06,1.97,0.19,2.09,2.25,2.14c0.4,0.01,0.8,0.02,1.19-0.01c1.57-0.1,1.75-0.25,1.82-1.84
        c0.05-1.19-0.05-2.39,0.04-3.58C35.58,33.13,35.85,32.39,36.02,31.64z"/>
    <path class="st15" d="M214.7,46.01c-0.1,0.46-0.24,0.92-0.28,1.38c-0.07,0.79-0.53,1.09-1.25,1.11c0,0-0.04,0-0.04,0
        c-2.49-0.02-4.98-0.03-7.46-0.05c0-0.84,0-1.68,0-2.82c3.1-0.04,5.89-0.07,8.68-0.11C214.47,45.69,214.59,45.85,214.7,46.01z"/>
    <path class="st15" d="M77.25,48.36c-1.13,0.09-2.25,0.19-3.38,0.28c-1.61,0.05-3.21,0.11-4.82,0.16c-0.19-1.13-0.38-2.25-0.57-3.38
        c3.02,0.06,6.04,0.13,9.06,0.19c0.01,0.3,0.02,0.6,0.03,0.89C77.45,47.12,77.35,47.74,77.25,48.36z"/>
    <path class="st15" d="M50.83,48.84c0-1.17,0-2.33,0-3.6c2.05,0,3.99,0,6.1,0c0,1.27,0,2.43,0,3.58c-0.13-0.08-0.26-0.08-0.39-0.01
        c-1.74,0.02-3.49,0.04-5.23,0.07C51.14,48.86,50.98,48.85,50.83,48.84z"/>
    <path class="st15" d="M44.64,54.18c2.06,0.01,4.12,0.02,6.19,0.03c-0.06,0.94-0.12,1.88-0.19,2.93c-1.92,0.55-3.76,0.38-5.84,0.13
        C44.75,56.19,44.69,55.19,44.64,54.18z"/>
    <path class="st15" d="M29.77,47.03c0-1.03,0-2.06,0-3.28c1.97,0,3.98,0,6.17,0c0,1.12,0,2.2,0,3.29c-0.28,0.02-0.56,0.05-0.84,0.07
        c-1.62,0.02-3.25,0.04-4.87,0.06C30.08,47.1,29.93,47.06,29.77,47.03z"/>
    <path class="st15" d="M170.68,54.17c2.07,0.01,4.14,0.01,6.21,0.02c0,0.99,0,1.99,0,3.14c-2.11,0-3.89,0-5.95,0
        C170.86,56.29,170.77,55.23,170.68,54.17z"/>
    <path class="st15" d="M29.73,54.24c0,0.94,0,1.88,0,2.84c-1.89,0.88-3.64,0.7-5.69,0.17c-0.02-0.98-0.05-2.05-0.07-3.12
        C25.89,54.17,27.81,54.21,29.73,54.24z"/>
    <path class="st15" d="M185.57,54.22c0,0.93,0,1.87,0,3.02c-1.99,0-3.74,0-5.77,0c0-1.1,0-2.1,0-3.09
        C181.73,54.17,183.65,54.2,185.57,54.22z"/>
    <path class="st15" d="M112.69,53.89c1.92-0.01,3.84-0.01,5.75-0.02c-0.02,1.2-0.03,2.4-0.05,3.6c-1.74,0.03-3.48,0.06-5.22,0.1
        C112.23,56.45,112.76,55.13,112.69,53.89z"/>
    <path class="st15" d="M104.54,54.21c0,0.93,0,1.86,0,3.01c-1.99,0-3.73,0-5.77,0c0-1.11,0-2.1,0-3.1
        C100.69,54.15,102.62,54.18,104.54,54.21z"/>
    <path class="st15" d="M199.25,56.07c0.11-0.54,0.21-1.08,0.37-1.89c1.87,0,3.75,0,5.63,0c0,0.99,0,1.99,0,3.29
        c-1.79,0-3.26,0-4.72,0C199.58,57.48,199.41,56.77,199.25,56.07z"/>
    <path class="st15" d="M86.76,57.55c-0.71-1.03-0.47-2.08-0.14-3.45c1.85,0,3.66,0,5.48,0c0,1.01,0,2.01,0,3.25
        C90.18,57.42,88.47,57.49,86.76,57.55z"/>
    <path class="st15" d="M77.45,56.07c0.11-0.53,0.21-1.07,0.35-1.77c1.77,0,3.53,0,5.27,0c0.7,2.51,0.67,2.6-1.03,3.28
        c-1.02-0.04-2.04-0.12-3.06-0.1C77.97,57.51,77.61,56.92,77.45,56.07z"/>
    <path class="st15" d="M62.85,54.14c-0.04,1-0.09,2.01-0.14,3.17c-1.9,0-3.6,0-5.65,0c0-1.13,0-2.19,0-3.25
        C58.99,54.09,60.92,54.12,62.85,54.14z"/>
    <path class="st15" d="M106.96,34.69c1.81,0.09,3.62,0.18,5.62,0.28c0,1.18,0,2.34,0,3.5c-1.72,0-3.45,0-5.38,0
        C107.1,37,107.03,35.85,106.96,34.69z"/>
    <path class="st15" d="M41.75,54.08c0,1.01,0,2.03,0,3.21c-1.92,0-3.62,0-5.59,0c-0.06-1.04-0.12-2.04-0.18-3.04
        C37.9,54.2,39.83,54.14,41.75,54.08z"/>
    <path class="st15" d="M118.52,38.44c0-1.09,0-2.19,0-3.43c1.88-0.13,3.74-0.27,5.6-0.4c-0.08,1.17-0.16,2.34-0.24,3.6
        c-1.79,0.1-3.37,0.19-4.95,0.29C118.8,38.43,118.66,38.41,118.52,38.44z"/>
    <path class="st14" d="M237.8,31.68c-1.8-0.09-3.59-0.18-5.62-0.28c0,3.52,0,6.68,0,10.04c-2.16,0-4.09,0-6.15,0
        c0-0.95,0-1.8,0-2.65c0.19,0.14,0.5,0.26,0.54,0.43c0.29,1.43,1.28,1.64,2.5,1.53c0.7-0.06,1.4-0.09,2.43-0.16
        c0.04-1.5,0.09-2.89,0.11-4.28c0.02-1.27-0.09-2.55,0.06-3.79c0.07-0.6,0.58-1.59,0.98-1.63c1.55-0.16,3.13-0.04,4.69,0.05
        C237.5,30.94,237.64,31.42,237.8,31.68z"/>
    <path class="st14" d="M132.44,31.52c0.29,0.6,0.75,1.18,0.82,1.81c0.13,1.18,0.01,2.39,0.05,3.59c0.06,1.79,0.48,2.25,2.28,2.36
        c1.35,0.08,2.72,0.04,4.07,0.03c0.9,0,1.77,0.06,2.34,0.91c0,0-0.14,0.12-0.14,0.12c-3.04-0.1-6.09-0.2-9.25-0.3
        c-0.08-2.95-0.16-5.69-0.23-8.43L132.44,31.52z"/>
    <path class="st15" d="M163.82,54.43c0,0.86,0,1.71,0,2.69c-1.77,0.64-3.52,0.41-5.45,0.17c-0.07-1.08-0.14-2.08-0.21-3.08
        c0,0,0.22,0.03,0.22,0.03C160.19,54.31,162.01,54.37,163.82,54.43z"/>
    <path class="st9" d="M113.17,57.57c1.74-0.03,3.48-0.06,5.22-0.1c0.84,2.09,0.05,3.57-2.08,3.76c-0.39,0.03-0.97-0.2-1.19-0.51
        C114.4,59.72,113.81,58.63,113.17,57.57z"/>
    <path class="st14" d="M92.22,53.22c0-1.48,0.01-2.97,0.01-4.45c2.11,0.01,4.23,0.02,6.34,0.03c0.04,1.62,0.08,3.24,0.13,4.86
        c-1.05-0.32-0.77-1.22-0.86-1.97c-0.21-1.64-0.55-1.87-2.11-1.59c-1.46,0.26-2.82,0.58-2.86,2.49
        C92.86,52.81,92.44,53.02,92.22,53.22z"/>
    <path class="st14" d="M237.88,49.86c-0.03-6.07-0.06-12.13-0.1-18.2c1.79,0.41,2.42,0.95,1.8,2.26c-2.12,4.51-0.94,9.25-1.28,13.88
        C238.25,48.49,238.03,49.17,237.88,49.86z"/>
    <path class="st9" d="M132.83,57.52c3.02-0.03,6.05-0.07,9.07-0.11c-0.06,0.81-0.43,1.42-1.27,1.46c-2.37,0.1-4.77,0.35-7.07-0.51
        C133.26,58.25,133.07,57.81,132.83,57.52z"/>
    <path class="st15" d="M141.94,54.17c-0.06-0.14-0.12-0.27-0.19-0.4c0.08-1.01,0.16-2.02,0.25-3.1c0.89-0.11,1.74-0.21,2.58-0.31
        l0,0.14l0.13,0.05c0,1.06,0,2.13,0,3.38C143.6,54.02,142.77,54.1,141.94,54.17z"/>
    <path class="st16" d="M163.82,54.43c-1.82-0.06-3.63-0.13-5.45-0.19c-0.03-0.17-0.06-0.34-0.09-0.5c1.73,0,3.45,0,5.38,0
        c0.11-1.04,0.21-2.03,0.33-3.14c0.73-0.14,1.49-0.28,2.24-0.42c0.04,0.23,0.08,0.46,0.12,0.69c0,0-0.06,0.21-0.06,0.21
        c-1.37-0.01-2.05,0.61-1.92,2.03c0.03,0.31-0.05,0.63-0.08,0.94C164.13,54.18,163.98,54.31,163.82,54.43z"/>
    <path class="st3" d="M223.02,45.03c-0.86,0-1.71,0-2.64,0c-0.16-0.86-0.28-1.54-0.4-2.23c-0.04-0.27-0.08-0.54-0.13-0.81
        c0.15-0.09,0.31-0.18,0.46-0.28c0.77,0.04,1.55,0.08,2.63,0.13C222.96,42.91,222.99,43.97,223.02,45.03z"/>
    <path class="st14" d="M104.6,53.2c-0.05-4.46-0.1-8.92-0.15-13.38c-0.02-1.75-0.04-3.51-0.06-5.26c0.21,0.64,0.55,1.28,0.6,1.93
        c0.19,2.68,0.46,5.36,0.39,8.04C105.31,47.43,104.88,50.32,104.6,53.2z"/>
    <path class="st14" d="M144.72,50.55l-0.13-0.05c0,0,0-0.14,0-0.14c-0.08-2.34-0.15-4.68-0.22-6.98c-0.93-0.21-1.65-0.37-2.51-0.57
        c0-0.9,0-1.69,0-2.47c0,0,0.14-0.12,0.14-0.12c0.42,1.03,0.77,2.05,2.07,2.38c0.44,0.11,1.05,0.73,1.06,1.14
        C145.23,46.01,145.76,48.34,144.72,50.55z"/>
    <path class="st16" d="M65.73,41.67c0.79,0.04,1.58,0.08,2.59,0.12c0.1,1.09,0.21,2.16,0.31,3.23c-0.32,0.06-0.64,0.12-0.96,0.18
        c-0.33,0-0.66,0-0.99,0C65.09,44.37,65.94,42.88,65.73,41.67z"/>
    <path class="st3" d="M217.08,41.66c0.05,1.12,0.09,2.25,0.14,3.37c-0.52,0.08-1.03,0.16-1.55,0.23c-0.44-0.07-0.88-0.14-1.32-0.21
        l0,0c0-1.01,0-2.02,0-3.18C215.4,41.79,216.24,41.72,217.08,41.66z"/>
    <path class="st9" d="M112.6,38.85c-0.01,4.77-0.02,9.54-0.03,14.31c-0.5-0.67-1.29-1.13-0.98-2.25c0.9-3.28,0.57-6.65,0.64-9.99
        C112.24,40.23,112.47,39.54,112.6,38.85z"/>
    <path class="st16" d="M166.23,47.52c0.63-0.27,1.26-0.55,2.02-0.88c0.06-0.75,0.12-1.67,0.21-2.78c0.7-0.07,1.35-0.14,2.1-0.22
        c0.49,1.5,0.4,2.87,0.17,4.26c-0.16,0-0.32-0.01-0.48-0.02c0,0,0-0.22,0-0.22c-0.13-0.47-0.26-0.93-0.39-1.4
        c-0.34,0.32-0.69,0.64-1.02,0.98c-0.05,0.05-0.04,0.14-0.06,0.21c0,0,0.02-0.02,0.02-0.02C167.94,47.46,167.09,47.49,166.23,47.52z
        "/>
    <path class="st9" d="M203.63,65.16c0.52-2.99,1.45-4.08,3.33-3.92C206.21,62.79,205.99,64.64,203.63,65.16z"/>
    <path class="st9" d="M233.02,65.19c-0.26,0.79-0.27,1.37-0.54,1.54c-0.73,0.45-1.55,0.81-2.38,1.02c-0.32,0.08-1.09-0.31-1.09-0.49
        c0-0.46,0.21-1.22,0.52-1.33C230.52,65.58,231.61,65.46,233.02,65.19z"/>
    <path class="st15" d="M166.23,47.52c0.86-0.03,1.72-0.06,2.58-0.09c-0.13,0.94-0.25,1.88-0.4,2.97c-0.7,0.16-1.37,0.31-2.05,0.46
        c-0.04-0.23-0.08-0.46-0.12-0.69C166.23,49.29,166.23,48.41,166.23,47.52z"/>
    <path class="st9" d="M118.52,38.44c0.14-0.02,0.28,0,0.41,0.06c0,4.05,0.02,8.1-0.02,12.15c-0.01,0.84-0.26,1.69-0.4,2.53
        C118.51,48.26,118.51,43.35,118.52,38.44z"/>
    <path class="st14" d="M185.59,38.42c0.16,0.04,0.31,0.08,0.47,0.13c0,4.05,0.02,8.1-0.03,12.15c-0.01,0.84-0.28,1.68-0.43,2.52
        C185.59,48.28,185.59,43.35,185.59,38.42z"/>
    <path class="st14" d="M67.67,45.21c0.32-0.06,0.64-0.12,0.96-0.18c0,0-0.03-0.02-0.03-0.02c-0.08,0.12-0.13,0.26-0.13,0.41
        c0.19,1.13,0.38,2.25,0.57,3.38c-1.84,0.69-2.38,0.33-2.11-1.39c0.07-0.47,0.16-0.93,0.23-1.39C67.34,45.75,67.5,45.48,67.67,45.21
        z"/>
    <path class="st14" d="M89.35,31.33c-0.06,0.93-0.11,1.86-0.18,2.98c-0.89,0.12-1.79,0.24-2.68,0.36
        C86.88,33.08,87.42,31.61,89.35,31.33z"/>
    <path class="st14" d="M101.57,31.46c-4.08-0.04-8.17-0.08-12.25-0.12c0.47-0.22,0.94-0.62,1.42-0.62c3.08-0.06,6.17-0.07,9.25,0.01
        C100.52,30.73,101.04,31.2,101.57,31.46z"/>
    <path class="st17" d="M234.99,53.74c-0.51,0.14-1.02,0.41-1.53,0.41c-3.49,0.02-6.99-0.01-10.49-0.02
        c0.02-0.17,0.04-0.34,0.06-0.51C227.02,53.65,231.01,53.7,234.99,53.74z"/>
    <path class="st3" d="M214.35,45.53c-2.79,0.03-5.59,0.07-8.68,0.11c0,1.14,0,1.98,0,2.82c0,0-0.21,0.03-0.21,0.03s-0.21,0-0.21,0
        c0-1.03,0-2.06,0-3.44c3.08,0,6.09,0,9.11,0l0,0C214.35,45.21,214.35,45.37,214.35,45.53z"/>
    <path class="st14" d="M41.86,47.46c0-1.93,0-3.87,0-5.8c0.22,0.21,0.64,0.43,0.64,0.64C42.49,44.05,43.41,45.92,41.86,47.46z"/>
    <path class="st15" d="M164.29,54.05c0.03-0.31,0.11-0.63,0.08-0.94c-0.13-1.42,0.56-2.04,1.92-2.03c0.01,0.38,0.05,0.76,0.03,1.14
        C166.23,53.93,166.22,53.93,164.29,54.05z"/>
    <path class="st14" d="M225.89,31.47c-1.92,0.07-3.84,0.14-5.76,0.2c0.05-0.15,0.05-0.36,0.15-0.43
        C221.55,30.33,224.51,30.46,225.89,31.47z"/>
    <path class="st14" d="M41.74,31.56c-1.91,0.04-3.82,0.07-5.73,0.11c0.16-0.26,0.31-0.74,0.47-0.74c1.63-0.03,3.26,0,4.89,0.06
        C41.5,31,41.62,31.36,41.74,31.56z"/>
    <path class="st14" d="M220.3,41.71c-0.15,0.09-0.31,0.18-0.46,0.28c-0.06-3.1-0.14-6.2-0.17-9.3c0-0.35,0.31-0.7,0.47-1.05
        C220.2,34.99,220.25,38.35,220.3,41.71z"/>
    <path class="st9" d="M223.74,67.84c-0.69-0.38-1.44-0.78-2.26-1.23c0.76-1.21,1.5-0.94,2.21-0.54
        C224.36,66.45,224.52,66.99,223.74,67.84z"/>
    <path class="st14" d="M226.05,35.96c-0.03-1.46-0.06-2.91-0.09-4.37C227.1,33.03,227.13,34.34,226.05,35.96z"/>
    <path class="st14" d="M35.09,47.11c0.28-0.02,0.56-0.05,0.85-0.07c0.02,2.21,0.04,4.42,0.05,6.62c-0.16-0.89-0.37-1.77-0.48-2.66
        C35.34,49.71,35.23,48.41,35.09,47.11z"/>
    <path class="st14" d="M29.77,47.03c0.16,0.02,0.31,0.07,0.46,0.14c0,1.42,0.05,2.84-0.04,4.26c-0.04,0.75-0.31,1.49-0.48,2.24
        C29.73,51.46,29.75,49.24,29.77,47.03z"/>
    <path class="st14" d="M185.57,54.22c-1.92-0.02-3.85-0.05-5.77-0.07c-0.03-0.15-0.03-0.3,0.01-0.45c1.91-0.04,3.82-0.09,5.73-0.13
        C185.56,53.78,185.56,54,185.57,54.22z"/>
    <path class="st14" d="M104.54,54.21c-1.92-0.03-3.85-0.06-5.77-0.08c-0.04-0.12-0.03-0.24,0.02-0.36c1.91-0.05,3.83-0.11,5.74-0.16
        C104.53,53.81,104.54,54.01,104.54,54.21z"/>
    <path class="st14" d="M62.85,54.14c-1.93-0.03-3.86-0.05-5.79-0.08c-0.04-0.14-0.03-0.27,0.02-0.4c1.9-0.05,3.8-0.1,5.7-0.15
        C62.8,53.73,62.82,53.94,62.85,54.14z"/>
    <path class="st14" d="M41.75,54.08c-1.92,0.06-3.85,0.12-5.77,0.18c0-0.2,0.01-0.4,0.01-0.6c1.91,0.01,3.82,0.02,5.73,0.03
        C41.77,53.82,41.78,53.95,41.75,54.08z"/>
    <path class="st14" d="M29.73,54.24c-1.92-0.04-3.84-0.08-5.76-0.12c-0.03-0.15-0.03-0.29,0.01-0.44c1.91-0.01,3.82-0.03,5.73-0.04
        C29.71,53.85,29.72,54.05,29.73,54.24z"/>
    <path class="st14" d="M83.31,31.37c-1.85-0.03-3.71-0.06-5.56-0.09C79.55,30.39,81.8,30.43,83.31,31.37z"/>
    <path class="st14" d="M56.53,48.82c0.13-0.07,0.26-0.07,0.39,0.01c0.02,1.47,0.03,2.94,0.05,4.41c-0.19-0.37-0.52-0.74-0.53-1.12
        C56.4,51.02,56.49,49.92,56.53,48.82z"/>
    <path class="st14" d="M50.83,48.84c0.16,0,0.32,0.02,0.48,0.04c-0.17,1.45-0.34,2.9-0.51,4.35C50.8,51.77,50.81,50.31,50.83,48.84z
        "/>
    <path class="st14" d="M205.26,53.22c0-1.3,0-2.6,0-3.9C205.93,50.62,205.93,51.92,205.26,53.22z"/>
    <path class="st15" d="M168.78,47.45c0.02-0.07,0.02-0.17,0.06-0.21c0.34-0.33,0.68-0.65,1.02-0.98c0.13,0.47,0.26,0.93,0.39,1.4
        C169.76,47.59,169.27,47.52,168.78,47.45z"/>
    <path class="st9" d="M127.96,62.16c-0.17,0.1-0.34,0.22-0.53,0.28c-0.03,0.01-0.24-0.3-0.2-0.36c0.1-0.16,0.29-0.27,0.45-0.4
        C127.75,61.8,127.83,61.94,127.96,62.16z"/>
    <path class="st14" d="M237.88,50.69c-0.75-0.06-1.51-0.11-2.25-0.17c0.73-0.1,1.46-0.21,2.19-0.31
        C237.84,50.37,237.86,50.53,237.88,50.69z"/>
    <path class="st14" d="M214.35,45.53c0-0.16,0-0.32,0-0.48c0.44,0.07,0.88,0.14,1.32,0.21c-0.33,0.25-0.65,0.5-0.98,0.75
        C214.59,45.85,214.47,45.69,214.35,45.53z"/>
    <path class="st9" d="M139.37,66.36c-0.16,0.1-0.33,0.2-0.49,0.3c-0.06-0.12-0.2-0.3-0.17-0.36c0.1-0.15,0.28-0.25,0.43-0.37
        C139.2,66.06,139.27,66.18,139.37,66.36z"/>
    <path class="st7" d="M67.67,45.21c-0.17,0.27-0.33,0.54-0.5,0.81c-0.16-0.27-0.32-0.54-0.49-0.81
        C67.01,45.21,67.34,45.21,67.67,45.21z"/>
    <path class="st9" d="M208.19,62.58c0.01,0.13,0.03,0.25,0.02,0.38c0,0.02-0.13,0.02-0.21,0.04c-0.01-0.13-0.03-0.25-0.02-0.38
        C207.98,62.6,208.11,62.6,208.19,62.58z"/>
    <path class="st14" d="M41.87,33.05c-0.03-0.48-0.07-0.96-0.1-1.43C41.8,32.09,41.84,32.57,41.87,33.05z"/>
    <path class="st3" d="M213.13,48.5c0,0,0.04,0,0.04,0C213.16,48.51,213.14,48.51,213.13,48.5z"/>
    <path class="st14" d="M41.87,39.28c0-0.31,0-0.63,0-0.94C41.87,38.65,41.87,38.97,41.87,39.28z"/>
    <path class="st14" d="M235.47,54.61c0.14-0.16,0.29-0.31,0.43-0.47C235.76,54.3,235.62,54.46,235.47,54.61z"/>
    <path class="st14" d="M170.25,47.88c0.16,0.01,0.32,0.02,0.48,0.02c-0.03,0.17-0.07,0.34-0.1,0.51
        C170.5,48.24,170.37,48.06,170.25,47.88z"/>
    <path class="st9" d="M21.13,21.63c0.15-0.04,0.3-0.07,0.45-0.08C21.43,21.57,21.28,21.6,21.13,21.63z"/>
    <path class="st10" d="M106,67.64c-0.25,0.3-0.44,0.61-0.51,0.59c-0.25-0.1-0.48-0.28-0.66-0.47c-0.03-0.03,0.22-0.46,0.33-0.45
        C105.41,67.32,105.65,67.48,106,67.64z"/>
    <path class="st15" d="M98.57,48.81c-2.11-0.01-4.23-0.02-6.34-0.03c0-1.09,0-2.19,0-3.47c2.07,0,4.13,0,6.34,0
        C98.57,46.5,98.57,47.66,98.57,48.81z"/>
    <path class="st14" d="M98.62,38.01c0,1.08,0,2.17,0,3.44c-2.12,0-4.18,0-6.38,0c0-1.12,0-2.12,0-3.11
        C94.36,38.23,96.49,38.12,98.62,38.01z"/>
    <path class="st15" d="M98.62,38.01c-2.13,0.11-4.25,0.22-6.38,0.32c0-1.07,0-2.15,0-3.36c2.2-0.11,4.27-0.4,6.34,0.19
        c0,0-0.08,0.09-0.08,0.09s0.11,0.01,0.11,0.01C98.61,36.18,98.61,37.09,98.62,38.01z"/>
    <polygon class="st14" points="98.6,35.26 98.49,35.25 98.57,35.16 98.68,35.18    "/>
    <path class="st9" d="M56.92,38.48c0.05,0.93,0.1,1.86,0.15,2.94c-2.19,0-4.15,0-6.37,0c0.05-1.03,0.09-1.95,0.14-2.87
        C52.86,38.53,54.89,38.5,56.92,38.48z"/>
    <path class="st2" d="M56.92,38.48c-2.03,0.02-4.06,0.04-6.09,0.06c0-1.16,0-2.33,0-3.61c2.03,0,3.97,0,6.09,0
        C56.92,36.17,56.92,37.33,56.92,38.48z"/>
    <path class="st15" d="M225.77,48.8c-0.84-0.17-1.68-0.35-2.78-0.58c0-0.89,0-1.81,0-2.73c2.98,0.03,5.96,0.06,8.95,0.09
        c0.01,0.81,0.03,1.63,0.04,2.44c-0.09,0.17-0.19,0.34-0.28,0.51c-0.17,0.11-0.34,0.22-0.51,0.33
        C229.38,48.84,227.58,48.82,225.77,48.8z"/>
    <path class="st3" d="M231.94,45.58c-2.98-0.03-5.96-0.06-8.95-0.09c0-0.16,0-0.32,0-0.49c2.43,0.03,4.87,0.03,7.3,0.11
        C230.84,45.13,231.39,45.42,231.94,45.58z"/>
    <path class="st3" d="M231.7,48.53c0.09-0.17,0.19-0.34,0.28-0.51c0.02,0.23,0.03,0.46,0.05,0.69
        C231.89,48.71,231.78,48.65,231.7,48.53z"/>
    <path class="st0" d="M205.26,38.46c0-1.1,0-2.21,0-3.47c1.97,0,3.91,0,6.04,0c0,1.2,0,2.37,0,3.53
        C209.29,38.5,207.28,38.48,205.26,38.46z"/>
    <path class="st9" d="M205.26,38.46c2.01,0.02,4.02,0.04,6.04,0.06c0.04,0.92,0.08,1.85,0.14,2.95c-2.13,0-4.05,0-6.17,0
        C205.26,40.43,205.26,39.44,205.26,38.46z"/>
    <path class="st16" d="M68.47,45.42c0-0.15,0.04-0.29,0.13-0.41c2.45,0.01,4.9-0.01,7.35,0.06c0.53,0.02,1.05,0.35,1.58,0.53
        C74.51,45.55,71.49,45.49,68.47,45.42z"/>
    <path class="st16" d="M77.25,48.36c0.1-0.62,0.21-1.24,0.31-1.85c0.02,0.63,0.04,1.26,0.06,1.89
        C77.49,48.4,77.37,48.39,77.25,48.36z"/>
    <path class="st10" d="M225.77,48.8c1.8,0.02,3.61,0.04,5.41,0.06C229.44,50.29,227.1,50.27,225.77,48.8z"/>
    <path class="st12" d="M141.85,40.33c0,0.78,0,1.57,0,2.47c0.85,0.19,1.58,0.36,2.51,0.57c0.07,2.3,0.15,4.64,0.22,6.98
        c-0.84,0.1-1.69,0.2-2.58,0.31c-0.09,1.08-0.17,2.09-0.25,3.1c-4.84,0-9.67,0-14.84,0c-0.03-7.47-0.18-14.73,0.08-22.12
        c1.94-0.33,3.65-0.36,5.37-0.05c0.08,2.74,0.15,5.48,0.23,8.43C135.77,40.14,138.81,40.23,141.85,40.33z M132.48,43.84
        c0.03,1.08,0.06,2.15,0.09,3.23c0,1,0,2.01,0,3.1c2.14,0,4.06,0,6.02,0c0-1.1,0-2.04,0-2.98c0-1.15,0-2.29,0-3.67
        c-2.18,0.1-4.13,0.2-6.09,0.29L132.48,43.84z"/>
    <path class="st9" d="M138.59,47.2c0,0.94,0,1.88,0,2.98c-1.95,0-3.88,0-6.02,0c0-1.1,0-2.1,0-3.11
        C134.58,47.11,136.58,47.16,138.59,47.2z"/>
    <path class="st15" d="M138.59,47.2c-2.01-0.04-4.01-0.09-6.02-0.13c-0.03-1.08-0.06-2.15-0.09-3.23c0,0,0.02-0.03,0.02-0.03
        c1.95-0.09,3.91-0.19,6.09-0.29C138.59,44.91,138.59,46.05,138.59,47.2z"/>
    <path class="st9" d="M132.5,43.82c0,0-0.02,0.03-0.02,0.03C132.48,43.84,132.5,43.82,132.5,43.82z"/>
</g>
</svg>